<ttFont>
          <CharString index="0">
            211 100 rmoveto
            -44 callgsubr
            rlineto
            -57 17 35 -7 36 hhcurveto
            21 40 6 10 23 -70 callsubr
            -195 -538 -80 callgsubr
            20 164 -86 callgsubr
            return
          </CharString>
          <CharString index="1">
            536 125 rmoveto
            -236 hlineto
            -28 -23 -45 callgsubr
            88 67 vlineto
            157 hlineto
            7 -26 callgsubr
            -7 19 vhcurveto
            -157 -75 callsubr
            4 28 -14 callsubr
            59 callgsubr
            23 vhcurveto
            -427 -28 callgsubr
            -589 vlineto
            -56 33 -34 55 vhcurveto
            return
          </CharString>
          <CharString index="2">
            289 87 callsubr
            -34 callsubr
            12 24 vvcurveto
            42 -20 callsubr
            24 23 callsubr
            25 -41 callgsubr
            41 vlineto
            21 -1 13 19 67 callsubr
            179 14 callsubr
            23 -73 callsubr
            234 -35 callsubr
            71 callgsubr
            return
          </CharString>
          <CharString index="3">
            hintmask 11010000
            -106 callgsubr
            return
          </CharString>
          <CharString index="4">
            hintmask 11101000
            -105 callgsubr
            return
          </CharString>
          <CharString index="5">
            -27 44 85 -30 106 hhcurveto
            130 1 98 62 111 vvcurveto
            84 -59 57 -90 33 vhcurveto
            -90 32 rlineto
            -29 11 -21 8 21 vvcurveto
            23 21 18 38 1 vhcurveto
            48 65 -17 -22 51 hvcurveto
            31 24 19 47 43 vvcurveto
            22 -52 -83 21 -77 hhcurveto
            -135 -84 -72 -102 -84 67 -45 77 -28 hvcurveto
            91 -33 rlineto
            37 -13 13 -17 -20 vvcurveto
            -30 -29 -17 -40 -1 vhcurveto
            -61 -66 23 27 -51 hvcurveto
            -30 -20 -24 -54 -37 vvcurveto
            return
          </CharString>
          <CharString index="6">
            -222 -671 -81 callsubr
            21 212 -83 callgsubr
            return
          </CharString>
          <CharString index="7">
            517 384 rmoveto
            128 -101 43 -120 -70 -68 -2 -2 -79 3 callgsubr
            33 1 callsubr
            20 29 -54 callgsubr
            197 25 vlineto
            35 19 -4 -33 15 hvcurveto
            45 -102 rlineto
            -47 20 23 -20 44 hhcurveto
            43 40 23 23 18 hvcurveto
            -18 16 -15 24 -12 27 -27 63 rcurveline
            -18 38 -21 24 -36 12 rrcurveto
            54 12 60 55 76 vvcurveto
            -294 63 rmoveto
            24 18 -1 24 hhcurveto
            54 20 -31 -35 -35 -18 -33 -63 hvcurveto
            -11 -23 -1 -25 hhcurveto
            return
          </CharString>
          <CharString index="8">
            rmoveto
            11 -27 26 -23 25 -8 183 138 rcurveline
            -11 39 -44 37 -36 11 rrcurveto
            endchar
          </CharString>
          <CharString index="9">
            52 139 rmoveto
            -11 -15 -7 -20 -18 vvcurveto
            -11 2 -10 14 -66 vhcurveto
            338 hlineto
            55 45 29 52 25 -3 16 -6 20 hvcurveto
            -26 -13 -41 -4 -38 -2 -35 -1 rcurveline
            -39 -2 -51 -2 -46 -3 -2 4 rcurveline
            23 19 32 33 16 19 191 222 rcurveline
            14 16 3 17 16 vvcurveto
            10 -1 9 -20 71 vhcurveto
            -398 hlineto
            -6 -25 -4 -18 -26 vvcurveto
            -16 1 -16 4 -18 vhcurveto
            119 hlineto
            22 77 3 5 44 hvcurveto
            2 -3 -23 -19 -37 -36 -17 -19 rlinecurve
            return
          </CharString>
          <CharString index="10">
            609 689 rmoveto
            -50 hlineto
            -59 -26 -24 -68 hvcurveto
            -140 vlineto
            -69 4 -128 8 -92 vhcurveto
            -4 -1 -63 151 -162 365 rlineto
            5 -33 -36 1 60 callsubr
            -47 -3 -6 -24 hvcurveto
            -680 vlineto
            -5 24 30 -16 callsubr
            19 25 -54 callgsubr
            215 vlineto
            81 -5 127 -7 83 vhcurveto
            4 1 14 -39 21 -50 22 -52 rlinecurve
            166 -366 rlineto
            -5 33 36 -16 callsubr
            20 48 3 6 25 hvcurveto
            680 vlineto
            return
          </CharString>
          <CharString index="11">
            548 550 rmoveto
            5 -24 -35 1 -18 hhcurveto
            -20 19 callgsubr
            -344 vlineto
            -64 -23 -38 -68 -67 -24 38 64 vhcurveto
            254 vlineto
            69 -33 27 -58 vhcurveto
            -55 hlineto
            -5 -6 rlineto
            -345 vlineto
            -137 84 -83 158 158 84 83 137 vhcurveto
            return
          </CharString>
          <CharString index="12">
            71 -40 44 -65 vhcurveto
            -20 hlineto
            -21 -34 -2 -3 -30 -69 callsubr
            14 hlineto
            36 11 -23 -34 hvcurveto
            -336 -59 callsubr
            return
          </CharString>
          <CharString index="13">
            -45 23 rlineto
            9 -17 -23 8 -22 hhcurveto
            -52 -41 -35 -51 -22 hvcurveto
            -8 -19 rlineto
            -26 10 33 -19 27 hhcurveto
            9 13 rlineto
            16 12 11 8 12 hhcurveto
            10 11 -4 -5 9 hvcurveto
            endchar
          </CharString>
          <CharString index="14">
            -50 callsubr
            hintmask 00101000
            -91 callgsubr
          </CharString>
          <CharString index="15">
            rmoveto
            -9 17 22 -9 23 hhcurveto
            51 42 35 51 22 hvcurveto
            8 20 rlineto
            26 -11 -32 18 -27 hhcurveto
            -9 -12 rlineto
            -17 -12 -11 67 callgsubr
            -10 -11 4 5 -9 hvcurveto
            return
          </CharString>
          <CharString index="16">
            rmoveto
            -18 4 -21 7 -17 vhcurveto
            -10 15 31 -5 26 hhcurveto
            26 31 6 9 15 hvcurveto
            7 17 -39 callsubr
            9 -15 -31 6 70 callgsubr
            -29 -6 -9 -27 callgsubr
            return
          </CharString>
          <CharString index="17">
            20 7 33 23 12 31 -93 125 rcurveline
            -33 9 -57 2 -32 -11 -105 -136 rcurveline
            17 -29 29 -20 20 -8 97 94 rcurveline
            endchar
          </CharString>
          <CharString index="18">
            rmoveto
            -5 21 23 1 callsubr
            16 70 callsubr
            18 hvcurveto
            70 vlineto
            9 14 -1 9 hhcurveto
            16 hlineto
            7 21 3 21 22 vvcurveto
            13 -1 12 -3 13 vhcurveto
            -54 hlineto
            19 1 32 21 vvcurveto
            46 vlineto
            -4 5 rlineto
            -29 hlineto
            -54 -32 -34 -56 hvcurveto
            -24 vlineto
            -10 vlineto
            -20 -27 -2 -2 -18 hvcurveto
            -2 2 25 31 32 68 16 36 rlinecurve
            55 120 -26 19 -54 11 -38 -4 rlinecurve
            -114 -257 rlineto
            -5 -9 -10 -22 -18 vvcurveto
            -20 13 -30 14 -24 vhcurveto
            106 hlineto
            22 11 1 21 hhcurveto
            -19 -1 -10 -20 vvcurveto
            endchar
          </CharString>
          <CharString index="19">
            hintmask 11010000
            -97 callgsubr
            hintmask 00101000
            return
          </CharString>
          <CharString index="20">
            rmoveto
            -90 callsubr
          </CharString>
          <CharString index="21">
            30 vvcurveto
            204 vlineto
            125 -87 45 -89 -65 -96 -17 -27 -65 vhcurveto
            3 -37 12 -43 21 -24 rrcurveto
            16 53 52 16 44 hhcurveto
            46 22 -22 -44 hvcurveto
            -22 vlineto
            2 -28 -28 65 callsubr
            -104 -93 -53 -120 -71 48 -80 103 return
          </CharString>
          <CharString index="22">
            240 146 rmoveto
            -45 callsubr
            rlineto
            -65 18 24 -18 49 hhcurveto
            29 37 7 12 21 hvcurveto
            -216 672 rlineto
            return
          </CharString>
          <CharString index="23">
            17 60 rmoveto
            -48 73 97 -27 81 hhcurveto
            174 87 92 121 87 -56 68 -95 41 hvcurveto
            -120 50 rlineto
            -44 19 -18 20 28 vvcurveto
            30 26 34 59 54 74 -24 -25 52 vhcurveto
            29 28 20 43 3 44 rrcurveto
            27 -52 -87 30 -93 hhcurveto
            -136 -105 -85 -122 -94 60 -53 82 -36 hvcurveto
            118 -50 rlineto
            56 -25 11 -30 -25 vvcurveto
            -35 -27 -35 -61 -71 -75 32 34 -56 vhcurveto
            -30 -25 -26 -46 -4 -43 rrcurveto
            return
          </CharString>
          <CharString index="24">
            21 35 rmoveto
            -26 46 73 -24 78 hhcurveto
            120 81 63 99 83 -57 48 -76 28 hvcurveto
            -61 22 rlineto
            -29 11 -13 11 19 vvcurveto
            20 16 16 30 47 51 -19 -18 40 vhcurveto
            24 18 19 51 -1 35 rrcurveto
            21 -44 -79 20 -59 hhcurveto
            -115 -76 -63 -100 -80 55 -43 71 -26 hvcurveto
            55 -20 rlineto
            33 -12 15 -16 -21 vvcurveto
            -22 -22 -16 -41 -41 -54 18 23 -44 vhcurveto
            -22 -22 -19 -46 -1 -32 rrcurveto
            return
          </CharString>
          <CharString index="25">
            76 71 callsubr
            57 callgsubr
            20 29 -54 callgsubr
            550 -1 callsubr
            -29 1 -20 9 callgsubr
            -24 hvcurveto
            return
          </CharString>
          <CharString index="26">
            6 -8 rlineto
            -7 17 33 -4 23 hhcurveto
            24 70 callsubr
            19 hvcurveto
            44 148 rlineto
            -1 14 18 0 10 hhcurveto
            return
          </CharString>
          <CharString index="27">
            278 413 rmoveto
            -12 -30 -12 -52 -11 -38 rrcurveto
            -6 hlineto
            -4 31 -8 34 -16 41 -40 103 rcurveline
            42 -16 -25 14 -40 45 callsubr
            -8 -13 -28 hvcurveto
            159 -371 rlineto
            -166 vlineto
            -5 24 34 1 callsubr
            20 28 1 5 24 hvcurveto
            162 vlineto
            160 377 -6 8 rlineto
            6 -28 -13 3 -25 hhcurveto
            -20 -24 -1 -5 -21 hvcurveto
            return
          </CharString>
          <CharString index="28">
            490 249 rmoveto
            87 -19 66 -53 53 vhcurveto
            40 -41 -54 18 -62 hhcurveto
            -62 -54 -18 -40 -41 hvcurveto
            -53 -53 -19 -66 -87 vvcurveto
            -87 19 -65 53 -53 -21 callgsubr
            53 19 65 87 vvcurveto
            -305 hmoveto
            -30 callsubr
            return
          </CharString>
          <CharString index="29">
            437 416 rmoveto
            -50 callgsubr
            -173 66 -181 207 110 103 49 57 57 hvcurveto
            -46 callgsubr
            91 25 -79 -82 -2 hvcurveto
            return
          </CharString>
          <CharString index="30">
            vvcurveto
            86 -24 97 -75 58 vhcurveto
            30 -40 -49 20 -82 -55 callgsubr
            return
          </CharString>
          <CharString index="31">
            24 -6 22 hhcurveto
            22 24 6 10 return
          </CharString>
          <CharString index="32">
            hlineto
            -14 -27 -53 callgsubr
            68 hlineto
            209 hlineto
            8 23 return
          </CharString>
          <CharString index="33">
            13 callsubr
            hintmask 11010100
            -96 callsubr
            hintmask 00101000
            return
          </CharString>
          <CharString index="34">
            -33 callgsubr
            -391 hlineto
            -6 -5 rlineto
            -461 vlineto
            -53 34 -33 54 vhcurveto
            return
          </CharString>
          <CharString index="35">
            hintmask 10010000
            -82 callsubr
            return
          </CharString>
          <CharString index="36">
            -48 23 rlineto
            10 -18 -24 7 -24 hhcurveto
            -55 -42 -35 -50 -24 hvcurveto
            -9 -20 rlineto
            -26 11 36 -18 28 hhcurveto
            9 12 rlineto
            18 12 13 6 12 hhcurveto
            11 11 -4 -5 9 hvcurveto
            endchar
          </CharString>
          <CharString index="37">
            hvcurveto
            -191 543 rlineto
            5 -33 -28 1 -23 45 callsubr
            -1 -5 -32 hvcurveto
            return
          </CharString>
          <CharString index="38">
            hvcurveto
            -4 -17 -2 -20 -16 vvcurveto
            -19 2 -15 4 -17 vhcurveto
            return
          </CharString>
          <CharString index="39">
            rmoveto
            -36 -11 -43 -37 -12 -39 183 -138 rcurveline
            25 8 27 23 10 27 rrcurveto
            endchar
          </CharString>
          <CharString index="40">
            11 -16 -33 7 -29 callgsubr
            -28 -20 vvcurveto
            -19 5 -26 6 -36 callgsubr
            -32 -11 -3 -27 11 -29 25 -13 rrcurveto
            113 33 54 83 92 vvcurveto
            28 -4 24 -9 25 vhcurveto
            return
          </CharString>
          <CharString index="41">
            -10 16 33 -8 25 hhcurveto
            25 32 8 10 18 hvcurveto
            6 12 5 29 19 vvcurveto
            19 -5 26 -6 12 vhcurveto
            -10 8 -19 3 -17 3 2 46 50 29 32 10 3 27 -11 29 -26 13 rrcurveto
            -112 -32 -54 -84 -92 vvcurveto
            -27 3 -25 10 -25 vhcurveto
            return
          </CharString>
          <CharString index="42">
            rmoveto
            -8 17 25 -9 24 hhcurveto
            54 43 35 51 24 hvcurveto
            9 19 rlineto
            26 -12 -35 19 -28 hhcurveto
            -9 -13 rlineto
            -17 -12 -13 67 callgsubr
            -11 -11 4 5 -9 hvcurveto
            return
          </CharString>
          <CharString index="43">
            47 129 rmoveto
            -15 -21 -6 -18 -16 vvcurveto
            -18 5 -20 12 -36 vhcurveto
            301 hlineto
            60 21 26 40 21 -5 14 -10 25 hvcurveto
            -13 -28 -35 -3 -32 hhcurveto
            -37 hlineto
            -25 -27 -2 -3 -29 hvcurveto
            -3 4 26 27 28 35 22 29 rlinecurve
            128 171 rlineto
            10 14 4 17 14 vvcurveto
            21 -7 25 -12 36 vhcurveto
            -347 69 callsubr
            -3 -23 -22 vvcurveto
            -14 1 -17 4 -15 vhcurveto
            81 hlineto
            37 53 4 4 35 hvcurveto
            3 -5 -22 -25 -34 -38 -24 -31 rlinecurve
            return
          </CharString>
          <CharString index="44">
            rmoveto
            -12 3 -29 8 -16 vhcurveto
            -12 16 26 -5 23 hhcurveto
            21 28 5 12 16 hvcurveto
            7 16 2 29 12 vvcurveto
            11 -2 29 -7 16 vhcurveto
            11 -16 -28 7 -21 hhcurveto
            -23 -26 -7 -11 -16 hvcurveto
            -8 -16 -3 -29 -11 vvcurveto
            endchar
          </CharString>
          <CharString index="45">
            rmoveto
            -27 -28 -17 -40 -7 -37 rrcurveto
            -24 32 65 -19 58 hhcurveto
            152 56 80 145 hvcurveto
            339 vlineto
            6 -25 -31 0 -20 hhcurveto
            -18 -33 -18 callgsubr
            -344 vlineto
            -66 -22 -35 -53 -26 -32 11 18 -27 vhcurveto
            return
          </CharString>
          <CharString index="46">
            348 499 rmoveto
            -120 -2 rlineto
            145 vlineto
            -7 7 rlineto
            -58 hlineto
            -59 -21 -24 -66 hvcurveto
            -61 vlineto
            -78 1 rlineto
            -5 -18 -1 -17 -17 vvcurveto
            -18 1 -18 38 callgsubr
            78 1 rlineto
            -265 vlineto
            -92 40 -42 88 40 51 5 5 36 vhcurveto
            3 34 callgsubr
            23 -5 27 -7 21 vhcurveto
            -58 hlineto
            -31 -13 17 30 hvcurveto
            239 vlineto
            120 -2 rlineto
            4 18 2 18 18 vvcurveto
            17 -2 17 -4 18 vhcurveto
            return
          </CharString>
          <CharString index="47">
            79 15 101 100 101 14 -101 -79 -78 -14 -99 -101 -100 -15 99 78 vhcurveto
            return
          </CharString>
          <CharString index="48">
            -49 callsubr
            26 61 callgsubr
            20 hvcurveto
            return
          </CharString>
          <CharString index="49">
            rmoveto
            -24 -19 -31 -50 -4 -44 238 -94 rcurveline
            24 14 14 31 4 27 rrcurveto
            endchar
          </CharString>
          <CharString index="50">
            rmoveto
            -30 -19 22 28 40 21 27 46 16 22 0 -1 22 hvcurveto
            -83 vlineto
            -21 -25 -28 -12 -25 hhcurveto
            return
          </CharString>
          <CharString index="51">
            626 342 rmoveto
            116 -18 106 -94 74 vhcurveto
            36 -45 -82 15 -55 hhcurveto
            -85 -76 -1 -3 -86 hvcurveto
            12 callgsubr
            87 75 -2 85 hhcurveto
            55 82 14 36 45 hvcurveto
            95 74 17 107 117 vvcurveto
            -157 hmoveto
            -104 -18 -125 -119 -35 -30 1 -1 -37 vhcurveto
            457 vlineto
            37 30 -1 35 hhcurveto
            119 18 -123 -104 hvcurveto
            return
          </CharString>
          <CharString index="52">
            145 hintmask 11010100
            -78 callsubr
            hintmask 00101000
            return
          </CharString>
          <CharString index="53">
            570 -16 callgsubr
            -79 hvcurveto
            38 callsubr
            -540 vlineto
            6 -6 rlineto
            -2 79 -10 callsubr
            -154 hmoveto
            -74 -15 -89 -101 vhcurveto
            -30 -18 -1 -29 hhcurveto
            330 vlineto
            -1 28 19 0 30 hhcurveto
            101 15 -90 -75 hvcurveto
            return
          </CharString>
          <CharString index="54">
            33 429 rmoveto
            16 -12 21 -33 -58 vvcurveto
            -326 -59 callsubr
            313 vlineto
            34 21 26 20 39 hhcurveto
            17 -1 16 -2 17 -6 rrcurveto
            24 41 13 63 35 vvcurveto
            5 -20 -16 3 -29 hhcurveto
            -66 -38 -38 -51 -22 hvcurveto
            -21 52 -39 32 -62 6 -19 -14 -22 -36 -5 -27 rrcurveto
            return
          </CharString>
          <CharString index="55">
            178 hmoveto
            -5 26 29 59 callsubr
            22 29 -8 callgsubr
            483 vlineto
            27 -1 19 28 vvcurveto
            1 hlineto
            15 33 -1 14 hhcurveto
            35 hlineto
            55 25 18 50 20 -3 23 -5 16 hvcurveto
            -490 hlineto
            -4 -23 -1 -23 -18 vvcurveto
            -17 1 -23 4 -23 vhcurveto
            106 hlineto
            14 33 1 15 hhcurveto
            1 hlineto
            -28 -1 -19 -27 vvcurveto
            return
          </CharString>
          <CharString index="56">
            151 -72 callsubr
            hintmask 01100000
            return
          </CharString>
          <CharString index="57">
            rmoveto
            -19 -7 -32 -24 -14 -30 rrcurveto
            return
          </CharString>
          <CharString index="58">
            vlineto
            -4 22 28 -2 25 hhcurveto
            return
          </CharString>
          <CharString index="59">
            rmoveto
            -9 32 -39 37 -32 7 -200 -188 rcurveline
            -10 -23 0 -40 10 -23 202 -185 rcurveline
            32 8 41 36 9 31 -128 156 rcurveline
            return
          </CharString>
          <CharString index="60">
            68 -31 28 -14 callgsubr
            -6 rlineto
            return
          </CharString>
          <CharString index="61">
            -7 32 -31 47 -31 16 rrcurveto
            -30 -41 -52 -25 -50 hhcurveto
            -60 -56 35 127 113 30 62 74 return
          </CharString>
          <CharString index="62">
            142 hlineto
            11 18 0 1 14 hvcurveto
            21 -73 return
          </CharString>
          <CharString index="63">
            60 167 rmoveto
            -102 47 -74 92 61 50 32 39 42 vhcurveto
            21 -41 38 -27 55 -8 callsubr
            29 33 vvcurveto
            return
          </CharString>
          <CharString index="64">
            -50 198 rlineto
            50 -12 -24 14 -36 hhcurveto
            -25 -36 -6 -14 -31 hvcurveto
            119 -432 12 -46 36 -15 52 -1 rlinecurve
            -4 -14 rlineto
            -54 -16 -32 -33 -53 hhcurveto
            -32 -35 9 6 -21 hvcurveto
            -20 -22 -13 -50 3 -34 rrcurveto
            -9 26 53 -11 39 hhcurveto
            152 53 94 139 37 hvcurveto
            return
          </CharString>
          <CharString index="65">
            -42 hhcurveto
            -56 -28 callgsubr
            -498 -29 callsubr
            return
          </CharString>
          <CharString index="66">
            207 vlineto
            5 77 callgsubr
            -5 -25 hvcurveto
            -550 vlineto
            -5 25 35 -1 18 hhcurveto
            19 29 1 5 26 -12 callsubr
            return
          </CharString>
          <CharString index="67">
            -27 callsubr
            hstem
            152 129 vstem
            269 -59 -94 callgsubr
          </CharString>
          <CharString index="68">
            4 21 18 vvcurveto
            17 -4 22 -7 17 vhcurveto
            return
          </CharString>
          <CharString index="69">
            -15 callgsubr
            -683 1 callgsubr
            return
          </CharString>
          <CharString index="70">
            -5 30 -13 37 -23 22 rrcurveto
            -17 -40 -45 -14 -45 hhcurveto
            -70 -20 44 57 -4 hvcurveto
            return
          </CharString>
          <CharString index="71">
            6 -3 -34 callgsubr
            return
          </CharString>
          <CharString index="72">
            hlineto
            55 27 25 47 9 hvcurveto
            2 18 0 return
          </CharString>
          <CharString index="73">
            -28 -17 -2 -2 -22 hvcurveto
            2 87 callgsubr
            return
          </CharString>
          <CharString index="74">
            -1 -1 -22 hvcurveto
            1 vlineto
            26 1 return
          </CharString>
          <CharString index="75">
            314 123 rmoveto
            -26 -32 -2 -3 -33 hvcurveto
            343 vlineto
            67 -30 27 -58 vhcurveto
            -57 hlineto
            38 callsubr
            -466 vlineto
            -53 33 -33 54 vhcurveto
            199 hlineto
            54 35 6 callsubr
            return
          </CharString>
          <CharString index="76">
            323 129 rmoveto
            -29 -31 -1 -2 -33 hvcurveto
            467 vlineto
            -47 callsubr
            -596 -22 callgsubr
            return
          </CharString>
          <CharString index="77">
            84 11 69 65 65 11 -69 -84 -84 -11 -68 -65 -65 -11 68 84 vhcurveto
            return
          </CharString>
          <CharString index="78">
            -49 callsubr
            25 28 4 callsubr
            return
          </CharString>
          <CharString index="79">
            -193 209 68 callsubr
            48 277 vstem
            325 209 0 callsubr
            -277 -5 callgsubr
          </CharString>
          <CharString index="80">
            -267 -21 82 -21 152 24 return
          </CharString>
          <CharString index="81">
            61 callsubr
            -58 -28 callgsubr
            return
          </CharString>
          <CharString index="82">
            -7 29 -26 40 -24 14 rrcurveto
            -22 -32 -40 -21 -39 hhcurveto
            -60 -31 38 108 107 18 47 49 return
          </CharString>
          <CharString index="83">
            -5 25 57 callgsubr
            19 29 -8 callgsubr
            return
          </CharString>
          <CharString index="84">
            -40 -2 122 99 117 93 121 return
          </CharString>
          <CharString index="85">
            rmoveto
            -70 54 -56 84 84 54 56 70 70 -54 56 -84 -84 -54 -56 -70 vhcurveto
            89 hmoveto
            29 19 22 30 30 19 -22 -29 -25 callgsubr
          </CharString>
          <CharString index="86">
            -5 callsubr
            60 3 callsubr
            return
          </CharString>
          <CharString index="87">
            61 vlineto
            132 hlineto
            7 18 1 return
          </CharString>
          <CharString index="88">
            31 -54 callgsubr
            return
          </CharString>
          <CharString index="89">
            487 483 rmoveto
            -5 10 rlineto
            9 -27 -27 2 -26 hhcurveto
            -19 -23 -2 -4 -17 hvcurveto
            -90 -393 rlineto
            -5 -3 1 6 -1 hvcurveto
            -5 33 -9 65 -10 35 rrcurveto
            return
          </CharString>
          <CharString index="90">
            68 146 121 275 147 return
          </CharString>
          <CharString index="91">
            -1 19 hhcurveto
            return
          </CharString>
          <CharString index="92">
            -1 callsubr
            -31 1 return
          </CharString>
          <CharString index="93">
            17 vvcurveto
            17 return
          </CharString>
          <CharString index="94">
            125 149 128 return
          </CharString>
          <CharString index="95">
            hvcurveto
            222 vlineto
            1 14 14 0 8 hhcurveto
            33 -2 15 -14 16 -39 44 -107 rcurveline
            18 -42 18 -26 52 -1 rrcurveto
            38 40 19 26 21 hvcurveto
            return
          </CharString>
          <CharString index="96">
            99 -15 118 477 118 return
          </CharString>
          <CharString index="97">
            63 -1 79 hhcurveto
            51 75 11 28 42 hvcurveto
            87 60 15 86 93 vvcurveto
            return
          </CharString>
          <CharString index="98">
            3 18 0 24 12 vvcurveto
            return
          </CharString>
          <CharString index="99">
            -2 19 15 22 33 6 27 rrcurveto
            -18 13 -10 return
          </CharString>
          <CharString index="100">
            487 331 rmoveto
            103 -47 73 -92 -57 -46 -27 -35 -41 vhcurveto
            return
          </CharString>
          <CharString index="101">
            -5 21 32 -1 16 hhcurveto
            19 26 1 5 22 hvcurveto
            387 vlineto
            6 -22 -26 65 callsubr
            -16 -32 -1 -6 -21 hvcurveto
            return
          </CharString>
          <CharString index="102">
            hvcurveto
            -218 vlineto
            -60 20 -33 return
          </CharString>
          <CharString index="103">
            4 -22 -28 2 6 callgsubr
            -28 -2 -4 return
          </CharString>
          <CharString index="104">
            -279 393 109 -5 -20 return
          </CharString>
          <CharString index="105">
            111 117 96 85 116 return
          </CharString>
          <CharString index="106">
            vlineto
            5 -25 return
          </CharString>
          <CharString index="107">
            57 callsubr
            26 14 vvcurveto
            14 -1 26 -5 20 vhcurveto
            return
          </CharString>
          <CharString index="108">
            -1 18 hhcurveto
            return
          </CharString>
          <CharString index="109">
            -199 -21 613 109 -5 -20 return
          </CharString>
          <CharString index="110">
            37 34 14 18 22 vhcurveto
            return
          </CharString>
          <CharString index="111">
            2 4 21 hvcurveto
            return
          </CharString>
          <CharString index="112">
            -6 callgsubr
            -7 -13 -19 -7 -19 hhcurveto
            return
          </CharString>
          <CharString index="113">
            27 47 51 callsubr
            17 0 17 1 18 rrcurveto
            return
          </CharString>
          <CharString index="114">
            -4 rrcurveto
            2 6 7 2 8 hhcurveto
            return
          </CharString>
          <CharString index="115">
            -45 -1 115 317 119 return
          </CharString>
          <CharString index="116">
            hvcurveto
            -7 -12 -4 return
          </CharString>
          <CharString index="117">
            49 12 callsubr
            25 vhcurveto
            -1 4 callgsubr
            -7 -14 return
          </CharString>
          <CharString index="118">
            29 59 callsubr
            21 29 -8 callgsubr
            return
          </CharString>
          <CharString index="119">
            -38 69 47 44 18 22 return
          </CharString>
          <CharString index="120">
            151 hintmask 00000000
            return
          </CharString>
          <CharString index="121">
            hlineto
            8 22 4 return
          </CharString>
          <CharString index="122">
            hstemhm
            33 154 return
          </CharString>
          <CharString index="123">
            vlineto
            -13 callgsubr
            return
          </CharString>
          <CharString index="124">
            -252 -6 695 return
          </CharString>
          <CharString index="125">
            24 43 vvcurveto
            120 return
          </CharString>
          <CharString index="126">
            207 hstemhm
            return
          </CharString>
          <CharString index="127">
            153 vstem
            return
          </CharString>
          <CharString index="128">
            1 197 115 134 109 return
          </CharString>
          <CharString index="129">
            -17 -9 134 373 -20 28 -20 return
          </CharString>
          <CharString index="130">
            18 vvcurveto
            15 -1 return
          </CharString>
          <CharString index="131">
            -19 callgsubr
            42 225 58 callgsubr
            return
          </CharString>
          <CharString index="132">
            hlineto
            -27 -123 29 -14 69 0 32 14 rlinecurve
            27 123 rlineto
            return
          </CharString>
          <CharString index="133">
            vlineto
            28 -1 19 27 vvcurveto
            14 23 -1 14 hhcurveto
            123 hlineto
            return
          </CharString>
          <CharString index="134">
            -18 36 callsubr
            return
          </CharString>
          <CharString index="135">
            -4 callgsubr
            62 225 44 callsubr
            return
          </CharString>
          <CharString index="136">
            24 -14 callgsubr
            -7 rlineto
            return
          </CharString>
          <CharString index="137">
            -21 -15 125 337 118 return
          </CharString>
          <CharString index="138">
            -44 -15 112 305 111 return
          </CharString>
          <CharString index="139">
            56 45 65 48 -38 37 return
          </CharString>
          <CharString index="140">
            149 hintmask 00000000
            return
          </CharString>
          <CharString index="141">
            1 -26 5 -20 vhcurveto
            return
          </CharString>
          <CharString index="142">
            114 hstemhm
            return
          </CharString>
          <CharString index="143">
            9 callsubr
            -27 -18 vvcurveto
            -18 82 callgsubr
            return
          </CharString>
          <CharString index="144">
            4 -17 vhcurveto
            86 1 rlineto
            endchar
          </CharString>
          <CharString index="145">
            -6 -6 rlineto
            return
          </CharString>
          <CharString index="146">
            -5 26 30 -1 22 hhcurveto
            21 28 -8 callgsubr
            return
          </CharString>
          <CharString index="147">
            6 -25 -35 1 -18 hhcurveto
            -19 -29 -1 -6 -25 hvcurveto
            return
          </CharString>
          <CharString index="148">
            -19 -7 -19 hhcurveto
            -23 -19 12 return
          </CharString>
          <CharString index="149">
            147 hintmask 00000000
            return
          </CharString>
          <CharString index="150">
            hlineto
            -5 -21 -1 return
          </CharString>
          <CharString index="151">
            hstemhm
            64 151 return
          </CharString>
          <CharString index="152">
            hhcurveto
            -26 -32 return
          </CharString>
          <CharString index="153">
            120 207 -20 27 -20 hstemhm
            73 152 return
          </CharString>
          <CharString index="154">
            -28 -20 vvcurveto
            -19 5 -26 6 -12 vhcurveto
            10 -7 return
          </CharString>
          <CharString index="155">
            34 callsubr
            endchar
          </CharString>
          <CharString index="156">
            -2 24 -5 17 hvcurveto
            return
          </CharString>
          <CharString index="157">
            -5 -24 hvcurveto
            return
          </CharString>
          <CharString index="158">
            8 hvcurveto
            3 return
          </CharString>
          <CharString index="159">
            -178 -157 108 763 107 hstem
            return
          </CharString>
          <CharString index="160">
            -27 callgsubr
            endchar
          </CharString>
          <CharString index="161">
            158 127 162 return
          </CharString>
          <CharString index="162">
            -19 505 -20 22 -20 return
          </CharString>
          <CharString index="163">
            146 hintmask 00000000
            return
          </CharString>
          <CharString index="164">
            rmoveto
            5 20 1 return
          </CharString>
          <CharString index="165">
            152 vstem
            return
          </CharString>
          <CharString index="166">
            -1 21 hhcurveto
            return
          </CharString>
          <CharString index="167">
            -20 hhcurveto
            -19 return
          </CharString>
          <CharString index="168">
            24 -59 vhcurveto
            return
          </CharString>
          <CharString index="169">
            32 callsubr
            -62 4 hvcurveto
            return
          </CharString>
          <CharString index="170">
            102 75 hstem
            61 89 98 89 vstem
            61 return
          </CharString>
          <CharString index="171">
            vlineto
            33 26 29 9 22 hhcurveto
            endchar
          </CharString>
          <CharString index="172">
            1 -19 hhcurveto
            return
          </CharString>
          <CharString index="173">
            151 vstem
            return
          </CharString>
          <CharString index="174">
            vvcurveto
            62 hlineto
            return
          </CharString>
          <CharString index="175">
            120 hstem
            return
          </CharString>
          <CharString index="176">
            hlineto
            -5 -20 return
          </CharString>
          <CharString index="177">
            22 1 5 return
          </CharString>
          <CharString index="178">
            hmoveto
            -5 24 return
          </CharString>
          <CharString index="179">
            -92 -15 117 300 111 return
          </CharString>
          <CharString index="180">
            hstem
            116 155 vstem
            116 return
          </CharString>
          <CharString index="181">
            -11 vvcurveto
            -12 0 -16 6 -18 vhcurveto
            return
          </CharString>
          <CharString index="182">
            -14 -26 6 -24 hhcurveto
            -24 -25 -6 return
          </CharString>
          <CharString index="183">
            3 callsubr
            -17 26 return
          </CharString>
          <CharString index="184">
            rmoveto
            11 -16 -33 45 callgsubr
            return
          </CharString>
          <CharString index="185">
            -18 -13 -12 -25 -18 -17 6 7 return
          </CharString>
          <CharString index="186">
            -48 -5 callsubr
            return
          </CharString>
          <CharString index="187">
            2 13 0 27 11 vvcurveto
            endchar
          </CharString>
          <CharString index="188">
            138 hintmask 00000000
            return
          </CharString>
          <CharString index="189">
            127 149 vstem
            return
          </CharString>
          <CharString index="190">
            26 -6 34 39 vvcurveto
            return
          </CharString>
          <CharString index="191">
            -44 62 0 111 return
          </CharString>
          <CharString index="192">
            27 20 callgsubr
            return
          </CharString>
          <CharString index="193">
            51 callsubr
            18 return
          </CharString>
          <CharString index="194">
            120 rmoveto
            return
          </CharString>
          <CharString index="195">
            hhcurveto
            23 20 return
          </CharString>
          <CharString index="196">
            77 151 return
          </CharString>
          <CharString index="197">
            10 16 hvcurveto
            return
          </CharString>
        <CharString name=".notdef">
          -380 endchar
        </CharString>
        <CharString name=".null">
          -566 endchar
        </CharString>
        <CharString name="A">
          -17 callsubr
          hstem
          10 614 vstem
          -106 callgsubr
          endchar
        </CharString>
        <CharString name="AE">
          319 -3 128 21 120 15 -13 callsubr
          hstemhm
          391 148 hintmask 00000000
          hintmask 11111000
          265 146 rmoveto
          89 hlineto
          9 15 0 1 13 hvcurveto
          hintmask 10111000
          -60 vlineto
          -56 32 -34 55 vhcurveto
          270 hlineto
          56 34 26 48 8 hvcurveto
          -9 callsubr
          -239 hlineto
          -27 -23 -33 callsubr
          20 25 vvcurveto
          86 66 vlineto
          161 hlineto
          6 -26 callgsubr
          -6 19 vhcurveto
          -161 hlineto
          -14 -26 -53 callgsubr
          67 hlineto
          212 hlineto
          8 23 5 28 -14 callsubr
          -1 20 -5 23 vhcurveto
          -426 hlineto
          -29 -41 -3 -10 -22 hvcurveto
          -300 -658 5 -8 rlineto
          -7 19 33 -3 26 hhcurveto
          24 24 0 6 23 hvcurveto
          63 147 rlineto
          -1 14 18 0 10 hhcurveto
          48 211 rmoveto
          25 57 28 71 21 57 rrcurveto
          4 -277 hlineto
          -13 -15 1 -10 hhcurveto
          -45 hlineto
          -10 -13 -1 -12 hhcurveto
          endchar
        </CharString>
        <CharString name="Aacute">
          21 callgsubr
          -425 280 -104 callsubr
          hintmask 00101000
          -34 533 -84 callgsubr
        </CharString>
        <CharString name="Acircumflex">
          -17 callsubr
          35 188 hstemhm
          10 614 -486 356 -104 callsubr
          hintmask 00101000
          202 469 -85 callgsubr
        </CharString>
        <CharString name="Adieresis">
          -17 callsubr
          63 35 callsubr
          10 614 -478 13 callgsubr
          -104 callsubr
          hintmask 00101100
          204 600 rmoveto
          -31 -15 -7 -9 -16 hvcurveto
          -10 -12 -4 -20 -17 vvcurveto
          -17 4 -21 10 -11 88 callgsubr
          15 -7 31 88 callsubr
          7 10 14 hvcurveto
          9 11 3 35 callgsubr
          -3 20 -9 12 vhcurveto
          9 -14 -20 7 -23 hhcurveto
          -234 hmoveto
          -25 -19 -7 -9 -13 hvcurveto
          -9 -12 -3 -20 -17 vvcurveto
          -17 3 -21 9 89 callgsubr
          13 19 -7 25 hhcurveto
          29 17 7 90 callsubr
          10 11 2 35 callgsubr
          -2 20 -10 12 vhcurveto
          9 -16 -17 7 -29 hhcurveto
          endchar
        </CharString>
        <CharString name="Agrave">
          21 callgsubr
          -453 280 -104 callsubr
          hintmask 00101000
          -3 668 -58 callsubr
        </CharString>
        <CharString name="Aogonek">
          68 -218 93 124 -20 167 121 275 147 hstem
          429 110 vstem
          10 12 rmoveto
          -81 callsubr
          -45 callsubr
          11 -42 15 -23 21 -10 rlinecurve
          -32 -28 -32 -42 -48 vvcurveto
          -61 10 callsubr
          -18 -7 -19 hhcurveto
          -24 -18 12 25 34 27 32 49 27 hvcurveto
          9 5 -216 672 rlineto
          5 -24 -40 65 callgsubr
          -26 -38 -2 66 callgsubr
          29 -325 -83 callgsubr
          endchar
        </CharString>
        <CharString name="Aring">
          68 146 121 571 75 hstem
          181 89 99 89 vstem
          -85 callsubr
          -2 -2 1 -2 hhcurveto
          35 23 21 38 43 vvcurveto
          70 -54 56 -84 -84 -55 -56 -70 -43 21 -38 35 -22 vhcurveto
          -1 -2 -2 0 -1 hhcurveto
          -101 callsubr
          37 521 rmoveto
          29 20 22 30 30 19 -22 -29 -29 -19 -22 -30 -30 -20 22 29 vhcurveto
          endchar
        </CharString>
        <CharString name="Atilde">
          -17 callsubr
          52 60 callgsubr
          10 614 -502 396 -104 callsubr
          hintmask 00000000
          89 492 -65 callsubr
          hintmask 00101000
          -71 callsubr
        </CharString>
        <CharString name="B">
          47 -6 109 201 109 166 110 hstemhm
          78 150 167 149 -121 153 hintmask 00000000
          hintmask 11110100
          85 685 rmoveto
          12 callgsubr
          84 81 -2 78 hhcurveto
          154 94 66 136 80 -54 72 -66 21 hvcurveto
          hintmask 11111000
          51 22 37 55 61 vvcurveto
          124 -91 58 -141 vhcurveto
          hintmask 11110100
          -70 -78 -2 -2 -79 hvcurveto
          231 -381 rmoveto
          84 23 -57 -45 -43 -20 -56 -85 -24 -32 0 -1 -34 hvcurveto
          202 vlineto
          276 vmoveto
          hintmask 11111000
          -1 27 31 0 19 hhcurveto
          71 19 -41 -41 -40 -19 -44 -71 hvcurveto
          -77 hlineto
          endchar
        </CharString>
        <CharString name="C">
          29 callgsubr
          hstem
          38 160 239 145 vstem
          -78 callsubr
          endchar
        </CharString>
        <CharString name="CR">
          -380 endchar
        </CharString>
        <CharString name="Cacute">
          29 callgsubr
          30 19 callsubr
          38 160 7 280 -48 -55 callsubr
          -232 384 -84 callgsubr
        </CharString>
        <CharString name="Ccaron">
          29 callgsubr
          41 103 hstemhm
          38 160 -53 358 -66 -55 callsubr
          -233 500 -92 callgsubr
        </CharString>
        <CharString name="Ccedilla">
          42 7 callgsubr
          609 121 hstemhm
          38 160 134 112 -7 145 hintmask 00000000
          hintmask 01111100
          255 -9 callgsubr
          14 -13 -18 hvcurveto
          hintmask 10111100
          -18 -14 -12 -24 -18 -17 6 7 -12 vhcurveto
          hintmask 01111100
          -15 -16 -8 11 callgsubr
          32 hhcurveto
          81 62 callsubr
          2 6 3 7 4 6 94 11 84 43 50 50 -46 callgsubr
          hvcurveto
          hintmask 01111010
          91 25 -79 -82 -2 hvcurveto
          -50 callgsubr
          -163 58 -170 179 -19 hvcurveto
          hintmask 01111100
          -8 -20 -8 -27 -4 -17 rrcurveto
          endchar
        </CharString>
        <CharString name="D">
          99 -6 119 456 68 callsubr
          78 152 239 157 vstem
          -56 callsubr
          endchar
        </CharString>
        <CharString name="Dcaron">
          99 -6 119 456 120 49 103 hstemhm
          78 152 -92 358 -27 157 hintmask 11010100
          -56 callsubr
          hintmask 00101000
          -272 573 -92 callgsubr
        </CharString>
        <CharString name="E">
          -36 callsubr
          hstem
          77 66 callsubr
          -105 callgsubr
          endchar
        </CharString>
        <CharString name="Eacute">
          10 callgsubr
          -50 280 -103 callsubr
          hintmask 00010100
          -358 674 -84 callgsubr
        </CharString>
        <CharString name="Ecaron">
          -36 callsubr
          55 103 hstemhm
          89 callsubr
          -110 358 -103 callsubr
          hintmask 00010100
          -359 790 -92 callgsubr
        </CharString>
        <CharString name="Ecircumflex">
          -36 callsubr
          41 188 hstemhm
          89 callsubr
          -111 356 -103 callsubr
          hintmask 00010100
          -122 610 -85 callgsubr
        </CharString>
        <CharString name="Edieresis">
          -36 callsubr
          69 35 callsubr
          89 callsubr
          -103 13 callgsubr
          -103 callsubr
          hintmask 00010110
          -120 741 rmoveto
          -31 -15 -7 -9 -16 hvcurveto
          -10 -12 -4 -20 -17 vvcurveto
          -17 4 -21 10 -11 88 callgsubr
          15 -7 31 88 callsubr
          7 10 14 hvcurveto
          9 11 3 35 callgsubr
          -3 20 -9 12 vhcurveto
          9 -14 -20 7 -23 hhcurveto
          -234 hmoveto
          -25 -19 -7 -9 -13 hvcurveto
          -9 -12 -3 -20 -17 vvcurveto
          -17 3 -21 9 89 callgsubr
          13 19 -7 25 hhcurveto
          29 17 7 90 callsubr
          10 11 2 35 callgsubr
          -2 20 -10 12 vhcurveto
          9 -16 -17 7 -29 hhcurveto
          endchar
        </CharString>
        <CharString name="Egrave">
          10 callgsubr
          -78 280 -103 callsubr
          hintmask 00010100
          -327 809 -58 callsubr
        </CharString>
        <CharString name="Eogonek">
          7 -218 93 122 -34 callgsubr
          hstem
          89 callsubr
          62 110 vstem
          -106 callsubr
          186 hlineto
          -35 -28 -26 -40 -47 vvcurveto
          -62 49 5 callsubr
          -24 -18 12 25 31 23 37 53 23 hvcurveto
          7 3 27 10 17 23 6 32 rlinecurve
          -9 callsubr
          endchar
        </CharString>
        <CharString name="Eth">
          114 -6 119 172 123 161 68 callsubr
          93 149 242 157 vstem
          641 342 rmoveto
          116 -18 106 -93 74 vhcurveto
          36 -46 -81 15 -55 hhcurveto
          -85 -76 -1 -3 -87 hvcurveto
          -12 callgsubr
          -270 -68 vlineto
          -6 -20 -1 -24 -19 vvcurveto
          -21 1 -20 6 -19 vhcurveto
          68 -280 hlineto
          7 -7 rlineto
          -2 87 76 -2 85 hhcurveto
          55 81 14 36 46 hvcurveto
          94 74 17 107 117 vvcurveto
          -268 -57 rmoveto
          4 19 2 21 22 vvcurveto
          21 -2 20 -4 20 vhcurveto
          -131 162 hlineto
          37 33 -1 36 hhcurveto
          119 17 -123 -104 -104 -17 -125 -119 -36 -33 1 -1 -37 hvcurveto
          172 vlineto
          endchar
        </CharString>
        <CharString name="Euro">
          -5 -15 120 92 93 67 93 93 68 callsubr
          86 147 vstem
          491 487 rmoveto
          31 17 26 39 5 33 rrcurveto
          51 -61 -80 36 -85 hhcurveto
          -144 -64 -95 -118 -23 hvcurveto
          -82 hlineto
          -6 -20 0 -16 74 callsubr
          72 hlineto
          -1 -12 0 -11 -11 vvcurveto
          -11 0 -11 1 -11 vhcurveto
          -72 hlineto
          -6 -19 0 -17 74 callsubr
          82 hlineto
          -117 23 64 -95 144 hhcurveto
          84 81 35 52 61 hvcurveto
          -5 33 -23 36 -34 19 rrcurveto
          -31 -41 -54 -24 -49 hhcurveto
          -54 -32 31 61 -16 hvcurveto
          168 hlineto
          72 callgsubr
          15 -4 19 vhcurveto
          -180 32 hlineto
          35 180 vlineto
          72 callgsubr
          14 -4 20 vhcurveto
          -168 hlineto
          62 16 32 31 54 hhcurveto
          49 54 -24 -32 41 hvcurveto
          endchar
        </CharString>
        <CharString name="Euro.smcp">
          -70 -15 115 66 82 54 82 67 114 -68 -20 hstemhm
          74 140 hintmask 00000000
          hintmask 01110100
          433 412 rmoveto
          hintmask 01101100
          30 15 25 37 4 33 rrcurveto
          hintmask 11110100
          42 -54 -67 26 -75 hhcurveto
          -133 -57 -83 -98 -22 hvcurveto
          -74 hlineto
          -5 -18 0 -16 -7 vvcurveto
          -9 0 -14 38 callgsubr
          64 -28 hlineto
          -9 0 -9 1 -8 vhcurveto
          -65 hlineto
          -5 -18 0 -16 -6 vvcurveto
          -10 0 -14 38 callgsubr
          75 hlineto
          -98 23 60 -83 127 hhcurveto
          79 64 28 42 54 hvcurveto
          -4 32 -24 34 -31 17 rrcurveto
          -23 -35 -46 -15 -38 hhcurveto
          -45 -27 23 43 -15 hvcurveto
          134 hlineto
          5 18 1 13 11 vvcurveto
          10 -1 12 -5 18 vhcurveto
          -147 26 hlineto
          28 147 vlineto
          5 18 1 13 10 vvcurveto
          11 -1 12 -5 18 vhcurveto
          -135 hlineto
          45 15 27 22 46 hhcurveto
          38 45 -16 -23 36 hvcurveto
          endchar
        </CharString>
        <CharString name="F">
          -33 278 125 150 130 hstem
          78 20 callsubr
          231 hmoveto
          278 22 vlineto
          195 hlineto
          6 18 2 28 17 vvcurveto
          16 -2 28 -6 18 vhcurveto
          -195 hlineto
          -22 67 hlineto
          26 0 29 -1 28 vhcurveto
          75 hlineto
          128 hlineto
          55 27 21 50 18 49 callsubr
          -423 hlineto
          -7 -6 rlineto
          -677 vlineto
          -5 26 31 59 callsubr
          22 27 -8 callgsubr
          endchar
        </CharString>
        <CharString name="G">
          87 -15 121 151 127 187 127 hstem
          38 156 262 144 vstem
          342 384 rmoveto
          -7 -18 -4 -25 -20 vvcurveto
          -47 22 -17 50 vhcurveto
          55 hlineto
          -2 -24 0 -23 -22 vvcurveto
          -73 vlineto
          -5 -27 -31 -4 -34 hhcurveto
          -109 -61 72 158 165 65 70 100 59 62 -22 -33 49 hvcurveto
          31 20 34 46 4 44 rrcurveto
          43 -67 -86 29 -96 hhcurveto
          -155 -156 -117 -244 -212 95 -140 204 110 94 22 20 59 hvcurveto
          262 vlineto
          56 -26 41 -76 -1 vhcurveto
          endchar
        </CharString>
        <CharString name="H">
          119 288 128 hstem
          78 153 223 20 callsubr
          454 hmoveto
          39 callsubr
          683 -1 callsubr
          -33 65 callsubr
          -21 -30 -18 callgsubr
          -194 vlineto
          -28 1 -19 -27 vvcurveto
          -14 -24 1 -13 hhcurveto
          53 callgsubr
          19 28 vvcurveto
          194 -38 callsubr
          215 26 callsubr
          13 24 73 callgsubr
          endchar
        </CharString>
        <CharString name="Hbar">
          127 286 126 77 111 hstem
          82 153 223 20 callsubr
          235 hmoveto
          213 26 callsubr
          14 23 73 callgsubr
          -213 vlineto
          39 callsubr
          489 66 vlineto
          5 19 2 16 22 vvcurveto
          21 -2 13 -5 20 vhcurveto
          -66 83 hlineto
          5 -25 -33 65 callsubr
          -20 -31 -18 callgsubr
          -83 -223 83 -15 callsubr
          60 callsubr
          -34 43 callgsubr
          -83 -65 vlineto
          -6 -20 -2 -17 -19 vvcurveto
          -21 2 -15 6 -19 vhcurveto
          65 -489 hlineto
          -5 24 34 -16 callsubr
          20 -19 callsubr
          173 412 rmoveto
          53 callgsubr
          21 28 vvcurveto
          2 223 -2 vlineto
          -28 1 -21 -27 vvcurveto
          -14 -23 1 -14 hhcurveto
          endchar
        </CharString>
        <CharString name="I">
          17 callsubr
          hstem
          80 20 callsubr
          80 hmoveto
          -5 25 15 callgsubr
          20 -19 callsubr
          683 -15 callsubr
          -20 -10 callgsubr
          -25 hvcurveto
          endchar
        </CharString>
        <CharString name="IJ">
          209 -10 126 -122 695 hstemhm
          80 153 321 153 hintmask 01100000
          80 hmoveto
          -5 25 15 callgsubr
          20 -19 callsubr
          683 -15 callsubr
          -20 -10 callgsubr
          -25 hvcurveto
          hintmask 10010000
          290 -536 rmoveto
          -28 -31 -19 -44 -6 -38 rrcurveto
          -30 47 62 -14 53 hhcurveto
          186 42 114 156 hvcurveto
          423 -1 callsubr
          -30 1 -21 -10 callgsubr
          -25 hvcurveto
          -438 vlineto
          -83 -18 -46 -74 -32 -32 13 18 -28 vhcurveto
          endchar
        </CharString>
        <CharString name="Iacute">
          17 callsubr
          39 19 callsubr
          36 280 -236 -51 callgsubr
          -44 117 -84 callgsubr
        </CharString>
        <CharString name="Icircumflex">
          17 callsubr
          36 188 hstemhm
          -25 356 -251 -51 callgsubr
          192 53 -85 callgsubr
        </CharString>
        <CharString name="Idieresis">
          17 callsubr
          64 35 callsubr
          -17 119 -22 153 -21 119 -71 callgsubr
          hintmask 01101000
          194 184 rmoveto
          -31 -15 -7 -9 -16 hvcurveto
          -10 -12 -4 -20 -17 vvcurveto
          -17 4 -21 10 -11 88 callgsubr
          15 -7 31 88 callsubr
          7 10 14 hvcurveto
          9 11 3 35 callgsubr
          -3 20 -9 12 vhcurveto
          9 -14 -20 7 -23 hhcurveto
          -234 hmoveto
          -25 -19 -7 -9 -13 hvcurveto
          -9 -12 -3 -20 -17 vvcurveto
          -17 3 -21 9 89 callgsubr
          13 19 -7 25 hhcurveto
          29 17 7 90 callsubr
          10 11 2 35 callgsubr
          -2 20 -10 12 vhcurveto
          9 -16 -17 7 -29 hhcurveto
          endchar
        </CharString>
        <CharString name="Igrave">
          17 callsubr
          39 19 callsubr
          8 280 -208 -51 callgsubr
          -13 252 -58 callsubr
        </CharString>
        <CharString name="Itilde">
          17 callsubr
          53 60 callgsubr
          -41 396 -275 153 -71 callgsubr
          hintmask 00000000
          79 76 -65 callsubr
          hintmask 01100000
          -71 callsubr
        </CharString>
        <CharString name="J">
          -98 -10 126 hstem
          247 20 callsubr
          63 147 rmoveto
          -28 -31 -19 -44 -6 -38 rrcurveto
          -30 47 62 -14 53 hhcurveto
          186 42 114 156 hvcurveto
          423 -1 callsubr
          -30 1 -21 -10 callgsubr
          -25 hvcurveto
          -438 vlineto
          -83 -18 -46 -74 -32 -32 13 18 -28 vhcurveto
          endchar
        </CharString>
        <CharString name="Jcircumflex">
          -98 -10 126 608 188 hstemhm
          142 356 -251 153 hintmask 10010000
          63 147 rmoveto
          -28 -31 -19 -44 -6 -38 rrcurveto
          -30 47 62 -14 53 hhcurveto
          186 42 114 156 hvcurveto
          423 -1 callsubr
          -30 1 -21 -10 callgsubr
          -25 hvcurveto
          -438 vlineto
          -83 -18 -46 -74 -32 -32 13 18 -28 vhcurveto
          hintmask 01100000
          376 588 -85 callgsubr
        </CharString>
        <CharString name="K">
          51 290 127 256 15 hstem
          78 20 callsubr
          -72 callgsubr
          endchar
        </CharString>
        <CharString name="Kcommaaccent">
          51 -27 callsubr
          341 127 256 15 hstemhm
          78 153 49 129 hintmask 00011100
          -72 callgsubr
          hintmask 11100010
          -212 -97 -94 callgsubr
        </CharString>
        <CharString name="L">
          -45 -3 132 hstem
          77 20 callsubr
          -31 callsubr
          endchar
        </CharString>
        <CharString name="Ldot">
          -45 -3 132 175 60 callgsubr
          77 153 106 141 hintmask 10100000
          -31 callsubr
          hintmask 01010000
          -164 232 -63 callsubr
        </CharString>
        <CharString name="Lslash">
          -35 -3 132 hstem
          87 20 callsubr
          240 593 rmoveto
          -47 callsubr
          -295 vlineto
          -83 -29 -8 -38 1 -48 10 -26 rlinecurve
          10 -6 70 25 rlineto
          -179 -22 callgsubr
          -177 hlineto
          -29 -31 -1 -2 -33 hvcurveto
          187 vlineto
          171 59 7 38 -1 48 -9 26 rlinecurve
          -11 6 -157 -56 rlineto
          endchar
        </CharString>
        <CharString name="M">
          264 2 -20 119 148 267 166 hstem
          57 715 vstem
          57 2 rmoveto
          -6 22 31 -2 24 hhcurveto
          23 23 1 4 22 hvcurveto
          16 290 4 69 3 94 1 64 rlinecurve
          7 hlineto
          103 -415 rlineto
          -4 23 36 -16 callsubr
          22 35 1 4 22 hvcurveto
          104 415 rlineto
          7 hlineto
          -64 4 -94 4 -69 vhcurveto
          16 -290 rlineto
          -4 22 22 -1 23 hhcurveto
          25 31 2 6 21 hvcurveto
          -53 680 rlineto
          6 -32 -43 1 -28 hhcurveto
          -27 -36 -1 -6 -33 hvcurveto
          -64 -254 -6 -25 -24 -106 -8 -48 rlinecurve
          -6 hlineto
          -8 48 -24 106 -6 25 -64 254 rcurveline
          6 -32 -37 1 -28 hhcurveto
          -27 -43 -1 -6 -33 hvcurveto
          endchar
        </CharString>
        <CharString name="N">
          49 callgsubr
          hstem
          78 142 254 142 vstem
          -97 callsubr
          endchar
        </CharString>
        <CharString name="Nacute">
          49 callgsubr
          241 19 callsubr
          78 142 9 280 -35 142 hintmask 10101000
          -97 callsubr
          hintmask 01010000
          -387 116 -84 callgsubr
        </CharString>
        <CharString name="Ncaron">
          49 callgsubr
          252 103 hstemhm
          78 142 -51 358 -53 142 hintmask 10101000
          -97 callsubr
          hintmask 01010000
          -388 232 -92 callgsubr
        </CharString>
        <CharString name="Ntilde">
          49 callgsubr
          255 60 callgsubr
          78 142 -68 396 -74 142 hintmask 10101000
          -97 callsubr
          hintmask 00000000
          -264 75 -65 callsubr
          hintmask 01010000
          -71 callsubr
        </CharString>
        <CharString name="O">
          -11 callsubr
          hstem
          38 159 271 160 vstem
          -103 callgsubr
          endchar
        </CharString>
        <CharString name="OE">
          348 -2 128 155 -13 callsubr
          hstem
          38 157 236 148 vstem
          887 126 rmoveto
          -236 hlineto
          -27 -24 -45 callgsubr
          87 67 vlineto
          158 hlineto
          6 20 3 25 -14 callsubr
          -3 27 -6 19 vhcurveto
          -158 -75 callsubr
          5 28 -14 callsubr
          -1 20 -5 23 vhcurveto
          -385 hlineto
          7 -44 -53 8 -45 hhcurveto
          -89 -55 -26 -37 -45 hvcurveto
          -82 -69 -26 -118 -106 vvcurveto
          -105 26 -120 82 -69 vhcurveto
          -37 45 55 -26 89 hhcurveto
          44 52 7 6 44 hvcurveto
          312 hlineto
          55 34 25 49 86 callsubr
          0 23 13 vvcurveto
          -553 -23 rmoveto
          -119 -20 132 107 107 20 131 120 31 33 -6 -9 32 hvcurveto
          -447 vlineto
          -9 -32 -34 -6 -31 hhcurveto
          endchar
        </CharString>
        <CharString name="Oacute">
          25 callgsubr
          15 280 -24 -93 callgsubr
          hintmask 00101000
          174 457 -84 callgsubr
        </CharString>
        <CharString name="Ocircumflex">
          -11 callsubr
          26 188 hstemhm
          38 159 -46 356 -39 -93 callgsubr
          hintmask 00101000
          410 393 -85 callgsubr
        </CharString>
        <CharString name="Odieresis">
          -11 callsubr
          54 35 callsubr
          38 159 -38 13 callgsubr
          -39 160 hintmask 11010010
          -103 callgsubr
          hintmask 00101100
          412 524 rmoveto
          -31 -15 -7 -9 -16 hvcurveto
          -10 -12 -4 -20 -17 vvcurveto
          -17 4 -21 10 -11 88 callgsubr
          15 -7 31 88 callsubr
          7 10 14 hvcurveto
          9 11 3 35 callgsubr
          -3 20 -9 12 vhcurveto
          9 -14 -20 7 -23 hhcurveto
          -234 hmoveto
          -25 -19 -7 -9 -13 hvcurveto
          -9 -12 -3 -20 -17 vvcurveto
          -17 3 -21 9 89 callgsubr
          13 19 -7 25 hhcurveto
          29 17 7 90 callsubr
          10 11 2 35 callgsubr
          -2 20 -10 12 vhcurveto
          9 -16 -17 7 -29 hhcurveto
          endchar
        </CharString>
        <CharString name="Ograve">
          25 callgsubr
          -13 280 4 -93 callgsubr
          hintmask 00101000
          205 592 -58 callsubr
        </CharString>
        <CharString name="Oslash">
          103 -15 114 485 69 callgsubr
          38 152 288 20 callsubr
          38 342 rmoveto
          -97 22 -110 67 -70 vhcurveto
          -47 -84 21 -25 40 -21 34 -5 rlinecurve
          43 75 rlineto
          -12 31 38 -8 47 hhcurveto
          90 55 26 37 44 hvcurveto
          81 69 27 120 105 vvcurveto
          98 -23 108 -68 70 vhcurveto
          49 86 -21 26 -39 21 -34 5 rlinecurve
          -45 -78 rlineto
          12 -31 -38 8 -47 hhcurveto
          -88 -56 -26 -37 -44 hvcurveto
          -82 -69 -26 -118 -106 vvcurveto
          440 hmoveto
          -109 -22 -134 -122 -23 -19 5 8 -17 vhcurveto
          188 361 rlineto
          11 -41 4 -47 -43 vvcurveto
          -288 hmoveto
          109 24 133 120 23 19 -5 -8 17 vhcurveto
          -188 -360 rlineto
          -12 41 -3 47 43 vvcurveto
          endchar
        </CharString>
        <CharString name="Otilde">
          -11 callsubr
          50 35 callsubr
          38 159 -72 403 -60 -93 callgsubr
          hintmask 00000000
          291 424 rmoveto
          -9 18 24 -9 25 hhcurveto
          54 46 35 51 23 hvcurveto
          9 20 rlineto
          26 -12 -34 18 -29 hhcurveto
          -10 -12 rlineto
          -17 -13 -12 -7 -13 hhcurveto
          -11 -11 4 5 -10 hvcurveto
          hintmask 00101000
          -49 23 rlineto
          9 -18 -25 8 -23 hhcurveto
          -57 -44 -35 -51 -23 hvcurveto
          -9 -19 rlineto
          -26 11 35 -19 29 hhcurveto
          10 13 rlineto
          16 13 12 8 13 hhcurveto
          11 11 -4 -5 10 hvcurveto
          endchar
        </CharString>
        <CharString name="P">
          20 218 116 237 48 callgsubr
          556 453 rmoveto
          160 -102 76 -140 -75 -70 -39 callgsubr
          21 31 1 5 25 hvcurveto
          218 83 vlineto
          140 102 80 155 hvcurveto
          -325 119 rmoveto
          -1 28 21 0 21 hhcurveto
          83 16 -69 -49 -50 -16 -69 -83 -11 -30 0 -1 -29 hvcurveto
          endchar
        </CharString>
        <CharString name="Q">
          103 -142 109 18 118 477 118 hstemhm
          38 157 276 158 hintmask 00000000
          hintmask 11111000
          438 -104 rmoveto
          -23 26 32 -15 45 hhcurveto
          50 45 41 68 1 hvcurveto
          -40 -32 10 38 -54 hvcurveto
          -24 17 22 9 21 15 20 23 rlinecurve
          63 68 16 100 94 vvcurveto
          106 -26 119 -82 70 vhcurveto
          37 -44 -54 25 -90 hhcurveto
          -88 -55 -25 -37 -44 hvcurveto
          -83 -70 -25 -119 -105 vvcurveto
          hintmask 01111000
          -105 25 -119 83 -71 vhcurveto
          -36 44 55 -26 89 hhcurveto
          1 hlineto
          -140 357 rmoveto
          109 19 129 119 120 18 -129 -109 -108 -18 -131 -120 -119 -19 131 108 vhcurveto
          endchar
        </CharString>
        <CharString name="R">
          22 callgsubr
          hstem
          78 151 177 156 vstem
          -100 callgsubr
          endchar
        </CharString>
        <CharString name="Racute">
          22 callgsubr
          38 19 callsubr
          78 151 -47 280 -56 -69 callgsubr
          -47 428 -84 callgsubr
        </CharString>
        <CharString name="Rcaron">
          22 callgsubr
          49 103 hstemhm
          78 151 -107 358 -74 -69 callgsubr
          -48 544 -92 callgsubr
        </CharString>
        <CharString name="Rcommaaccent">
          47 -27 callsubr
          305 119 200 116 hstemhm
          78 151 47 129 1 156 hintmask 00011101
          -100 callgsubr
          hintmask 11100010
          164 -430 -94 callgsubr
        </CharString>
        <CharString name="S">
          30 callgsubr
          hstem
          40 156 171 162 vstem
          -84 callsubr
          endchar
        </CharString>
        <CharString name="Sacute">
          30 callgsubr
          29 19 callsubr
          40 156 -32 280 -77 -63 callgsubr
          147 739 -84 callgsubr
        </CharString>
        <CharString name="Scaron">
          30 callgsubr
          40 103 hstemhm
          40 156 -92 358 -95 -63 callgsubr
          146 855 -92 callgsubr
        </CharString>
        <CharString name="T">
          -59 556 127 hstem
          178 20 callsubr
          -52 callsubr
          endchar
        </CharString>
        <CharString name="Tcaron">
          -59 556 127 55 103 hstemhm
          73 358 -253 153 hintmask 10010000
          -52 callsubr
          hintmask 01100000
          -46 432 -92 callgsubr
        </CharString>
        <CharString name="Thorn">
          22 137 118 216 48 callgsubr
          78 hmoveto
          -13 callgsubr
          21 -19 callsubr
          137 81 vlineto
          140 104 71 155 161 -104 65 -140 -28 -26 0 -1 -27 hvcurveto
          95 -15 callgsubr
          221 -212 rmoveto
          83 18 -59 -49 -49 -18 -59 -83 -10 -29 -1 -1 -29 hvcurveto
          219 vlineto
          29 27 -1 12 hhcurveto
          endchar
        </CharString>
        <CharString name="U">
          44 callgsubr
          hstem
          68 153 230 20 callsubr
          -96 callgsubr
          endchar
        </CharString>
        <CharString name="Uacute">
          40 callgsubr
          -8 280 -42 -73 callgsubr
          -391 548 -84 callgsubr
        </CharString>
        <CharString name="Ucircumflex">
          44 callgsubr
          617 188 hstemhm
          68 153 -69 356 -57 -73 callgsubr
          -155 484 -85 callgsubr
        </CharString>
        <CharString name="Udieresis">
          44 callgsubr
          645 35 callsubr
          68 153 -61 13 callgsubr
          -57 153 hintmask 10100100
          -96 callgsubr
          hintmask 01011000
          -153 615 rmoveto
          -31 -15 -7 -9 -16 hvcurveto
          -10 -12 -4 -20 -17 vvcurveto
          -17 4 -21 10 -11 88 callgsubr
          15 -7 31 88 callsubr
          7 10 14 hvcurveto
          9 11 3 35 callgsubr
          -3 20 -9 12 vhcurveto
          9 -14 -20 7 -23 hhcurveto
          -234 hmoveto
          -25 -19 -7 -9 -13 hvcurveto
          -9 -12 -3 -20 -17 vvcurveto
          -17 3 -21 9 89 callgsubr
          13 19 -7 25 hhcurveto
          29 17 7 90 callsubr
          10 11 2 35 callgsubr
          -2 20 -10 12 vhcurveto
          9 -16 -17 7 -29 hhcurveto
          endchar
        </CharString>
        <CharString name="Ugrave">
          40 callgsubr
          -36 280 -14 -73 callgsubr
          -360 683 -58 callsubr
        </CharString>
        <CharString name="Uring">
          44 callgsubr
          554 75 102 75 hstemhm
          68 153 -25 89 98 89 -21 153 hintmask 10010010
          -96 callgsubr
          hintmask 01101100
          -408 536 -22 callsubr
        </CharString>
        <CharString name="V">
          36 -6 134 hstemhm
          10 583 54 callgsubr
          314 128 rmoveto
          -5 -3 2 11 -2 hvcurveto
          -10 57 -13 66 -16 57 -80 295 rcurveline
          53 -14 -24 23 -44 hhcurveto
          -34 -31 -11 -12 -28 hvcurveto
          169 -605 rlineto
          -60 17 36 -10 50 hhcurveto
          40 46 2 4 36 hvcurveto
          189 670 -7 9 rlineto
          7 -20 -31 3 -19 hhcurveto
          -20 -24 -1 -5 -22 hvcurveto
          endchar
        </CharString>
        <CharString name="W">
          330 -6 133 394 149 hstem
          17 858 vstem
          136 64 rmoveto
          -62 12 37 -8 49 hhcurveto
          41 50 3 4 37 hvcurveto
          47 286 13 78 13 90 8 66 rlinecurve
          8 hlineto
          6 -66 13 -92 11 -76 36 -223 rcurveline
          -62 10 38 -8 45 hhcurveto
          40 56 3 4 35 hvcurveto
          134 668 -7 10 rlineto
          6 -21 -28 4 -24 hhcurveto
          -21 -24 -1 -5 -23 hvcurveto
          -60 -343 -11 -66 -13 -91 -6 -56 rlinecurve
          -6 -3 0 14 -2 hvcurveto
          -79 529 rlineto
          5 -29 -38 2 -31 hhcurveto
          -30 -38 -2 -5 -30 hvcurveto
          -86 -543 rlineto
          -7 -2 1 13 -1 hvcurveto
          -4 48 -13 86 -11 63 -45 270 rcurveline
          65 -10 -21 19 -53 hhcurveto
          -27 -31 -8 -10 -23 hvcurveto
          endchar
        </CharString>
        <CharString name="X">
          46 659 -20 hstem
          10 592 vstem
          434 683 rmoveto
          -118 -200 -93 150 rlineto
          45 -28 -26 14 -43 hhcurveto
          -31 -38 -12 -21 -30 hvcurveto
          190 -306 -207 -337 4 -9 rlineto
          -7 21 31 -6 29 hhcurveto
          26 22 2 4 16 hvcurveto
          136 228 110 -177 rlineto
          -46 29 26 -14 43 hhcurveto
          32 37 12 21 30 hvcurveto
          -208 334 188 310 -4 8 rlineto
          7 -19 -31 6 -30 hhcurveto
          -26 -22 -2 -4 -16 hvcurveto
          endchar
        </CharString>
        <CharString name="Y">
          -29 -6 697 hstem
          192 20 callsubr
          324 505 rmoveto
          -17 -43 -19 -54 -12 -49 rrcurveto
          -6 hlineto
          -14 53 -15 47 -16 41 -52 130 rcurveline
          43 -17 -21 18 -42 hhcurveto
          -33 -34 -11 -15 -27 hvcurveto
          193 -450 rlineto
          -215 vlineto
          -5 24 34 -16 callsubr
          21 30 -54 callgsubr
          211 vlineto
          193 458 -6 9 rlineto
          7 -20 -29 4 -26 hhcurveto
          -20 -21 -1 -5 -21 hvcurveto
          endchar
        </CharString>
        <CharString name="Yacute">
          -40 -6 697 36 19 callsubr
          145 280 -239 153 hintmask 10010000
          318 505 rmoveto
          -17 -43 -19 -54 -12 -49 rrcurveto
          -6 hlineto
          -14 53 -15 47 -16 41 -52 130 rcurveline
          43 -17 -21 18 -42 hhcurveto
          -33 -34 -11 -15 -27 hvcurveto
          193 -450 rlineto
          -215 vlineto
          -5 24 34 -16 callsubr
          21 30 -54 callgsubr
          211 vlineto
          193 458 -6 9 rlineto
          7 -20 -29 4 -26 hhcurveto
          -20 -21 -1 -5 -21 hvcurveto
          hintmask 01100000
          -244 116 -84 callgsubr
        </CharString>
        <CharString name="Ydieresis">
          -40 -6 697 61 35 callsubr
          92 119 -25 153 -18 119 hintmask 10010000
          318 505 rmoveto
          -17 -43 -19 -54 -12 -49 rrcurveto
          -6 hlineto
          -14 53 -15 47 -16 41 -52 130 rcurveline
          43 -17 -21 18 -42 hhcurveto
          -33 -34 -11 -15 -27 hvcurveto
          193 -450 rlineto
          -215 vlineto
          -5 24 34 -16 callsubr
          21 30 -54 callgsubr
          211 vlineto
          193 458 -6 9 rlineto
          7 -20 -29 4 -26 hhcurveto
          -20 -21 -1 -5 -21 hvcurveto
          hintmask 01101000
          -6 183 rmoveto
          -31 -15 -7 -9 -16 hvcurveto
          -10 -12 -4 -20 -17 vvcurveto
          -17 4 -21 10 -11 88 callgsubr
          15 -7 31 88 callsubr
          7 10 14 hvcurveto
          9 11 3 35 callgsubr
          -3 20 -9 12 vhcurveto
          9 -14 -20 7 -23 hhcurveto
          -234 hmoveto
          -25 -19 -7 -9 -13 hvcurveto
          -9 -12 -3 -20 -17 vvcurveto
          -17 3 -21 9 89 callgsubr
          13 19 -7 25 hhcurveto
          29 17 7 90 callsubr
          10 11 2 35 callgsubr
          -2 20 -10 12 vhcurveto
          9 -16 -17 7 -29 hhcurveto
          endchar
        </CharString>
        <CharString name="Z">
          8 callgsubr
          hstem
          39 499 vstem
          -97 callgsubr
          endchar
        </CharString>
        <CharString name="Zacute">
          8 callgsubr
          44 19 callsubr
          39 499 -371 280 -88 callsubr
          -117 334 -84 callgsubr
        </CharString>
        <CharString name="Zcaron">
          8 callgsubr
          55 103 hstemhm
          39 499 -431 358 -88 callsubr
          -118 450 -92 callgsubr
        </CharString>
        <CharString name="Zdotaccent">
          8 callgsubr
          74 60 callgsubr
          39 499 -333 155 -88 callsubr
          -79 349 -35 callgsubr
        </CharString>
        <CharString name="a">
          -3 callgsubr
          hstem
          32 145 82 callsubr
          -98 callgsubr
          endchar
        </CharString>
        <CharString name="a.smcp">
          -19 callgsubr
          hstem
          6 560 vstem
          -107 callsubr
          endchar
        </CharString>
        <CharString name="aacute">
          -3 callgsubr
          30 225 86 callgsubr
          -19 245 -99 149 hintmask 11101010
          -98 callgsubr
          hintmask 00010100
          -68 502 -99 callsubr
        </CharString>
        <CharString name="aacute.smcp">
          24 callsubr
          -367 245 -104 callgsubr
          hintmask 00101000
          -17 432 -99 callsubr
        </CharString>
        <CharString name="acircumflex">
          -54 50 0 97 195 endchar
        </CharString>
        <CharString name="acircumflex.smcp">
          -19 callgsubr
          46 200 58 callgsubr
          -434 320 -104 callgsubr
          hintmask 00101000
          171 385 -87 callsubr
        </CharString>
        <CharString name="acute">
          540 225 hstem
          106 245 vstem
          106 598 -99 callsubr
        </CharString>
        <CharString name="acute.cap">
          727 207 hstem
          78 280 vstem
          78 799 -84 callgsubr
        </CharString>
        <CharString name="adieresis">
          -3 callgsubr
          64 96 86 callgsubr
          -99 -1 callgsubr
          -107 149 hintmask 11101001
          -98 callgsubr
          hintmask 00010110
          52 526 -107 callgsubr
        </CharString>
        <CharString name="adieresis.smcp">
          -19 callgsubr
          76 96 58 callgsubr
          -446 -1 callgsubr
          -104 callgsubr
          hintmask 00101100
          104 456 -107 callgsubr
        </CharString>
        <CharString name="ae">
          193 -15 111 105 103 -91 96 85 116 -103 106 86 callgsubr
          127 148 137 81 callsubr
          hintmask 11001111
          715 90 callgsubr
          9 33 3 18 callsubr
          -74 92 -131 -53 -45 -19 -32 -34 vhcurveto
          hintmask 10110111
          32 -30 -44 16 -50 hhcurveto
          -61 -89 -17 -27 -65 hvcurveto
          3 -37 12 -43 21 -24 rrcurveto
          17 53 53 15 44 hhcurveto
          45 22 -22 -44 hvcurveto
          -22 vlineto
          2 -27 -28 1 -20 hhcurveto
          -104 -93 -53 -119 -73 48 -79 103 75 58 34 39 39 hvcurveto
          -47 36 55 -26 74 hhcurveto
          71 73 21 36 50 hvcurveto
          -4 30 -14 37 -22 22 rrcurveto
          -17 -41 -43 -14 -45 hhcurveto
          hintmask 11001111
          -70 -18 44 57 -4 hvcurveto
          -227 -105 rmoveto
          -30 -19 22 28 hvcurveto
          hintmask 10101111
          40 21 27 46 16 23 0 -2 22 vhcurveto
          1 -26 4 -23 6 -22 rrcurveto
          hintmask 11001111
          -29 -27 -33 -15 -30 hhcurveto
          295 311 rmoveto
          51 17 -42 -50 hvcurveto
          -11 -137 vlineto
          69 4 18 34 47 hhcurveto
          endchar
        </CharString>
        <CharString name="ae.smcp">
          234 -2 120 -12 111 3 115 95 120 hstemhm
          355 140 hintmask 00000000
          hintmask 01011000
          238 106 rmoveto
          86 hlineto
          9 11 0 1 11 hvcurveto
          hintmask 10111000
          -23 vlineto
          -53 30 -33 54 vhcurveto
          230 -35 callsubr
          18 12 vvcurveto
          -202 hlineto
          -29 -15 -2 -1 -22 hvcurveto
          1 87 callgsubr
          14 24 vvcurveto
          43 60 vlineto
          135 hlineto
          7 17 1 24 23 callsubr
          23 -7 18 vhcurveto
          -135 hlineto
          -13 -24 0 -1 -23 hvcurveto
          42 vlineto
          21 -1 13 20 vvcurveto
          61 hlineto
          182 14 callsubr
          22 -33 callgsubr
          -384 hlineto
          -30 -43 -2 -10 -21 hvcurveto
          -264 -525 6 -9 rlineto
          -7 18 23 -3 26 88 callsubr
          0 6 23 hvcurveto
          51 107 rlineto
          14 19 -1 13 hhcurveto
          36 174 rmoveto
          21 44 30 66 25 55 rrcurveto
          4 hlineto
          1 1 rlineto
          -230 vlineto
          -11 -12 1 -9 hhcurveto
          -42 hlineto
          -12 -13 -1 -13 hhcurveto
          endchar
        </CharString>
        <CharString name="agrave">
          -54 51 0 97 193 endchar
        </CharString>
        <CharString name="agrave.smcp">
          24 callsubr
          -420 245 -104 callgsubr
          hintmask 00101000
          21 599 -68 callsubr
        </CharString>
        <CharString name="ampersand">
          86 -15 116 195 126 158 118 hstemhm
          41 156 -126 156 158 42 callsubr
          hintmask 11110100
          330 422 rmoveto
          hintmask 11101100
          -71 -32 27 54 44 28 33 57 51 49 -13 -14 45 hvcurveto
          25 27 15 47 -2 38 rrcurveto
          18 -53 -78 15 -77 hhcurveto
          -133 -83 -75 -107 -72 40 -58 58 -22 hvcurveto
          hintmask 11110100
          -68 -21 -60 -69 -95 vvcurveto
          -105 68 -89 127 61 57 23 34 38 vhcurveto
          10 -44 rlineto
          -4 17 26 -3 25 hhcurveto
          27 24 3 6 18 hvcurveto
          -4 45 -3 71 43 vvcurveto
          76 vlineto
          17 -1 21 23 vvcurveto
          23 hlineto
          58 34 24 51 27 -7 28 -12 15 hvcurveto
          -12 -29 -38 -7 -38 hhcurveto
          -137 -188 rmoveto
          -93 vlineto
          -19 -22 -37 -21 -48 hhcurveto
          -45 -36 29 63 65 41 38 80 hvcurveto
          68 hlineto
          -1 -23 0 -22 -17 vvcurveto
          endchar
        </CharString>
        <CharString name="ampersand.smcp">
          25 -14 111 133 117 105 60 callgsubr
          37 153 -124 156 123 143 hintmask 00000000
          hintmask 11101100
          307 347 rmoveto
          -57 -28 18 37 27 20 23 49 40 47 -12 -12 41 hvcurveto
          25 28 15 44 -3 37 rrcurveto
          15 -49 -73 13 -62 hhcurveto
          -129 -77 -60 -90 -58 34 -47 52 -17 hvcurveto
          hintmask 11110100
          -62 -17 -53 -56 -76 vvcurveto
          -84 59 -74 112 58 53 20 28 32 vhcurveto
          9 -38 rlineto
          -4 16 26 -2 19 hhcurveto
          27 31 3 7 17 hvcurveto
          -3 24 -5 47 27 vvcurveto
          75 vlineto
          22 0 18 -1 17 vhcurveto
          11 hlineto
          56 34 18 53 23 -9 30 -9 12 hvcurveto
          -12 -25 -28 -7 -45 hhcurveto
          -127 -172 rmoveto
          -50 vlineto
          -15 -20 -34 -13 -33 hhcurveto
          -34 -34 16 46 50 39 21 65 hvcurveto
          51 hlineto
          endchar
        </CharString>
        <CharString name="aogonek">
          -25 -218 93 110 -2 callsubr
          86 callgsubr
          98 109 -80 33 callsubr
          hintmask 11110100
          477 36 callgsubr
          29 20 23 24 23 hvcurveto
          hintmask 11111010
          28 27 19 26 9 29 rrcurveto
          -20 15 -11 22 -86 callsubr
          hvcurveto
          hintmask 11110100
          66 46 28 33 36 hvcurveto
          7 -10 10 -10 11 -8 rrcurveto
          -38 -28 -46 -50 -59 vvcurveto
          -61 49 -38 68 47 45 18 22 25 vhcurveto
          -2 4 callgsubr
          hintmask 11111010
          -251 207 -57 callsubr
          endchar
        </CharString>
        <CharString name="aogonek.smcp">
          5 -218 93 124 -20 121 119 215 116 hstem
          371 109 vstem
          6 12 rmoveto
          -80 callgsubr
          -44 callgsubr
          9 -32 15 -17 18 -7 rlinecurve
          -32 -28 -33 -42 -48 vvcurveto
          -61 48 5 callsubr
          -23 -19 12 24 36 32 34 54 26 -70 callsubr
          30 -286 -86 callgsubr
          endchar
        </CharString>
        <CharString name="aring">
          -3 callgsubr
          32 76 102 75 86 callgsubr
          -66 89 98 89 -83 149 hintmask 1110010010000000
          -98 callgsubr
          hintmask 0001101100000000
          -115 573 -68 callgsubr
        </CharString>
        <CharString name="aring.smcp">
          -19 callgsubr
          44 76 102 75 58 callgsubr
          -413 89 98 89 hintmask 11001000
          -107 callsubr
          hintmask 00110110
          -63 503 -68 callgsubr
        </CharString>
        <CharString name="asciicircum">
          -36 537 117 hstem
          30 470 vstem
          344 648 rmoveto
          -34 9 -92 -1 -32 -8 -156 -342 rcurveline
          36 -8 70 -1 36 9 53 127 rcurveline
          9 21 20 60 7 23 rrcurveto
          8 hlineto
          7 -23 20 -60 9 -21 53 -127 rcurveline
          36 -9 70 1 36 8 rrcurveto
          endchar
        </CharString>
        <CharString name="asciitilde">
          60 195 137 -67 137 hstemhm
          32 562 hintmask 00000000
          hintmask 01100000
          298 381 rmoveto
          14 -31 -30 7 -28 hhcurveto
          -68 -53 -40 -61 -37 hvcurveto
          -19 -32 15 -34 43 -21 31 -3 rlinecurve
          24 26 rlineto
          18 16 18 10 21 hhcurveto
          14 15 -4 -8 16 hvcurveto
          hintmask 10100000
          83 -37 rlineto
          -14 31 30 -7 28 hhcurveto
          68 53 40 61 36 hvcurveto
          20 32 -15 34 -43 21 -31 2 rlinecurve
          -24 -25 rlineto
          -18 -16 -18 -10 -21 hhcurveto
          -14 -15 4 7 -16 hvcurveto
          endchar
        </CharString>
        <CharString name="asterisk">
          -48 563 -20 21 -20 186 9 hstemhm
          200 117 hintmask 00000000
          hintmask 01110000
          37 525 rmoveto
          62 -16 rlineto
          -9 32 37 -1 36 hhcurveto
          -30 -22 -29 -22 -21 -26 -39 -50 rcurveline
          16 -26 52 -38 29 -6 34 53 rcurveline
          18 28 13 34 12 34 11 -34 12 -35 19 -28 35 -53 rcurveline
          30 7 51 39 15 25 -40 49 rcurveline
          -21 26 -29 23 -29 22 rrcurveto
          36 38 1 8 32 hvcurveto
          62 17 2 31 -21 61 -19 22 rlinecurve
          -59 -23 -31 -13 -31 -19 -29 -20 rlinecurve
          10 34 11 36 2 33 3 63 rcurveline
          -28 12 -65 0 -27 -12 3 -63 rcurveline
          hintmask 10110000
          1 -33 11 -36 11 -35 -29 21 -31 22 -32 11 -58 23 rcurveline
          hintmask 01110000
          -20 -24 -20 -61 2 -30 rrcurveto
          endchar
        </CharString>
        <CharString name="at">
          409 -201 113 86 111 -107 108 272 104 89 110 hstemhm
          40 149 98 142 124 138 105 147 hintmask 0000000000000000
          hintmask 1101111110000000
          692 411 rmoveto
          39 -39 -75 36 -77 hhcurveto
          -138 -76 -107 -152 -135 56 -94 107 51 50 28 35 36 hvcurveto
          hintmask 1011111110000000
          -36 30 47 -23 59 hhcurveto
          106 114 88 205 248 -189 142 -250 -268 -196 -193 -270 -290 175 -133 244 82 99 22 28 64 hvcurveto
          32 -12 42 -25 27 vhcurveto
          -24 -62 -67 -14 -68 hhcurveto
          -173 -108 100 210 207 124 146 191 176 116 -104 -172 -143 -34 -46 -39 -23 -9 15 38 hvcurveto
          hintmask 1101111110000000
          -207 -54 rmoveto
          -41 -14 41 84 81 15 67 57 21 16 -7 -12 15 hvcurveto
          -206 vlineto
          -11 vlineto
          -22 -20 -26 -15 -23 hhcurveto
          endchar
        </CharString>
        <CharString name="atilde">
          -54 50 0 97 196 endchar
        </CharString>
        <CharString name="atilde.smcp">
          -19 callgsubr
          56 114 58 callgsubr
          -462 374 -104 callgsubr
          hintmask 00000000
          77 406 -99 callgsubr
        </CharString>
        <CharString name="b">
          -32 -9 107 290 68 callsubr
          62 146 142 58 callsubr
          502 256 rmoveto
          146 -59 106 -118 -47 -38 -15 -21 -32 vhcurveto
          174 vlineto
          66 -24 29 callsubr
          -704 vlineto
          -21 54 69 -13 71 hhcurveto
          149 98 101 164 -1 hvcurveto
          -220 132 rmoveto
          44 -1 24 -39 -94 vvcurveto
          -97 -29 -59 -62 -18 -17 2 3 -16 vhcurveto
          250 vlineto
          24 22 28 11 24 hhcurveto
          endchar
        </CharString>
        <CharString name="b.smcp">
          -4 -4 105 135 104 112 103 hstemhm
          73 146 132 147 -122 13 callsubr
          hintmask 11110100
          79 551 rmoveto
          38 callsubr
          -541 vlineto
          6 -5 rlineto
          -2 79 71 -1 69 hhcurveto
          136 93 40 124 62 -45 58 -58 17 hvcurveto
          hintmask 11111000
          46 17 28 47 48 vvcurveto
          106 -88 40 -124 vhcurveto
          hintmask 11110100
          -65 -89 -2 -2 -53 hvcurveto
          209 -315 rmoveto
          67 21 -36 -33 -30 -15 -36 -65 hvcurveto
          -22 -27 -1 -28 hhcurveto
          136 vlineto
          217 vmoveto
          hintmask 11111000
          -1 21 25 0 14 hhcurveto
          56 16 -28 -28 -28 -16 -28 -57 hvcurveto
          -59 hlineto
          endchar
        </CharString>
        <CharString name="backslash">
          -119 -118 885 hstem
          4 441 vstem
          318 -118 rmoveto
          44 5 47 15 36 28 -314 837 rcurveline
          -44 -5 -47 -15 -36 -28 rrcurveto
          endchar
        </CharString>
        <CharString name="bar">
          -298 -148 928 hstem
          65 138 vstem
          65 -142 rmoveto
          -5 21 33 -1 16 hhcurveto
          19 27 1 5 22 hvcurveto
          915 vlineto
          6 -22 -27 65 callsubr
          -16 -33 -1 -6 -21 hvcurveto
          endchar
        </CharString>
        <CharString name="braceleft">
          -175 -179 1012 hstemhm
          37 154 -62 33 callsubr
          hintmask 10100000
          44 375 rmoveto
          hintmask 11000000
          -9 -24 0 -48 9 -23 rrcurveto
          hintmask 10100000
          49 -10 36 -48 -53 vvcurveto
          -161 vlineto
          -104 66 -58 92 -14 vhcurveto
          65 -11 20 22 14 52 -6 23 rlinecurve
          -59 20 rlineto
          -23 7 -20 25 39 vvcurveto
          158 vlineto
          68 -34 65 -53 23 vhcurveto
          8 vlineto
          53 24 34 65 67 vvcurveto
          159 vlineto
          39 20 25 23 7 vhcurveto
          59 20 6 23 -14 51 -20 22 rlinecurve
          -65 -10 rlineto
          -92 -15 -66 -58 -103 vvcurveto
          -162 vlineto
          -53 -36 -47 -49 -10 vhcurveto
          endchar
        </CharString>
        <CharString name="braceright">
          -175 -179 1012 hstem
          113 150 vstem
          347 375 rmoveto
          -49 10 -35 47 53 vvcurveto
          162 vlineto
          103 -67 58 -92 15 vhcurveto
          -64 10 -21 -22 -13 -51 6 -23 rlinecurve
          59 -20 rlineto
          22 -7 20 -25 -39 vvcurveto
          -159 vlineto
          -67 35 -65 53 -24 vhcurveto
          -8 vlineto
          -53 -23 -35 -65 -68 vvcurveto
          -158 vlineto
          -39 -20 -25 -22 -7 vhcurveto
          -59 -20 -6 -23 13 -52 21 -22 rlinecurve
          64 11 rlineto
          92 14 67 58 104 vvcurveto
          161 vlineto
          53 35 48 49 10 vhcurveto
          9 23 0 48 -9 24 rrcurveto
          endchar
        </CharString>
        <CharString name="bracketleft">
          52 callsubr
          98 146 vstem
          350 -153 rmoveto
          3 9 2 21 11 vvcurveto
          24 -6 25 -5 12 vhcurveto
          -100 3 rlineto
          761 vlineto
          100 3 rlineto
          5 11 6 26 23 vvcurveto
          12 -2 20 -3 10 vhcurveto
          -243 8 -9 -7 rlineto
          -973 vlineto
          9 -8 rlineto
          endchar
        </CharString>
        <CharString name="bracketright">
          52 callsubr
          144 145 vstem
          281 -162 rmoveto
          8 8 rlineto
          973 vlineto
          -8 7 -243 -8 rlineto
          -4 -10 -1 -20 -12 vvcurveto
          -23 6 -26 5 -11 vhcurveto
          100 -3 rlineto
          -761 vlineto
          -100 -3 rlineto
          -5 -12 -6 -25 -24 vvcurveto
          -11 1 -21 4 -9 vhcurveto
          endchar
        </CharString>
        <CharString name="brokenbar">
          -304 -148 928 hstem
          63 136 vstem
          63 -142 rmoveto
          -6 callsubr
          141 vmoveto
          -6 callsubr
          endchar
        </CharString>
        <CharString name="bullet">
          -106 171 194 hstem
          97 251 vstem
          97 268 rmoveto
          -19 4 -50 14 -28 vhcurveto
          -19 29 48 -8 39 hhcurveto
          39 49 8 19 29 hvcurveto
          12 28 5 50 19 vvcurveto
          20 -5 49 -12 28 vhcurveto
          18 -29 -49 11 -39 hhcurveto
          -39 -48 -11 -18 -29 hvcurveto
          -14 -28 -4 -49 -20 vvcurveto
          endchar
        </CharString>
        <CharString name="c">
          72 callsubr
          hstem
          32 152 129 134 vstem
          -49 callgsubr
          endchar
        </CharString>
        <CharString name="c.smcp">
          30 callsubr
          hstem
          33 154 194 141 vstem
          -74 callgsubr
          endchar
        </CharString>
        <CharString name="cacute">
          -92 55 0 99 194 endchar
        </CharString>
        <CharString name="cacute.smcp">
          30 callsubr
          42 callgsubr
          17 245 -68 141 hintmask 11010100
          -74 callgsubr
          hintmask 00101000
          -177 345 -99 callsubr
        </CharString>
        <CharString name="caron">
          553 108 0 -20 hstemhm
          38 322 hintmask 00000000
          hintmask 01100000
          103 748 -50 callsubr
          hintmask 10100000
          -91 callgsubr
        </CharString>
        <CharString name="caron.alt">
          -107 554 11 213 23 hstem
          192 136 vstem
          192 565 -17 callgsubr
        </CharString>
        <CharString name="caron.cap">
          738 103 hstem
          18 358 vstem
          77 915 -92 callgsubr
        </CharString>
        <CharString name="ccaron">
          72 callsubr
          148 -20 hstemhm
          32 152 -93 322 -100 134 hintmask 11010100
          -49 callgsubr
          hintmask 00000000
          -157 467 -93 callsubr
        </CharString>
        <CharString name="ccaron.smcp">
          30 callsubr
          148 -20 15 callsubr
          -52 322 -76 141 hintmask 11010100
          -74 callgsubr
          hintmask 00000000
          -181 495 -93 callsubr
        </CharString>
        <CharString name="ccedilla">
          -92 7 callgsubr
          434 111 hstemhm
          32 152 80 112 -63 134 hintmask 00000000
          hintmask 10111100
          187 -9 callgsubr
          14 -13 -18 78 callsubr
          -12 hvcurveto
          hintmask 01011010
          -14 5 callgsubr
          -62 4 hvcurveto
          2 6 3 7 4 6 61 8 59 27 38 40 -25 callsubr
          hvcurveto
          hintmask 01111010
          55 8 -45 -76 -1 hvcurveto
          -24 callgsubr
          -141 60 -100 116 -19 hvcurveto
          hintmask 10111100
          -8 -20 -8 -27 -5 -18 rrcurveto
          endchar
        </CharString>
        <CharString name="ccedilla.smcp">
          -21 7 callgsubr
          479 118 15 callsubr
          119 112 -37 141 hintmask 00000000
          hintmask 01111100
          229 -77 rmoveto
          4 -9 10 -9 8 7 callsubr
          21 13 -13 -18 hvcurveto
          hintmask 10111100
          78 callsubr
          -11 vhcurveto
          hintmask 01111100
          -15 5 callgsubr
          -61 4 hvcurveto
          2 6 4 8 3 6 78 10 63 32 46 40 -46 callsubr
          hvcurveto
          hintmask 01111010
          72 18 -58 -84 hvcurveto
          -42 callgsubr
          -130 51 -141 165 -15 hvcurveto
          endchar
        </CharString>
        <CharString name="cedilla">
          7 callgsubr
          -63 95 hstemhm
          212 113 hintmask 00000000
          hintmask 01011000
          136 -9 callgsubr
          13 -13 -18 hvcurveto
          hintmask 10011000
          -18 -13 -12 -24 -18 -18 6 7 -11 vhcurveto
          hintmask 01011000
          -15 -16 -9 -27 -1 -22 rrcurveto
          hintmask 10101000
          -12 18 35 -11 32 hhcurveto
          81 62 callsubr
          hintmask 01011000
          4 10 7 13 5 9 rrcurveto
          -79 hlineto
          -9 -21 -12 -35 -5 -21 rrcurveto
          endchar
        </CharString>
        <CharString name="cent">
          -102 -33 212 299 204 hstem
          188 107 vstem
          188 -33 rmoveto
          -3 13 29 0 12 hhcurveto
          11 28 0 3 14 hvcurveto
          99 vlineto
          55 11 53 28 31 35 -6 30 -27 35 -22 17 rrcurveto
          -23 -33 -38 -20 -38 hhcurveto
          -55 -36 36 109 104 17 50 47 53 10 -60 -60 -1 hvcurveto
          -5 16 22 -1 15 hhcurveto
          52 28 24 57 72 -55 62 -85 17 hvcurveto
          98 vlineto
          3 -14 -28 1 -11 hhcurveto
          -12 -29 -1 -3 -13 hvcurveto
          -101 vlineto
          -88 -22 -75 -77 -158 vvcurveto
          -112 35 -118 125 -27 vhcurveto
          endchar
        </CharString>
        <CharString name="cent.smcp">
          -147 -31 185 351 -20 hstemhm
          165 104 hintmask 00000000
          hintmask 11100000
          165 -31 rmoveto
          -3 14 27 -1 11 hhcurveto
          11 26 0 4 15 hvcurveto
          77 vlineto
          47 8 48 22 31 29 -7 30 -23 34 -22 15 rrcurveto
          -18 -31 -36 -12 -32 hhcurveto
          -50 -30 34 81 94 17 36 36 41 10 -35 -75 hvcurveto
          -4 15 22 -2 14 hhcurveto
          51 27 23 54 79 -51 51 -75 15 hvcurveto
          80 vlineto
          2 -15 -26 1 -10 hhcurveto
          -11 -27 -1 -2 -14 hvcurveto
          -82 vlineto
          -79 -21 -65 -70 -138 vvcurveto
          -95 31 -103 110 -27 vhcurveto
          endchar
        </CharString>
        <CharString name="circumflex">
          544 200 hstem
          40 320 vstem
          295 551 -87 callsubr
        </CharString>
        <CharString name="circumflex.cap">
          724 188 hstem
          17 356 vstem
          314 735 -85 callgsubr
        </CharString>
        <CharString name="colon">
          -275 7 118 194 118 hstemhm
          58 164 hintmask 10100000
          58 66 rmoveto
          -77 callgsubr
          hintmask 01100000
          312 vmoveto
          -77 callgsubr
          endchar
        </CharString>
        <CharString name="comma">
          -274 -8 132 hstemhm
          72 162 54 callgsubr
          -40 callgsubr
          endchar
        </CharString>
        <CharString name="commaaccent">
          -40 callsubr
        </CharString>
        <CharString name="commaaccent.cap">
          -40 callsubr
        </CharString>
        <CharString name="copyright">
          225 -21 98 71 89 216 83 70 98 hstem
          33 112 78 116 104 103 100 112 vstem
          33 341 rmoveto
          -205 157 -157 205 205 158 157 205 205 -158 158 -205 -205 -157 -158 -205 vhcurveto
          112 hmoveto
          147 103 118 147 147 104 -118 -147 -147 -104 -117 -147 -147 -103 117 147 vhcurveto
          298 25 rmoveto
          -3 9 19 -2 13 hhcurveto
          42 20 19 40 64 -62 52 -86 -83 -92 -52 -142 -97 41 -97 133 50 63 24 32 30 hvcurveto
          -3 23 -18 30 -19 13 rrcurveto
          -17 -28 -31 -16 -25 hhcurveto
          -49 -28 35 70 73 17 38 37 41 9 -44 -43 hvcurveto
          endchar
        </CharString>
        <CharString name="currency">
          23 113 110 222 109 hstem
          64 146 167 146 vstem
          64 333 rmoveto
          -44 11 -40 19 -32 vhcurveto
          -70 -78 18 -29 29 -30 28 -17 rlinecurve
          83 73 rlineto
          -15 32 37 -8 42 hhcurveto
          41 37 8 15 32 hvcurveto
          84 -74 30 19 29 29 16 28 rlinecurve
          -70 78 rlineto
          20 33 11 39 45 vvcurveto
          44 -10 39 -19 33 vhcurveto
          71 80 -18 29 -29 29 -29 17 rlinecurve
          -83 -75 rlineto
          16 -33 -38 9 -42 hhcurveto
          -42 -39 -9 -16 -32 hvcurveto
          -81 73 -28 -18 -32 -28 -15 -30 rlinecurve
          69 -77 rlineto
          -19 -33 -10 -39 -44 vvcurveto
          146 hmoveto
          61 23 51 60 61 23 -51 -61 -60 -23 -50 -61 -60 -23 52 58 vhcurveto
          endchar
        </CharString>
        <CharString name="currency.smcp">
          -86 81 101 170 100 47 -20 hstem
          44 136 119 135 vstem
          44 266 rmoveto
          -35 8 -32 14 -26 vhcurveto
          -57 -65 19 -28 28 -30 28 -16 rlinecurve
          71 62 rlineto
          -10 25 28 -5 31 hhcurveto
          30 28 5 9 24 hvcurveto
          72 -63 30 19 29 28 16 29 rlinecurve
          -57 64 rlineto
          14 26 9 32 36 vvcurveto
          34 -8 30 -13 26 vhcurveto
          59 68 -19 28 -28 30 -29 17 rlinecurve
          -72 -63 rlineto
          10 -25 -29 6 -31 hhcurveto
          -32 -29 -6 -11 -26 hvcurveto
          -68 61 -28 -17 -32 -28 -15 -29 rlinecurve
          56 -64 rlineto
          -14 -26 -7 -31 -35 vvcurveto
          136 hmoveto
          48 16 38 43 42 18 -38 -48 -48 -18 -36 -42 -43 -16 39 45 vhcurveto
          endchar
        </CharString>
        <CharString name="d">
          -29 -15 120 292 111 hstem
          33 153 142 145 vstem
          -60 callgsubr
          endchar
        </CharString>
        <CharString name="d.smcp">
          76 callgsubr
          hstem
          73 150 193 154 vstem
          -54 callsubr
          endchar
        </CharString>
        <CharString name="dcaron">
          89 -15 120 292 111 43 11 213 23 hstemhm
          33 153 142 145 59 136 hintmask 11001100
          -60 callgsubr
          hintmask 00110010
          281 457 -17 callgsubr
        </CharString>
        <CharString name="dcaron.smcp">
          76 callgsubr
          158 -20 24 callgsubr
          -94 322 -35 56 callgsubr
          -54 callsubr
          hintmask 00000000
          -222 526 -93 callsubr
        </CharString>
        <CharString name="degree">
          -219 356 93 132 93 hstem
          15 104 109 104 vstem
          15 515 rmoveto
          -93 67 -66 92 92 66 66 93 93 -66 66 -92 -92 -67 -66 -93 vhcurveto
          104 hmoveto
          40 21 26 34 32 22 -26 -40 -40 -22 -26 -32 -34 -21 26 40 vhcurveto
          endchar
        </CharString>
        <CharString name="dieresis">
          574 96 hstem
          28 -1 callgsubr
          vstem
          228 622 -107 callgsubr
        </CharString>
        <CharString name="dieresis.cap">
          752 69 callgsubr
          25 13 callgsubr
          vstem
          316 866 rmoveto
          -31 -15 -7 -9 -16 hvcurveto
          -10 -12 -4 -20 -17 vvcurveto
          -17 4 -21 10 -11 88 callgsubr
          15 -7 31 88 callsubr
          7 10 14 hvcurveto
          9 11 3 35 callgsubr
          -3 20 -9 12 vhcurveto
          9 -14 -20 7 -23 hhcurveto
          -234 hmoveto
          -25 -19 -7 -9 -13 hvcurveto
          -9 -12 -3 -20 -17 vvcurveto
          -17 3 -21 9 89 callgsubr
          13 19 -7 25 hhcurveto
          29 17 7 90 callsubr
          10 11 2 35 callgsubr
          -2 20 -10 12 vhcurveto
          9 -16 -17 7 -29 hhcurveto
          endchar
        </CharString>
        <CharString name="divide">
          -36 68 103 68 120 67 102 hstem
          190 139 vstem
          190 477 rmoveto
          27 callgsubr
          5 9 14 hvcurveto
          7 14 4 20 17 vvcurveto
          16 -4 21 -7 14 vhcurveto
          9 75 callsubr
          -9 -16 hvcurveto
          -6 -14 -4 -20 -17 vvcurveto
          -358 vmoveto
          27 callgsubr
          6 8 14 hvcurveto
          7 14 4 20 -14 callsubr
          -4 21 -7 14 vhcurveto
          8 75 callsubr
          -8 -16 hvcurveto
          -6 -14 -4 -21 -17 vvcurveto
          287 120 -7 callgsubr
          endchar
        </CharString>
        <CharString name="dollar">
          -58 -41 192 341 198 hstemhm
          47 154 -4 108 19 157 hintmask 00000000
          hintmask 11101000
          23 95 rmoveto
          hintmask 11011000
          33 -22 67 -27 74 -10 rrcurveto
          -77 vlineto
          -3 14 28 0 12 hhcurveto
          12 27 0 3 15 hvcurveto
          76 vlineto
          104 15 72 61 90 vvcurveto
          87 -57 54 -80 30 vhcurveto
          -93 36 rlineto
          -29 10 -21 10 22 vvcurveto
          26 22 16 35 43 59 -18 -22 55 vhcurveto
          30 26 21 46 43 vvcurveto
          -42 18 -51 19 -64 7 rrcurveto
          79 vlineto
          3 -15 -27 1 -12 hhcurveto
          -12 -28 -1 -3 -14 hvcurveto
          -81 vlineto
          -90 -17 -64 -63 -89 vvcurveto
          -81 57 -49 76 -29 vhcurveto
          95 -34 rlineto
          35 -12 14 -20 -20 vvcurveto
          -29 -28 -15 -39 -64 -64 28 26 -50 vhcurveto
          -30 -18 -25 -55 -1 -37 rrcurveto
          endchar
        </CharString>
        <CharString name="dollar.smcp">
          -111 -34 171 279 170 hstemhm
          40 146 -12 103 5 81 callgsubr
          hintmask 11101000
          19 77 rmoveto
          hintmask 11010000
          30 -19 58 -24 67 -8 rrcurveto
          -60 vlineto
          -3 14 27 -1 11 hhcurveto
          11 27 1 3 13 hvcurveto
          61 vlineto
          90 13 65 50 85 vvcurveto
          72 -50 49 -79 29 vhcurveto
          -78 28 rlineto
          -21 8 -18 8 16 vvcurveto
          19 15 12 31 43 51 -15 -21 44 vhcurveto
          30 23 19 36 1 45 -37 18 -50 16 -52 6 rrcurveto
          62 vlineto
          4 -14 -27 1 -11 hhcurveto
          -10 -28 -1 -4 -14 hvcurveto
          -66 vlineto
          -83 -18 -54 -52 -78 vvcurveto
          -74 58 -41 62 -23 vhcurveto
          86 -31 rlineto
          28 -10 8 -14 -12 vvcurveto
          -21 -20 -9 -31 -53 -61 22 23 -45 vhcurveto
          -28 -20 -23 -48 -2 -37 rrcurveto
          endchar
        </CharString>
        <CharString name="dotaccent">
          585 112 73 callsubr
          641 -91 callsubr
          endchar
        </CharString>
        <CharString name="dotaccent.cap">
          757 113 73 callsubr
          814 -35 callgsubr
        </CharString>
        <CharString name="dotlessi">
          -272 393 109 -5 -20 hstemhm
          84 33 callsubr
          hintmask 01100000
          233 387 rmoveto
          hintmask 10100000
          -95 callsubr
          endchar
        </CharString>
        <CharString name="dotlessj">
          -265 2 callsubr
          hstemhm
          93 42 callsubr
          hintmask 10110000
          240 387 rmoveto
          hintmask 11010000
          -82 callgsubr
          endchar
        </CharString>
        <CharString name="e">
          -69 -15 33 callgsubr
          hstem
          32 150 141 138 vstem
          -79 callgsubr
          endchar
        </CharString>
        <CharString name="e.smcp">
          -23 callsubr
          hstem
          73 150 vstem
          -105 callsubr
          endchar
        </CharString>
        <CharString name="eacute">
          -69 -15 33 callgsubr
          85 callsubr
          32 150 -18 245 -86 138 hintmask 11101010
          -79 callgsubr
          hintmask 00010100
          -89 191 -99 callsubr
        </CharString>
        <CharString name="eacute.smcp">
          16 callgsubr
          -38 245 -102 callgsubr
          hintmask 00010100
          -303 530 -99 callsubr
        </CharString>
        <CharString name="ecaron">
          -69 56 0 101 207 endchar
        </CharString>
        <CharString name="ecaron.smcp">
          -23 callsubr
          163 -20 24 callgsubr
          -107 322 -102 callgsubr
          hintmask 00000000
          -307 680 -50 callsubr
          hintmask 00010100
          -91 callgsubr
        </CharString>
        <CharString name="ecircumflex">
          -69 56 0 101 195 endchar
        </CharString>
        <CharString name="ecircumflex.smcp">
          -23 callsubr
          46 200 24 callgsubr
          -105 320 -102 callgsubr
          hintmask 00010100
          -115 483 -87 callsubr
        </CharString>
        <CharString name="edieresis">
          -69 -15 33 callgsubr
          61 96 hstemhm
          32 150 -98 -1 callgsubr
          -94 138 hintmask 11101001
          -79 callgsubr
          hintmask 00010110
          31 215 -107 callgsubr
        </CharString>
        <CharString name="edieresis.smcp">
          -23 callsubr
          76 96 24 callgsubr
          -117 -1 callgsubr
          -102 callgsubr
          hintmask 00010110
          -182 554 -107 callgsubr
        </CharString>
        <CharString name="egrave">
          -69 57 0 101 193 endchar
        </CharString>
        <CharString name="egrave.smcp">
          16 callgsubr
          -91 245 -102 callgsubr
          hintmask 00010100
          -265 697 -68 callsubr
        </CharString>
        <CharString name="eight">
          -36 -15 104 468 106 hstemhm
          28 150 -134 146 151 143 -134 152 hintmask 00000000
          hintmask 11100100
          28 165 rmoveto
          -112 91 -68 139 135 107 70 117 2 vhcurveto
          83 -44 55 -68 40 vhcurveto
          hintmask 11011000
          52 29 42 48 63 vvcurveto
          100 -86 73 -133 -128 -93 -77 -99 -71 34 -46 60 -37 vhcurveto
          hintmask 11100100
          -60 -36 -50 -58 -74 vvcurveto
          232 112 rmoveto
          58 -21 32 -38 -45 vvcurveto
          -47 -31 -37 -54 -53 -34 35 50 39 16 40 41 33 vhcurveto
          hintmask 11011000
          -45 90 callgsubr
          40 31 30 43 46 31 -31 -42 -35 -17 -31 -33 -23 vhcurveto
          -13 5 rlineto
          -55 19 -33 27 41 vvcurveto
          endchar
        </CharString>
        <CharString name="eight.smcp">
          -84 -15 99 381 100 hstemhm
          27 142 -126 141 117 137 -129 56 callsubr
          hintmask 11100100
          27 133 rmoveto
          -89 81 -59 127 122 98 56 116 62 -34 45 -55 34 vhcurveto
          hintmask 11011000
          39 23 33 37 56 vvcurveto
          87 -74 64 -122 -118 -81 -74 -87 -56 29 -40 52 -32 vhcurveto
          hintmask 11100100
          -49 -26 -48 -47 -70 vvcurveto
          211 92 rmoveto
          39 -15 32 -25 -40 vvcurveto
          -29 -22 -32 -47 -46 -25 27 33 30 14 31 43 25 vhcurveto
          hintmask 11011000
          -42 184 rmoveto
          26 20 25 38 39 20 -28 -27 -21 -10 -25 -26 -21 vhcurveto
          -12 5 rlineto
          -45 16 -24 21 29 vvcurveto
          endchar
        </CharString>
        <CharString name="emdash">
          247 209 69 callgsubr
          68 677 vstem
          739 209 rmoveto
          5 78 callgsubr
          -5 20 vhcurveto
          -664 26 callgsubr
        </CharString>
        <CharString name="endash">
          -14 209 69 callgsubr
          56 441 vstem
          490 209 rmoveto
          6 78 callgsubr
          -6 20 vhcurveto
          -427 26 callgsubr
        </CharString>
        <CharString name="eogonek">
          -69 -218 93 110 33 callgsubr
          hstemhm
          32 150 31 109 1 81 callsubr
          hintmask 11111010
          -58 callgsubr
          vhcurveto
          hintmask 11111100
          15 hlineto
          -32 -29 -22 -35 -37 vvcurveto
          -64 10 callsubr
          41 callsubr
          25 34 24 34 41 30 hvcurveto
          22 8 21 11 18 13 -37 callsubr
          hintmask 11111010
          -37 callgsubr
          endchar
        </CharString>
        <CharString name="eogonek.smcp">
          -40 -218 93 123 123 97 119 91 122 24 callgsubr
          24 109 hintmask 00000000
          hintmask 11111100
          449 36 callgsubr
          31 22 36 54 24 hvcurveto
          2 1 1 1 2 hvcurveto
          27 10 16 22 6 33 rrcurveto
          2 18 0 20 13 vvcurveto
          hintmask 11111000
          -199 hlineto
          -34 callsubr
          11 24 vvcurveto
          41 -20 callsubr
          25 23 callsubr
          26 -41 callgsubr
          40 vlineto
          21 -1 12 19 67 callsubr
          179 14 callsubr
          24 -73 callsubr
          149 hlineto
          -36 -28 -27 -40 -48 vvcurveto
          -62 48 -6 callgsubr
          endchar
        </CharString>
        <CharString name="equal">
          -36 128 120 103 68 callsubr
          47 436 vstem
          477 128 -7 callgsubr
          424 223 0 callsubr
          -424 -5 callgsubr
        </CharString>
        <CharString name="eth">
          -47 -15 109 287 106 175 -20 hstem
          31 152 153 58 callsubr
          88 571 rmoveto
          6 -26 20 -28 22 -15 92 63 rcurveline
          27 -26 22 -29 13 -31 rrcurveto
          5 -13 -15 3 -15 hhcurveto
          -59 -48 -20 -33 -37 hvcurveto
          -47 -43 -25 -64 -84 vvcurveto
          -72 18 -75 53 -52 -21 callgsubr
          52 19 74 79 vvcurveto
          160 -54 133 -100 96 vhcurveto
          64 44 -7 27 -20 27 -21 15 rlinecurve
          -85 -58 -33 22 -37 20 -40 17 rlinecurve
          -27 -13 -27 -42 -4 -35 21 -12 22 -14 21 -15 rrcurveto
          175 -372 rmoveto
          -84 -12 -71 -65 -65 -11 71 75 87 19 54 59 22 22 -8 -11 20 vhcurveto
          8 -31 3 -35 -47 vvcurveto
          endchar
        </CharString>
        <CharString name="eth.smcp">
          47 -4 111 110 115 111 112 hstem
          83 147 196 20 callsubr
          579 -16 callgsubr
          -78 hvcurveto
          38 callsubr
          -213 -67 vlineto
          -5 -20 -1 -19 -19 vvcurveto
          -20 1 -17 5 -20 vhcurveto
          67 -212 hlineto
          6 -6 rlineto
          -2 78 -10 callsubr
          -153 hmoveto
          -74 -16 -93 -101 vhcurveto
          -30 -20 -1 -29 hhcurveto
          111 100 vlineto
          4 20 2 17 21 vvcurveto
          22 -2 15 -4 20 vhcurveto
          -100 112 hlineto
          -1 28 21 0 30 hhcurveto
          101 16 -94 -75 hvcurveto
          endchar
        </CharString>
        <CharString name="exclam">
          -261 5 130 546 11 hstem
          77 143 vstem
          92 207 rmoveto
          -6 19 26 -1 13 hhcurveto
          16 20 1 6 19 hvcurveto
          34 474 -9 11 rlineto
          -67 -58 -18 -24 -33 hvcurveto
          77 -515 rmoveto
          -26 -28 -6 -10 -18 9 callsubr
          -28 -18 vvcurveto
          -17 82 callgsubr
          -11 18 28 -5 26 hhcurveto
          26 28 5 11 17 hvcurveto
          7 12 4 27 17 vvcurveto
          18 -4 28 -7 12 vhcurveto
          10 -17 -28 6 -26 hhcurveto
          endchar
        </CharString>
        <CharString name="exclamdown">
          -261 -194 11 546 130 hstem
          85 144 vstem
          213 291 rmoveto
          5 -19 -26 1 -13 hhcurveto
          -15 -20 -1 -5 -20 hvcurveto
          -33 -474 8 -11 rlineto
          67 58 17 24 34 hvcurveto
          -77 516 rmoveto
          26 27 5 11 19 hvcurveto
          6 31 callgsubr
          -6 12 vhcurveto
          10 -19 -27 6 -26 hhcurveto
          -27 -27 -6 -10 27 callsubr
          -11 18 27 -5 27 hhcurveto
          endchar
        </CharString>
        <CharString name="f">
          -212 394 105 hstem
          90 145 vstem
          90 hmoveto
          -4 22 26 -2 24 hhcurveto
          24 27 2 4 22 hvcurveto
          395 vlineto
          122 -2 rlineto
          4 17 2 20 -14 callsubr
          -2 19 -4 16 vhcurveto
          -132 -2 rlineto
          -3 21 -2 21 18 vvcurveto
          47 25 24 43 27 30 -8 -6 21 vhcurveto
          20 21 13 44 -1 34 rrcurveto
          13 -34 -55 14 -60 hhcurveto
          -104 -68 -74 -98 -24 2 -23 3 -23 hvcurveto
          -78 1 rlineto
          -4 -16 -2 -19 -17 vvcurveto
          -17 2 -20 37 callsubr
        </CharString>
        <CharString name="f.smcp">
          -81 207 118 101 124 hstem
          73 58 callsubr
          462 550 rmoveto
          -383 hlineto
          -6 -4 rlineto
          -546 vlineto
          -5 26 11 callsubr
          207 14 vlineto
          167 hlineto
          6 17 2 27 17 vvcurveto
          16 -2 24 -6 17 vhcurveto
          -167 hlineto
          -14 54 hlineto
          47 60 vlineto
          109 hlineto
          54 21 26 43 14 49 callsubr
          endchar
        </CharString>
        <CharString name="five">
          -36 -15 121 213 114 91 124 hstem
          73 145 113 20 callsubr
          450 648 rmoveto
          -361 hlineto
          -7 -8 -17 -302 14 -23 33 -23 27 -5 rlinecurve
          21 27 30 11 32 hhcurveto
          54 49 -30 -74 -72 -48 -37 -58 -47 -39 17 28 -39 hvcurveto
          -29 -21 -26 -48 -6 -28 rrcurveto
          -44 49 72 -25 78 hhcurveto
          122 124 75 161 127 -79 85 -134 -21 -19 -3 -5 -19 hvcurveto
          3 19 4 51 rlineto
          29 13 vlineto
          164 hlineto
          41 23 22 41 15 -2 22 -8 24 hvcurveto
          endchar
        </CharString>
        <CharString name="five.smcp">
          -84 -15 117 156 104 69 119 hstem
          70 140 82 148 vstem
          36 45 rmoveto
          -39 49 66 -21 69 hhcurveto
          113 107 69 132 104 -79 72 -107 -17 -16 -2 -3 -15 hvcurveto
          2 22 2 38 rlineto
          14 5 vlineto
          147 hlineto
          40 23 21 38 14 -1 21 -9 25 hvcurveto
          -329 hlineto
          -8 -6 -16 -262 15 -24 33 -25 26 -5 rlinecurve
          18 22 26 12 28 hhcurveto
          46 34 -29 -49 -49 -35 -29 -50 -41 -37 14 25 -34 hvcurveto
          -29 -20 -25 -50 -5 -26 rrcurveto
          endchar
        </CharString>
        <CharString name="four">
          -36 116 117 hstem
          274 144 vstem
          274 hmoveto
          -5 26 24 -1 22 hhcurveto
          21 25 -8 callgsubr
          48 vlineto
          25 -1 20 25 vvcurveto
          81 hlineto
          6 22 3 28 20 vvcurveto
          17 -1 18 -3 18 vhcurveto
          -30 hlineto
          -25 -7 -1 -24 hhcurveto
          24 1 20 26 vvcurveto
          102 vlineto
          -7 6 rlineto
          -34 hlineto
          -66 -37 -46 -72 hvcurveto
          -39 vlineto
          -22 vlineto
          -29 -1 -49 -2 -31 -3 -3 5 rcurveline
          35 51 47 106 22 55 74 175 rcurveline
          -24 26 -70 13 -42 -8 -163 -383 rcurveline
          -7 -18 -11 -26 -21 vvcurveto
          -27 14 -36 18 -29 vhcurveto
          149 hlineto
          25 21 2 25 hhcurveto
          -25 -1 -20 -25 vvcurveto
          endchar
        </CharString>
        <CharString name="four.smcp">
          -84 91 117 349 -20 hstemhm
          252 136 hintmask 00000000
          hintmask 11100000
          252 hmoveto
          -5 25 23 59 callsubr
          21 20 -8 callgsubr
          26 vlineto
          25 -1 16 24 67 callsubr
          8 25 3 19 27 vvcurveto
          16 -1 14 -3 16 vhcurveto
          -27 hlineto
          -12 -19 -1 -11 hhcurveto
          1 vlineto
          24 2 37 25 vvcurveto
          59 vlineto
          -6 7 rlineto
          -34 hlineto
          -59 -38 -48 -62 hvcurveto
          -28 vlineto
          -16 vlineto
          -87 -7 -3 4 33 57 39 75 21 44 rlinecurve
          69 145 -27 25 -58 15 -47 -7 rlinecurve
          -153 -323 rlineto
          -6 -12 -10 -22 -21 vvcurveto
          -25 13 -35 18 -30 vhcurveto
          128 hlineto
          26 20 2 25 hhcurveto
          -24 -1 -16 -25 vvcurveto
          endchar
        </CharString>
        <CharString name="foursuperior">
          -146 391 101 hstem
          213 118 vstem
          213 322 -89 callsubr
        </CharString>
        <CharString name="fraction">
          -288 0 -20 hstem
          -122 521 vstem
          -122 hmoveto
          -47 callgsubr
          endchar
        </CharString>
        <CharString name="g">
          -31 -221 111 100 39 callgsubr
          143 145 hintmask 00000000
          hintmask 11101100
          33 248 rmoveto
          -152 58 -106 122 43 40 16 25 33 vhcurveto
          -34 vlineto
          -64 -27 -43 -77 -43 -50 11 19 -42 vhcurveto
          -21 -24 -16 -49 -35 vvcurveto
          -19 51 72 -14 63 hhcurveto
          79 67 23 49 39 hvcurveto
          31 40 19 58 137 vvcurveto
          269 vlineto
          hintmask 11011100
          32 11 30 17 13 vhcurveto
          -4 26 -23 36 -19 14 -40 -2 -30 -15 -21 -23 rrcurveto
          hintmask 11101100
          26 -30 -43 21 -59 hhcurveto
          -107 -93 -92 -173 hvcurveto
          296 110 rmoveto
          -211 vlineto
          -25 -24 -28 -12 -27 hhcurveto
          -37 -27 41 96 97 23 57 50 21 25 -12 -23 24 hvcurveto
          endchar
        </CharString>
        <CharString name="g.smcp">
          19 -15 113 99 122 125 121 hstem
          33 154 211 139 vstem
          298 317 rmoveto
          -5 -14 -3 -24 -22 vvcurveto
          -41 24 -19 44 vhcurveto
          42 hlineto
          -2 -30 0 -26 0 vvcurveto
          -37 vlineto
          -4 -21 -23 -2 -24 hhcurveto
          -98 -45 57 116 114 50 59 86 51 48 -14 -25 48 hvcurveto
          29 19 26 52 3 39 rrcurveto
          29 -55 -79 21 -79 hhcurveto
          -150 -132 -89 -204 -166 76 -121 194 86 101 17 16 47 hvcurveto
          220 vlineto
          52 -23 29 -74 -49 -46 0 -2 -47 vhcurveto
          endchar
        </CharString>
        <CharString name="germandbls">
          -81 callgsubr
        </CharString>
        <CharString name="germandbls.cap">
          -81 callgsubr
        </CharString>
        <CharString name="germandbls.cap_smcp">
          34 -13 109 159 111 91 109 hstemhm
          90 151 144 13 callsubr
          hintmask 11111000
          90 hmoveto
          -4 22 29 -2 24 hhcurveto
          26 26 2 4 24 hvcurveto
          385 vlineto
          44 22 28 50 48 24 -33 -39 -5 0 -5 -1 -4 vhcurveto
          -42 -20 -24 -38 -36 vvcurveto
          -33 18 -20 32 -28 vhcurveto
          32 -29 rlineto
          19 -17 5 -12 -12 vvcurveto
          -17 -14 -13 -27 -16 -21 3 10 -20 vhcurveto
          -22 -23 -16 -47 -1 -31 rrcurveto
          -14 34 46 -7 37 hhcurveto
          100 74 51 79 35 -11 32 -44 44 hvcurveto
          -27 26 rlineto
          -11 10 -7 9 12 vvcurveto
          21 19 18 32 11 vhcurveto
          5 19 2 21 16 vvcurveto
          104 -89 71 -135 -132 -90 -55 -109 vhcurveto
          -36 vlineto
          -77 1 rlineto
          -4 -16 -2 -23 -16 vvcurveto
          -16 2 -24 4 -17 vhcurveto
          77 1 rlineto
          endchar
        </CharString>
        <CharString name="germandbls.smcp">
          448 17 callgsubr
          hstemhm
          35 54 callsubr
          60 54 callsubr
          hintmask 11110000
          -95 callgsubr
          hintmask 11001100
          507 hmoveto
          -102 callsubr
          endchar
        </CharString>
        <CharString name="grave">
          540 225 hstem
          54 245 vstem
          145 765 -68 callsubr
        </CharString>
        <CharString name="grave.cap">
          727 207 hstem
          50 280 vstem
          109 934 -58 callsubr
        </CharString>
        <CharString name="greater">
          -36 553 -20 hstem
          329 156 vstem
          478 242 rmoveto
          10 34 -1 47 -9 32 -356 198 rcurveline
          -35 -19 -29 -51 -4 -47 191 -98 rcurveline
          20 -11 43 -18 21 -7 rrcurveto
          -7 vlineto
          -21 -7 -43 -18 -20 -11 -191 -98 rcurveline
          2 -47 28 -48 37 -20 rrcurveto
          endchar
        </CharString>
        <CharString name="guillemotleft">
          43 27 459 hstemhm
          24 291 -29 291 hintmask 10100000
          573 410 -48 callsubr
          hintmask 11000000
          -138 152 -48 callsubr
          endchar
        </CharString>
        <CharString name="guillemotright">
          43 27 459 hstemhm
          32 292 -30 292 hintmask 11000000
          36 103 -48 callgsubr
          hintmask 10100000
          138 -153 -48 callgsubr
          endchar
        </CharString>
        <CharString name="guilsinglleft">
          -219 27 459 hstem
          24 291 vstem
          311 410 -48 callsubr
          endchar
        </CharString>
        <CharString name="guilsinglright">
          -219 27 459 hstem
          32 292 vstem
          36 103 -48 callgsubr
          endchar
        </CharString>
        <CharString name="h">
          -23 507 -20 hstem
          62 146 82 callsubr
          484 331 rmoveto
          103 -48 73 -91 -54 -45 -25 -32 -38 vhcurveto
          196 vlineto
          -23 callgsubr
          -729 -31 callgsubr
        </CharString>
        <CharString name="h.smcp">
          64 224 123 203 -20 hstem
          73 152 181 66 callsubr
          406 hmoveto
          -5 25 11 callsubr
          550 vlineto
          40 callsubr
          -145 vlineto
          -22 1 -16 -21 vvcurveto
          -14 -17 1 -13 hhcurveto
          -95 hlineto
          -13 -18 -1 -13 hhcurveto
          21 1 16 22 vvcurveto
          145 37 callgsubr
          -550 vlineto
          -24 callsubr
          166 2 callgsubr
          endchar
        </CharString>
        <CharString name="hbar">
          -20 507 -20 73 93 hstem
          65 146 82 callsubr
          487 331 rmoveto
          103 -48 73 -91 -54 -45 -25 -32 -38 vhcurveto
          111 vlineto
          146 -2 rlineto
          5 17 1 13 18 vvcurveto
          17 -1 11 -5 18 vhcurveto
          -146 -2 rlineto
          62 -1 -23 23 -57 hhcurveto
          -58 -28 callgsubr
          -77 vlineto
          -74 1 rlineto
          -4 -18 -2 -11 -17 vvcurveto
          -18 2 -13 4 -17 vhcurveto
          74 1 rlineto
          -560 -31 callgsubr
        </CharString>
        <CharString name="hbar.smcp">
          72 220 121 60 149 hstem
          77 152 181 66 callsubr
          229 hmoveto
          162 2 callgsubr
          -162 vlineto
          -5 25 11 callsubr
          401 59 vlineto
          4 15 2 71 callgsubr
          13 -2 14 -4 15 vhcurveto
          -59 60 hlineto
          40 callsubr
          -60 -181 60 37 callgsubr
          -60 -58 vlineto
          -5 -15 -2 -18 -11 vvcurveto
          -12 2 -18 5 -15 vhcurveto
          58 -401 hlineto
          -24 callsubr
          138 341 rmoveto
          -95 hlineto
          -13 -18 -1 -13 hhcurveto
          20 1 19 22 vvcurveto
          181 hlineto
          -22 1 -19 -20 vvcurveto
          -14 -17 1 -13 hhcurveto
          endchar
        </CharString>
        <CharString name="hyphen">
          -28 callsubr
        </CharString>
        <CharString name="i">
          -272 -62 0 245 199 endchar
        </CharString>
        <CharString name="i.smcp">
          18 callgsubr
          hstem
          76 66 callsubr
          -82 callsubr
          endchar
        </CharString>
        <CharString name="iacute">
          -3 callsubr
          63 20 callgsubr
          40 245 -207 149 -89 callgsubr
          hintmask 00110000
          -187 598 -99 callsubr
        </CharString>
        <CharString name="iacute.smcp">
          18 callgsubr
          62 20 callgsubr
          62 245 -231 -51 callsubr
          -14 100 -99 callsubr
        </CharString>
        <CharString name="icircumflex">
          -3 callsubr
          67 200 hstemhm
          -28 320 -214 149 -89 callgsubr
          hintmask 00110000
          551 vmoveto
          -90 callsubr
        </CharString>
        <CharString name="icircumflex.smcp">
          18 callgsubr
          66 200 hstemhm
          -6 320 -238 -51 callsubr
          173 53 -87 callsubr
        </CharString>
        <CharString name="idieresis">
          -3 callsubr
          97 96 hstemhm
          -40 134 -16 149 -67 133 -89 callgsubr
          hintmask 00110100
          -67 622 -107 callgsubr
        </CharString>
        <CharString name="idieresis.smcp">
          18 callgsubr
          96 96 hstemhm
          -18 134 -40 151 -45 133 -72 callsubr
          hintmask 01101000
          106 124 -107 callgsubr
        </CharString>
        <CharString name="igrave">
          -3 callsubr
          63 20 callgsubr
          -14 245 -153 149 -89 callgsubr
          hintmask 00110000
          -150 765 -68 callsubr
        </CharString>
        <CharString name="igrave.smcp">
          18 callgsubr
          62 20 callgsubr
          9 245 -178 -51 callsubr
          24 267 -68 callsubr
        </CharString>
        <CharString name="ij">
          21 2 callsubr
          108 112 hstemhm
          54 155 -125 149 146 42 callsubr
          hintmask 00100100
          233 387 rmoveto
          hintmask 01000100
          -95 callsubr
          hintmask 00011000
          -179 641 -91 callsubr
          hintmask 00000000
          472 -254 rmoveto
          hintmask 10100010
          -82 callgsubr
          hintmask 11000010
          -38 callgsubr
        </CharString>
        <CharString name="ij.smcp">
          162 55 callgsubr
          hstemhm
          76 151 288 152 hintmask 01100000
          -82 callsubr
          hintmask 11010000
          279 -416 -62 callsubr
          endchar
        </CharString>
        <CharString name="itilde">
          -3 callsubr
          77 35 callsubr
          -56 374 -240 149 -89 callgsubr
          hintmask 00000000
          -94 572 -92 callsubr
          hintmask 00110000
          -94 callsubr
        </CharString>
        <CharString name="itilde.smcp">
          18 callgsubr
          76 35 callsubr
          -34 374 -264 151 -72 callsubr
          hintmask 00000000
          79 74 -92 callsubr
          hintmask 01100000
          -94 callsubr
        </CharString>
        <CharString name="j">
          -265 2 callsubr
          108 112 hstemhm
          58 155 -120 42 callsubr
          hintmask 10100100
          240 -43 callgsubr
          -38 callgsubr
        </CharString>
        <CharString name="j.smcp">
          -140 55 callgsubr
          hstem
          212 58 callsubr
          52 134 -62 callsubr
          endchar
        </CharString>
        <CharString name="jcircumflex">
          -275 2 callsubr
          67 200 hstemhm
          -27 320 -208 42 callsubr
          hintmask 10100100
          232 -43 callgsubr
          -4 524 -87 callsubr
        </CharString>
        <CharString name="jcircumflex.smcp">
          -140 55 callgsubr
          66 200 hstemhm
          129 320 -237 152 hintmask 11001000
          52 134 -62 callsubr
          hintmask 00110000
          332 469 -87 callsubr
        </CharString>
        <CharString name="k">
          -46 202 84 callgsubr
          hstem
          62 146 vstem
          -67 callgsubr
          endchar
        </CharString>
        <CharString name="k.smcp">
          6 223 46 callsubr
          hintmask 00000000
          hintmask 10110000
          -65 callgsubr
          hlineto
          hintmask 11010000
          -41 callsubr
          endchar
        </CharString>
        <CharString name="kcommaaccent">
          -46 -27 callsubr
          253 84 callgsubr
          hstemhm
          62 146 18 129 hintmask 00011100
          -67 callgsubr
          hintmask 11100010
          -120 -182 -94 callgsubr
        </CharString>
        <CharString name="kcommaaccent.smcp">
          -1 -27 callsubr
          274 46 callsubr
          22 129 hintmask 00000000
          hintmask 00010110
          -65 callgsubr
          hlineto
          hintmask 00011010
          -41 callsubr
          hintmask 11100001
          -192 -96 -94 callgsubr
        </CharString>
        <CharString name="kgreenlandic">
          -46 202 84 callgsubr
          3 -20 hstemhm
          62 56 callsubr
          hintmask 11010000
          -59 callgsubr
          hlineto
          hintmask 10110000
          91 vlineto
          -23 callgsubr
          -498 -62 callgsubr
          endchar
        </CharString>
        <CharString name="kgreenlandic.smcp">
          6 223 120 214 -20 hstem
          73 58 callsubr
          -65 callgsubr
          124 hlineto
          66 -22 61 callsubr
          -64 -28 callgsubr
          -550 vlineto
          -4 22 30 85 callgsubr
          28 2 4 21 -12 callsubr
          endchar
        </CharString>
        <CharString name="l">
          -255 -5 69 callgsubr
          61 146 vstem
          -32 callgsubr
          endchar
        </CharString>
        <CharString name="l.smcp">
          -86 -3 126 432 -20 hstem
          72 66 callsubr
          -32 callsubr
          endchar
        </CharString>
        <CharString name="ldot">
          -171 -5 114 196 60 callgsubr
          61 146 49 141 hintmask 10100000
          -32 callgsubr
          hintmask 01010000
          -22 253 -63 callsubr
        </CharString>
        <CharString name="ldot.smcp">
          -76 -3 126 143 113 176 -20 hstemhm
          72 151 86 141 hintmask 10110000
          -32 callsubr
          hintmask 01001000
          -150 200 -63 callsubr
        </CharString>
        <CharString name="less">
          -36 551 -20 hstem
          45 156 vstem
          52 354 rmoveto
          -10 -34 1 -46 9 -33 356 -197 rcurveline
          35 19 29 51 4 46 -191 99 rcurveline
          -20 11 -43 17 -21 7 rrcurveto
          8 vlineto
          21 7 43 18 20 11 191 98 rcurveline
          -2 47 -28 48 -37 20 rrcurveto
          endchar
        </CharString>
        <CharString name="logicalnot">
          -36 244 68 callsubr
          350 128 vstem
          48 364 rmoveto
          -5 -21 -1 -26 -13 vvcurveto
          -13 1 -27 5 -20 vhcurveto
          238 hlineto
          23 20 1 22 hhcurveto
          -20 -1 -21 -20 vvcurveto
          -61 vlineto
          -4 25 20 59 callsubr
          22 20 1 4 20 hvcurveto
          234 vlineto
          -7 7 rlineto
          endchar
        </CharString>
        <CharString name="lslash">
          -206 -5 114 388 -20 hstem
          97 144 vstem
          284 109 rmoveto
          -30 -13 16 31 hvcurveto
          184 vlineto
          89 44 7 39 -1 42 -9 26 rlinecurve
          -11 6 -75 -38 rlineto
          187 vlineto
          66 -22 29 callsubr
          -341 vlineto
          -81 -40 -8 -38 1 -42 9 -27 rlinecurve
          11 -5 68 33 rlineto
          -140 vlineto
          -92 33 -42 87 37 38 5 5 29 vhcurveto
          3 34 callgsubr
          24 -5 26 -7 21 vhcurveto
          endchar
        </CharString>
        <CharString name="lslash.smcp">
          -67 -3 126 432 -20 hstem
          90 66 callsubr
          241 461 rmoveto
          67 -29 27 -58 vhcurveto
          -58 hlineto
          38 callsubr
          -230 vlineto
          -71 -21 -7 -37 0 -47 10 -24 rlinecurve
          11 -5 57 18 rlineto
          -120 vlineto
          -53 34 -33 54 vhcurveto
          198 hlineto
          55 34 6 callsubr
          -144 hlineto
          -26 -32 -2 -3 -34 hvcurveto
          128 vlineto
          138 44 8 37 -1 47 -9 23 rlinecurve
          -11 5 -125 -41 rlineto
          endchar
        </CharString>
        <CharString name="m">
          241 374 133 hstemhm
          62 149 119 149 119 149 cntrmask 01110000
          hintmask 00000000
          hintmask 11110000
          330 302 rmoveto
          -302 -29 callsubr
          335 vlineto
          23 23 26 16 21 hhcurveto
          24 25 -15 -56 -21 callsubr
          -17 26 -7 34 39 vvcurveto
          225 vlineto
          91 -44 68 -88 -55 -57 -31 -39 -43 vhcurveto
          43 -22 -40 27 -55 hhcurveto
          -52 -46 -29 -36 -40 hvcurveto
          39 -11 -27 24 -42 callsubr
          336 vlineto
          23 22 26 15 23 1 rrcurveto
          24 23 -16 -56 hvcurveto
          endchar
        </CharString>
        <CharString name="m.smcp">
          190 2 -20 102 121 198 147 hstem
          53 650 vstem
          53 2 rmoveto
          -5 20 27 -3 29 hhcurveto
          22 26 2 4 20 hvcurveto
          14 188 rlineto
          6 67 -2 93 55 vvcurveto
          7 hlineto
          78 -319 rlineto
          -3 20 36 -2 21 hhcurveto
          21 35 2 3 22 hvcurveto
          79 319 rlineto
          6 hlineto
          1 -55 -3 -93 5 -66 16 -189 rcurveline
          -4 20 27 -2 22 hhcurveto
          29 26 3 5 20 hvcurveto
          -56 548 rlineto
          6 -29 -42 2 -25 hhcurveto
          -24 -40 -2 -6 -30 hvcurveto
          -52 -222 -7 -26 -10 -49 -7 -48 rlinecurve
          -6 hlineto
          -8 48 -9 50 -7 25 -53 222 rcurveline
          6 -25 -44 65 callgsubr
          -25 -41 -2 -6 -30 hvcurveto
          endchar
        </CharString>
        <CharString name="macron">
          572 108 hstemhm
          48 303 54 callgsubr
          351 572 rmoveto
          5 19 2 15 22 vvcurveto
          21 -2 11 -5 20 vhcurveto
          -303 hlineto
          -6 -20 -2 -15 -19 vvcurveto
          -21 2 -14 6 -19 vhcurveto
          endchar
        </CharString>
        <CharString name="mu">
          -14 -198 -21 210 125 382 -20 hstem
          61 148 129 149 vstem
          487 498 rmoveto
          -4 callsubr
          -20 hvcurveto
          -346 vlineto
          -23 -19 -22 -13 -27 hhcurveto
          -42 -19 31 46 hvcurveto
          305 vlineto
          4 -22 -26 2 6 callgsubr
          -28 -2 -4 -21 hvcurveto
          -587 vlineto
          -24 -3 -47 -20 -29 vhcurveto
          -19 25 29 -11 36 hhcurveto
          61 10 42 59 hvcurveto
          123 vlineto
          -9 16 18 -5 20 hhcurveto
          48 37 24 36 23 hvcurveto
          22 -35 36 -22 49 -8 callsubr
          30 33 vvcurveto
          endchar
        </CharString>
        <CharString name="multiply">
          -36 504 -20 hstem
          59 411 vstem
          224 171 rmoveto
          40 41 42 -41 76 -78 19 9 19 12 14 15 rlinecurve
          15 15 12 17 9 19 -78 78 rcurveline
          -41 40 41 41 78 78 -9 18 -13 18 -15 15 rlinecurve
          -15 15 -17 12 -19 9 -76 -78 rcurveline
          -15 -15 -13 -14 -14 -13 -40 42 rcurveline
          -78 78 -19 -8 -17 -13 -15 -15 rlinecurve
          -15 -14 -13 -19 -8 -18 78 -77 rcurveline
          42 -42 -42 -41 -78 -77 8 -19 14 -17 14 -15 rlinecurve
          15 -14 17 -13 19 -9 rrcurveto
          endchar
        </CharString>
        <CharString name="n">
          55 callsubr
          hstemhm
          62 149 127 33 callsubr
          hintmask 01110000
          -7 callsubr
          hintmask 10110000
          -70 callgsubr
          endchar
        </CharString>
        <CharString name="n.smcp">
          32 callgsubr
          hstemhm
          73 139 210 142 hintmask 00000000
          hintmask 01110000
          -57 callgsubr
          hintmask 10110000
          -87 callgsubr
          endchar
        </CharString>
        <CharString name="nacute">
          -19 83 0 110 194 endchar
        </CharString>
        <CharString name="nacute.smcp">
          32 callgsubr
          55 20 callgsubr
          73 139 18 245 -53 -88 callgsubr
          hintmask 00101000
          -334 100 -99 callsubr
        </CharString>
        <CharString name="nbspace">
          -346 0 0 32 32 endchar
        </CharString>
        <CharString name="ncaron">
          55 callsubr
          174 -20 hstemhm
          62 149 -92 322 -103 33 callsubr
          hintmask 01010100
          -7 callsubr
          hintmask 10010100
          -70 callgsubr
          hintmask 00000000
          -303 625 -93 callsubr
        </CharString>
        <CharString name="ncaron.smcp">
          32 callgsubr
          176 -20 hstemhm
          73 139 -52 322 -60 -88 callgsubr
          hintmask 00000000
          -339 250 -93 callsubr
        </CharString>
        <CharString name="nine">
          -36 -15 117 111 119 220 111 hstem
          34 147 160 155 vstem
          259 663 rmoveto
          -123 -102 -84 -148 -153 73 -65 108 50 42 17 25 33 hvcurveto
          -92 -5 -37 -61 -86 hhcurveto
          -40 -34 9 11 -26 hvcurveto
          -29 -23 -17 -41 -2 -38 rrcurveto
          -21 40 54 -14 66 hhcurveto
          173 99 130 213 181 -48 55 -18 25 hvcurveto
          24 -19 -50 50 -102 hhcurveto
          -5 -331 rmoveto
          -46 -27 30 79 64 23 47 53 26 17 -13 -15 11 hvcurveto
          21 -26 9 -52 -68 vvcurveto
          -11 vlineto
          -23 -27 -29 -12 -31 hhcurveto
          endchar
        </CharString>
        <CharString name="nine.smcp">
          -84 -15 109 94 110 162 105 hstem
          35 143 121 150 vstem
          236 565 rmoveto
          -113 -88 -71 -128 -105 47 -73 111 40 35 10 18 31 hvcurveto
          -76 -4 -30 -46 -70 hhcurveto
          -34 -35 10 7 -22 hvcurveto
          -25 -23 -16 -34 -5 -39 rrcurveto
          -17 36 61 -13 48 hhcurveto
          156 90 105 179 100 -13 90 -58 56 hvcurveto
          32 -32 -47 18 -63 hhcurveto
          -4 -267 rmoveto
          -36 -18 29 54 52 20 27 37 22 14 -11 -12 9 hvcurveto
          13 -18 7 -35 -51 vvcurveto
          -16 vlineto
          -11 -21 -24 -8 -23 hhcurveto
          endchar
        </CharString>
        <CharString name="ntilde">
          55 callsubr
          67 35 callsubr
          62 149 -118 374 -129 33 callsubr
          hintmask 01010100
          -7 callsubr
          hintmask 10010100
          -70 callgsubr
          hintmask 00000000
          -205 449 -99 callgsubr
        </CharString>
        <CharString name="ntilde.smcp">
          32 callgsubr
          69 35 callsubr
          73 139 -78 374 -86 -88 callgsubr
          hintmask 00000000
          -241 74 -99 callgsubr
        </CharString>
        <CharString name="numbersign">
          142 1 11 123 118 156 118 123 10 hstem
          19 674 vstem
          461 527 rmoveto
          -120 46 callgsubr
          -28 -123 rlineto
          -131 75 callgsubr
          105 hlineto
          -35 -156 rlineto
          -122 75 callgsubr
          95 25 callsubr
          120 25 callsubr
          128 74 callgsubr
          -101 hlineto
          35 156 rlineto
          119 74 callgsubr
          -93 46 callgsubr
          -174 -241 rmoveto
          120 hlineto
          -35 -156 rlineto
          -120 hlineto
          endchar
        </CharString>
        <CharString name="o">
          31 callsubr
          hstem
          32 153 152 20 callsubr
          -79 callsubr
          endchar
        </CharString>
        <CharString name="o.smcp">
          -11 callgsubr
          hstem
          33 154 230 155 vstem
          -101 callgsubr
          endchar
        </CharString>
        <CharString name="oacute">
          31 callsubr
          85 callsubr
          32 153 -16 245 -77 153 hintmask 11010100
          -79 callsubr
          hintmask 00101000
          -16 349 -99 callsubr
        </CharString>
        <CharString name="oacute.smcp">
          -11 callgsubr
          42 callgsubr
          23 245 -38 -90 callgsubr
          hintmask 00101000
          177 376 -99 callsubr
        </CharString>
        <CharString name="ocircumflex">
          84 callsubr
          195 endchar
        </CharString>
        <CharString name="ocircumflex.smcp">
          -11 callgsubr
          31 200 15 callsubr
          -44 320 -46 -90 callgsubr
          hintmask 00101000
          365 329 -87 callsubr
        </CharString>
        <CharString name="odieresis">
          84 callsubr
          200 endchar
        </CharString>
        <CharString name="odieresis.smcp">
          -11 callgsubr
          61 96 15 callsubr
          -56 -1 callgsubr
          -47 155 hintmask 11010010
          -101 callgsubr
          hintmask 00101100
          298 400 -107 callgsubr
        </CharString>
        <CharString name="oe">
          238 -15 112 -112 115 101 103 98 111 -106 106 hstemhm
          32 153 152 159 138 81 callsubr
          hintmask 10101111
          760 90 callgsubr
          8 33 4 18 callsubr
          -74 92 -132 -71 -48 -24 -40 -32 vhcurveto
          40 -35 -50 24 -69 hhcurveto
          -62 -54 -18 -40 -41 hvcurveto
          -54 -53 -18 -66 -87 vvcurveto
          -86 18 -67 54 -52 vhcurveto
          -41 41 54 -18 62 hhcurveto
          68 49 23 37 34 hvcurveto
          hintmask 01101111
          -37 31 48 -23 74 hhcurveto
          71 73 21 37 50 hvcurveto
          -5 29 -13 37 -23 22 rrcurveto
          -17 -40 -43 -14 -46 hhcurveto
          -69 -19 44 57 -4 hvcurveto
          hintmask 10110111
          -312 48 rmoveto
          -30 callsubr
          hintmask 10101111
          381 158 rmoveto
          50 18 -42 -50 hvcurveto
          -11 -138 vlineto
          69 4 19 34 47 hhcurveto
          endchar
        </CharString>
        <CharString name="oe.smcp">
          277 -2 122 98 118 93 121 hstem
          392 144 vstem
          807 87 callsubr
          -203 hlineto
          -29 -17 -2 -1 -23 hvcurveto
          17 1 28 16 vvcurveto
          40 63 vlineto
          136 hlineto
          6 18 2 25 18 vvcurveto
          15 -2 25 -6 17 vhcurveto
          -136 hlineto
          -13 -25 0 -1 -25 hvcurveto
          36 vlineto
          16 -1 26 16 vvcurveto
          64 hlineto
          182 14 callsubr
          23 -33 callgsubr
          -337 hlineto
          7 -44 -55 8 -47 hhcurveto
          -82 -51 -22 -30 -41 hvcurveto
          -76 -56 -22 -97 -84 vvcurveto
          -83 22 -100 76 -55 vhcurveto
          -31 41 51 -22 82 hhcurveto
          42 52 6 7 43 hvcurveto
          271 hlineto
          55 28 25 47 86 callsubr
          0 71 callgsubr
          -502 -20 rmoveto
          -101 -15 97 79 78 15 97 101 28 30 -6 -8 29 hvcurveto
          -324 vlineto
          -8 -29 -30 -5 -28 hhcurveto
          endchar
        </CharString>
        <CharString name="ograve">
          84 callsubr
          193 endchar
        </CharString>
        <CharString name="ograve.smcp">
          -11 callgsubr
          42 callgsubr
          -30 245 15 -90 callgsubr
          hintmask 00101000
          215 543 -68 callsubr
        </CharString>
        <CharString name="one">
          -36 0 122 526 -20 hstem
          222 145 vstem
          32 447 rmoveto
          6 -37 27 -36 30 -13 45 19 51 33 38 43 rrcurveto
          -2 -42 -5 -48 -27 vvcurveto
          -145 vlineto
          -24 1 -24 -25 vvcurveto
          -15 -34 1 -14 hhcurveto
          -83 hlineto
          -4 -18 -3 -23 -20 vvcurveto
          -20 3 -22 4 -19 vhcurveto
          412 hlineto
          5 19 2 22 20 vvcurveto
          20 -2 23 -5 18 vhcurveto
          -56 hlineto
          -15 -36 -1 -16 hhcurveto
          25 1 24 24 vvcurveto
          454 vlineto
          5 -26 -23 1 -21 hhcurveto
          -21 -23 -1 -5 -26 hvcurveto
          -35 -74 -60 -65 -100 -62 rrcurveto
          endchar
        </CharString>
        <CharString name="one.smcp">
          -84 0 118 432 -20 hstem
          196 144 vstem
          31 384 rmoveto
          5 -35 24 -37 30 -14 44 19 39 25 31 33 rrcurveto
          -3 -34 -5 -36 -22 vvcurveto
          -104 vlineto
          -20 1 -23 -20 vvcurveto
          -15 -32 2 -13 hhcurveto
          -66 hlineto
          -4 -17 -3 -23 -19 vvcurveto
          -20 3 -21 4 -18 vhcurveto
          372 hlineto
          4 17 2 22 20 vvcurveto
          19 -2 23 -4 17 vhcurveto
          -40 hlineto
          -13 -38 -2 -13 hhcurveto
          20 1 23 20 vvcurveto
          371 vlineto
          4 -24 -22 1 -21 hhcurveto
          -21 -26 -1 66 callgsubr
          -35 -67 -46 -47 -90 -52 rrcurveto
          endchar
        </CharString>
        <CharString name="onehalf">
          474 0 -20 25 109 123 107 -1 -20 28 111 hstemhm
          161 121 -2 521 53 130 hintmask 10000010
          280 hmoveto
          -47 callgsubr
          hintmask 00100100
          -631 -146 -78 callgsubr
          hintmask 00000000
          969 -423 0 callgsubr
          hintmask 01010001
          80 -61 60 -95 vhcurveto
          hintmask 01011001
          -81 -59 -54 -65 -14 hvcurveto
          hintmask 01010001
          -30 callgsubr
          hintmask 01011001
          80 callsubr
        </CharString>
        <CharString name="onequarter">
          474 0 -20 97 101 59 107 hstemhm
          161 121 10 521 18 118 hintmask 00110000
          27 537 -78 callgsubr
          hintmask 10001000
          265 -537 rmoveto
          -47 callgsubr
          hintmask 01000100
          161 -675 -89 callsubr
        </CharString>
        <CharString name="onesuperior">
          -146 322 107 hstem
          171 121 vstem
          37 622 -78 callgsubr
          endchar
        </CharString>
        <CharString name="ordfeminine">
          -113 274 91 90 79 70 94 hstem
          39 120 99 129 vstem
          414 344 rmoveto
          -20 11 -7 20 27 vvcurveto
          158 vlineto
          100 -74 38 -71 -55 -75 -15 -22 -53 vhcurveto
          2 -30 10 -31 18 -20 rrcurveto
          14 45 35 10 39 hhcurveto
          24 26 -14 -34 hvcurveto
          -25 vlineto
          2 -22 -21 1 -16 hhcurveto
          -88 -72 -42 -95 -64 46 -59 80 49 38 22 25 30 hvcurveto
          19 -26 30 -15 37 -1 23 12 20 29 3 24 rrcurveto
          -213 21 rmoveto
          -25 -17 18 21 31 17 20 34 14 17 -1 -1 17 hvcurveto
          -45 vlineto
          -7 0 -6 1 -6 vhcurveto
          -15 -19 -22 -9 -17 hhcurveto
          endchar
        </CharString>
        <CharString name="ordmasculine">
          -116 273 94 237 94 hstem
          40 124 122 123 vstem
          409 486 rmoveto
          64 -16 58 -43 45 vhcurveto
          30 -31 -45 15 -49 hhcurveto
          -51 -43 -15 -30 -31 hvcurveto
          -44 -45 -16 -58 -64 vvcurveto
          -65 16 -59 44 -44 vhcurveto
          -30 31 43 -15 51 hhcurveto
          49 45 15 30 31 hvcurveto
          43 44 16 59 65 vvcurveto
          -245 hmoveto
          69 15 49 46 46 15 -49 -69 -70 -15 -49 -46 -46 -15 49 70 vhcurveto
          endchar
        </CharString>
        <CharString name="oslash">
          -41 -15 106 317 105 -13 -20 79 -20 hstemhm
          34 138 181 81 callsubr
          hintmask 11011100
          491 250 rmoveto
          78 -17 74 -54 53 vhcurveto
          36 63 -20 21 -28 13 -27 7 rlinecurve
          hintmask 10111100
          -34 -59 rlineto
          hintmask 11011100
          9 -26 -29 4 -30 hhcurveto
          -62 -55 -18 -40 -41 hvcurveto
          -53 -53 -17 -74 -78 vvcurveto
          -78 17 -76 52 -52 vhcurveto
          -36 -62 18 -21 29 -15 28 -6 rlinecurve
          34 59 rlineto
          -10 26 29 -4 31 hhcurveto
          63 55 18 41 40 hvcurveto
          54 52 17 76 78 vvcurveto
          -138 hmoveto
          -81 -14 -78 -76 -13 -10 2 4 -10 vhcurveto
          118 224 rlineto
          4 -22 1 -25 -24 vvcurveto
          -181 hmoveto
          81 14 77 77 12 10 -2 -4 9 vhcurveto
          -117 -223 rlineto
          -4 22 -1 24 25 vvcurveto
          endchar
        </CharString>
        <CharString name="oslash.smcp">
          38 -15 103 -82 -20 477 102 hstemhm
          33 146 246 42 callsubr
          hintmask 10111000
          33 274 rmoveto
          hintmask 01111000
          -69 15 -79 47 -57 vhcurveto
          -45 -63 rlineto
          hintmask 10111000
          16 -23 32 -22 28 -9 43 59 rcurveline
          -16 34 41 -10 58 hhcurveto
          82 49 19 31 40 hvcurveto
          75 57 24 99 83 vvcurveto
          72 -17 81 -50 58 vhcurveto
          45 63 -19 25 -30 20 -27 10 rlinecurve
          -45 -62 rlineto
          15 -32 -40 9 -55 -55 callgsubr
          392 hmoveto
          -83 -17 -103 -106 -27 -21 6 12 -17 vhcurveto
          179 254 rlineto
          7 -28 2 -31 -27 vvcurveto
          -246 hmoveto
          83 18 106 105 24 20 -6 -10 16 vhcurveto
          -176 -251 rlineto
          -6 25 -1 27 26 vvcurveto
          endchar
        </CharString>
        <CharString name="otilde">
          31 callsubr
          41 35 callsubr
          32 153 -111 374 -111 153 hintmask 11010100
          -79 callsubr
          hintmask 00000000
          78 323 -99 callgsubr
        </CharString>
        <CharString name="otilde.smcp">
          -11 callgsubr
          41 114 15 callsubr
          -72 374 -72 -90 callgsubr
          hintmask 00000000
          271 350 -99 callgsubr
        </CharString>
        <CharString name="p">
          -29 41 callgsubr
          112 291 120 -8 -20 hstemhm
          62 147 142 152 hintmask 00000000
          hintmask 01101110
          503 255 rmoveto
          hintmask 01110110
          152 -58 106 -120 -52 -47 -23 -34 -34 vhcurveto
          hintmask 01101110
          31 -17 -29 18 -37 hhcurveto
          -40 -28 callgsubr
          -707 vlineto
          7 -7 rlineto
          hintmask 10101110
          58 hlineto
          59 23 24 66 hvcurveto
          139 vlineto
          -13 28 31 -10 36 hhcurveto
          hintmask 01101110
          108 91 92 173 hvcurveto
          hintmask 01110110
          -217 138 rmoveto
          37 28 -41 -96 -96 -23 -58 -50 -21 -24 10 15 -24 hvcurveto
          224 64 callsubr
        </CharString>
        <CharString name="p.smcp">
          -35 173 112 157 113 hstem
          73 152 127 154 vstem
          506 363 rmoveto
          135 -94 57 -129 -69 -80 -3 -1 -55 vhcurveto
          -6 -6 rlineto
          -545 vlineto
          -24 callsubr
          173 58 vlineto
          129 94 61 129 hvcurveto
          -281 80 rmoveto
          -1 23 5 0 18 hhcurveto
          69 12 -46 -32 -33 -12 -46 -69 -8 -19 0 -1 -19 hvcurveto
          endchar
        </CharString>
        <CharString name="paragraph">
          174 -159 112 602 128 hstem
          277 150 61 66 callsubr
          277 63 rmoveto
          -45 -7 -24 -15 -16 vhcurveto
          -19 -17 -23 -6 -29 hhcurveto
          -32 -37 10 11 -29 hvcurveto
          -22 -29 -10 -52 -27 vvcurveto
          -12 32 56 -13 57 hhcurveto
          71 65 19 44 39 hvcurveto
          43 48 8 61 80 vvcurveto
          584 vlineto
          -7 7 rlineto
          2 -55 -43 3 -49 hhcurveto
          -141 -104 -64 -160 -154 105 -73 131 hvcurveto
          13 hlineto
          211 -369 rmoveto
          -5 24 34 -16 callsubr
          21 28 -54 callgsubr
          688 vlineto
          -1 17 18 -1 17 hhcurveto
          29 hlineto
          9 28 0 72 -9 28 rrcurveto
          -225 -28 callgsubr
          endchar
        </CharString>
        <CharString name="parenleft">
          -197 -196 1037 hstem
          59 156 vstem
          215 323 rmoveto
          146 43 166 92 128 vhcurveto
          -18 40 -34 26 -34 12 rrcurveto
          -136 -129 -69 -212 -177 vvcurveto
          -178 69 -211 136 -130 vhcurveto
          34 12 34 26 18 40 rrcurveto
          -92 128 -43 167 146 vvcurveto
          endchar
        </CharString>
        <CharString name="parenright">
          -197 -196 1037 hstem
          154 156 vstem
          154 323 rmoveto
          -146 -43 -167 -92 -128 vhcurveto
          18 -40 34 -26 34 -12 rrcurveto
          136 130 69 211 178 vvcurveto
          177 -69 212 -136 129 vhcurveto
          -34 -12 -34 -26 -18 -40 rrcurveto
          92 -128 43 -166 -146 vvcurveto
          endchar
        </CharString>
        <CharString name="percent">
          413 -13 92 -79 -20 285 92 -31 92 186 92 hstemhm
          45 121 98 121 209 120 99 121 hintmask 0000000000000000
          hintmask 0101111110000000
          934 203 rmoveto
          62 -10 67 -42 41 vhcurveto
          32 79 callgsubr
          -32 -32 hvcurveto
          -41 -41 -10 -67 -62 vvcurveto
          hintmask 1001111110000000
          -63 9 -67 42 -42 vhcurveto
          -32 31 40 -12 48 hhcurveto
          48 39 12 32 31 hvcurveto
          hintmask 0101111110000000
          43 42 9 67 63 vvcurveto
          hintmask 1001111110000000
          -220 hmoveto
          68 6 47 callgsubr
          -6 56 68 vhcurveto
          -329 278 rmoveto
          63 -10 66 -42 42 vhcurveto
          31 79 callgsubr
          -31 -32 hvcurveto
          -41 -42 -10 -66 -63 vvcurveto
          hintmask 0110111110000000
          -63 9 -67 42 -41 vhcurveto
          -32 31 40 -13 48 hhcurveto
          48 40 13 32 30 hvcurveto
          hintmask 1001111110000000
          43 41 9 67 63 vvcurveto
          hintmask 0110111110000000
          -219 hmoveto
          68 5 47 callgsubr
          -5 56 68 vhcurveto
          62 -481 rmoveto
          -47 callgsubr
          endchar
        </CharString>
        <CharString name="period">
          -283 7 118 hstem
          54 164 vstem
          54 66 rmoveto
          -77 callgsubr
          endchar
        </CharString>
        <CharString name="periodcentered">
          -240 227 118 hstem
          81 154 vstem
          81 286 rmoveto
          -12 3 -30 8 -17 vhcurveto
          -12 18 29 -5 24 hhcurveto
          24 30 5 12 18 hvcurveto
          7 -2 callgsubr
          -7 17 vhcurveto
          11 -18 -30 7 -24 hhcurveto
          -24 -29 -7 -11 -18 hvcurveto
          -8 -17 -3 -30 -12 vvcurveto
          endchar
        </CharString>
        <CharString name="plus">
          -36 238 120 156 -20 hstem
          201 128 vstem
          201 424 rmoveto
          -24 1 -20 -23 vvcurveto
          -22 -20 1 -23 hhcurveto
          -84 hlineto
          -4 -19 -2 -19 -22 vvcurveto
          -21 2 -20 4 -19 vhcurveto
          84 hlineto
          23 20 1 22 hhcurveto
          -22 -1 -19 -23 vvcurveto
          -91 vlineto
          -4 22 22 -1 22 hhcurveto
          21 19 1 4 22 hvcurveto
          91 vlineto
          23 -1 19 22 vvcurveto
          22 19 -1 24 hhcurveto
          84 hlineto
          4 20 2 19 21 vvcurveto
          22 -2 17 -4 21 vhcurveto
          -84 hlineto
          -24 -19 -1 -22 hhcurveto
          23 1 20 24 vvcurveto
          90 vlineto
          4 -22 -21 1 -21 hhcurveto
          -22 -20 -1 -4 -22 hvcurveto
          endchar
        </CharString>
        <CharString name="plusminus">
          -36 0 112 196 108 134 -20 hstem
          203 125 vstem
          203 484 rmoveto
          -24 1 -22 -23 vvcurveto
          -22 -19 1 -23 hhcurveto
          -76 43 callsubr
          -11 -21 vvcurveto
          -21 1 -12 5 -22 vhcurveto
          76 hlineto
          23 19 1 22 hhcurveto
          -22 -1 -23 -22 vvcurveto
          -67 vlineto
          -4 21 21 59 callsubr
          20 21 1 4 21 hvcurveto
          67 vlineto
          22 -1 23 22 vvcurveto
          21 19 -1 23 hhcurveto
          76 hlineto
          5 22 1 12 21 vvcurveto
          21 -1 11 -5 21 vhcurveto
          -76 hlineto
          -23 -19 -1 -21 hhcurveto
          23 1 22 24 vvcurveto
          66 vlineto
          5 -21 -21 1 -20 hhcurveto
          -21 -21 -1 -5 -21 hvcurveto
          263 -550 rmoveto
          5 21 1 15 21 vvcurveto
          21 -1 13 -5 21 vhcurveto
          -402 43 callsubr
          -13 -21 vvcurveto
          -21 1 -15 5 -21 vhcurveto
          endchar
        </CharString>
        <CharString name="q">
          -29 41 callgsubr
          39 callgsubr
          142 56 callsubr
          hintmask 10101110
          328 -126 rmoveto
          -66 22 -24 59 vhcurveto
          58 hlineto
          7 7 rlineto
          564 vlineto
          32 10 30 18 13 vhcurveto
          -6 26 -22 36 -19 14 -40 -2 -30 -14 -21 -24 rrcurveto
          hintmask 01110110
          26 -30 -43 21 -58 hhcurveto
          -107 -93 -92 -173 -152 58 -106 122 42 40 15 24 33 hvcurveto
          -78 81 rmoveto
          -36 -28 41 96 97 23 57 50 21 24 -12 -22 24 hvcurveto
          -9 vlineto
          -212 vlineto
          -24 -23 -28 -12 -27 hhcurveto
          endchar
        </CharString>
        <CharString name="q.smcp">
          40 -118 107 -4 112 357 111 15 callsubr
          230 155 hintmask 00000000
          hintmask 10111000
          33 274 rmoveto
          hintmask 01111000
          -20 callgsubr
          55 -19 83 hhcurveto
          7 hlineto
          hintmask 10111000
          68 -60 rlineto
          -37 39 35 -6 27 hhcurveto
          53 45 36 71 3 hvcurveto
          -29 1 -47 -1 -54 44 21 12 17 15 15 18 rrcurveto
          49 57 14 68 71 -77 callsubr
          hintmask 01111000
          154 hmoveto
          -60 callsubr
          endchar
        </CharString>
        <CharString name="question">
          -149 2 130 438 128 hstemhm
          83 143 -133 121 40 156 hintmask 00000000
          hintmask 11100000
          3 641 rmoveto
          2 -38 24 -47 27 -21 rrcurveto
          hintmask 11011000
          19 36 40 16 41 hhcurveto
          54 27 -28 -41 -46 -42 -32 -57 -26 hvcurveto
          -54 -25 -12 -15 8 -149 rlineto
          -6 18 22 -2 18 hhcurveto
          18 19 2 6 17 hvcurveto
          10 80 61 32 rlineto
          74 39 56 60 99 vvcurveto
          105 -71 75 -133 -77 -71 -24 -33 -55 vhcurveto
          152 -509 rmoveto
          -27 -27 -5 -11 27 callsubr
          -10 18 27 -6 27 hhcurveto
          26 27 6 10 28 callgsubr
          11 -18 -27 5 -26 hhcurveto
          endchar
        </CharString>
        <CharString name="questiondown">
          -149 -203 128 438 130 hstemhm
          13 156 29 143 -132 121 hintmask 00000000
          hintmask 11010000
          421 -146 rmoveto
          -2 38 -24 47 -28 21 rrcurveto
          hintmask 11101000
          -19 -35 -40 -16 -41 hhcurveto
          -54 -28 28 41 46 43 32 57 27 hvcurveto
          54 24 12 15 -8 149 rlineto
          6 -18 -22 2 -18 hhcurveto
          -18 -19 -2 -6 -18 hvcurveto
          -9 -80 -61 -32 rlineto
          -74 -39 -57 -59 -99 vvcurveto
          -106 72 -75 132 78 71 24 33 55 vhcurveto
          -152 509 rmoveto
          26 28 5 11 28 callgsubr
          10 -18 -28 6 70 callgsubr
          -28 -6 -10 -17 36 callsubr
          -11 17 28 -5 26 hhcurveto
          endchar
        </CharString>
        <CharString name="quotedbl">
          -123 63 callgsubr
          42 146 67 56 callsubr
          hintmask 01010000
          255 716 rmoveto
          hintmask 10010000
          -56 callgsubr
          hintmask 00000000
          -213 hmoveto
          hintmask 01100000
          -56 callgsubr
          endchar
        </CharString>
        <CharString name="quotedblbase">
          -74 -9 131 hstemhm
          61 161 54 callgsubr
          210 122 rmoveto
          -66 callgsubr
          hintmask 00000000
          230 hmoveto
          -66 callgsubr
          endchar
        </CharString>
        <CharString name="quotedblleft">
          -74 506 131 hstemhm
          36 162 68 162 hintmask 11000000
          49 506 rmoveto
          -66 callsubr
          hintmask 10100000
          230 hmoveto
          -66 callsubr
          endchar
        </CharString>
        <CharString name="quotedblright">
          -74 557 -20 105 131 hstemhm
          66 162 68 162 hintmask 11100000
          215 773 rmoveto
          -67 callsubr
          hintmask 11010000
          230 hmoveto
          -67 callsubr
          endchar
        </CharString>
        <CharString name="quoteleft">
          -303 506 131 hstem
          39 162 vstem
          52 506 rmoveto
          -66 callsubr
          endchar
        </CharString>
        <CharString name="quoteright">
          -303 557 -20 105 131 hstem
          62 162 vstem
          211 773 rmoveto
          -67 callsubr
          endchar
        </CharString>
        <CharString name="quotesinglbase">
          -303 -9 131 hstemhm
          61 161 54 callgsubr
          210 122 rmoveto
          -66 callgsubr
          endchar
        </CharString>
        <CharString name="quotesingle">
          -329 63 callgsubr
          41 56 callsubr
          hintmask 01100000
          41 716 rmoveto
          hintmask 10100000
          -56 callgsubr
          endchar
        </CharString>
        <CharString name="r">
          -173 497 -20 hstem
          70 149 vstem
          -53 callsubr
          endchar
        </CharString>
        <CharString name="r.smcp">
          21 callsubr
          hstem
          73 150 140 154 vstem
          -100 callsubr
          endchar
        </CharString>
        <CharString name="racute">
          -173 11 0 114 194 endchar
        </CharString>
        <CharString name="racute.smcp">
          21 callsubr
          37 225 24 callgsubr
          -37 245 -68 56 callgsubr
          -100 callsubr
          hintmask 00101000
          -37 339 -99 callsubr
        </CharString>
        <CharString name="rcaron">
          -173 9 0 114 207 endchar
        </CharString>
        <CharString name="rcaron.smcp">
          21 callsubr
          158 -20 24 callgsubr
          -107 322 -75 56 callgsubr
          -100 callsubr
          hintmask 00000000
          -42 489 -93 callsubr
        </CharString>
        <CharString name="rcommaaccent">
          -173 -27 callsubr
          548 -20 hstemhm
          70 149 -121 129 hintmask 00011000
          -53 callsubr
          hintmask 11100100
          182 -488 -94 callgsubr
        </CharString>
        <CharString name="rcommaaccent.smcp">
          1 -27 callsubr
          248 115 134 109 24 callgsubr
          19 129 -8 154 hintmask 00011101
          -100 callsubr
          hintmask 11100010
          136 -370 -94 callgsubr
        </CharString>
        <CharString name="registered">
          34 199 80 159 58 51 57 60 80 hstem
          28 87 82 75 56 80 77 87 vstem
          28 471 rmoveto
          -153 119 -119 153 153 119 119 153 153 -119 120 -153 -153 -119 -120 -153 vhcurveto
          87 hmoveto
          106 78 87 107 106 79 -87 -106 -106 -79 -86 -106 -107 -78 86 106 vhcurveto
          293 59 rmoveto
          39 -27 35 -74 -33 -38 -2 -1 -36 vhcurveto
          -3 -2 rlineto
          -247 vlineto
          18 -6 39 0 18 6 rrcurveto
          86 8 vlineto
          16 5 -6 -12 7 hvcurveto
          21 -43 rlineto
          -21 11 12 -9 20 hhcurveto
          20 22 11 16 11 hvcurveto
          -10 6 -7 12 -6 11 -11 23 rcurveline
          -7 13 -9 16 -17 8 rrcurveto
          25 6 25 21 40 vvcurveto
          -136 17 rmoveto
          27 hlineto
          20 9 -12 -13 -14 -8 -12 -24 hvcurveto
          -5 -9 -1 -10 hhcurveto
          endchar
        </CharString>
        <CharString name="ring">
          542 76 63 callsubr
          669 -68 callgsubr
        </CharString>
        <CharString name="ring.cap">
          661 75 63 callsubr
          787 -22 callsubr
        </CharString>
        <CharString name="s">
          23 callgsubr
          hstem
          36 147 82 154 vstem
          -83 callsubr
          endchar
        </CharString>
        <CharString name="s.smcp">
          -59 17 callgsubr
          hstem
          35 54 callsubr
          vstem
          -95 callgsubr
          endchar
        </CharString>
        <CharString name="sacute">
          23 callgsubr
          85 callsubr
          36 147 -52 245 -111 56 callgsubr
          -83 callsubr
          hintmask 00101000
          110 563 -99 callsubr
        </CharString>
        <CharString name="sacute.smcp">
          -59 17 callgsubr
          85 callsubr
          35 158 -28 245 -90 162 hintmask 11010100
          -95 callgsubr
          hintmask 00101000
          146 608 -99 callsubr
        </CharString>
        <CharString name="scaron">
          23 callgsubr
          148 -20 hstemhm
          36 147 -122 322 -118 56 callgsubr
          -83 callsubr
          hintmask 00000000
          105 713 -93 callsubr
        </CharString>
        <CharString name="scaron.smcp">
          -59 17 callgsubr
          148 -20 hstemhm
          35 158 -97 322 -98 162 hintmask 11010100
          -95 callgsubr
          hintmask 00000000
          142 758 -93 callsubr
        </CharString>
        <CharString name="section">
          -68 -116 108 597 109 -37 -20 hstemhm
          27 143 -109 147 84 147 -109 142 hintmask 00000000
          hintmask 10110010
          472 310 rmoveto
          91 -74 46 -90 37 vhcurveto
          hintmask 11001010
          -57 24 rlineto
          -29 11 -14 12 20 vvcurveto
          23 22 15 31 38 41 -13 -16 40 vhcurveto
          hintmask 10110010
          24 18 20 48 -3 35 rrcurveto
          hintmask 11001010
          20 -43 -63 17 -60 hhcurveto
          -117 -77 -72 -87 -53 25 -38 40 -29 hvcurveto
          hintmask 10110100
          -58 -36 -41 -52 -58 vvcurveto
          -92 75 -45 89 -37 vhcurveto
          58 -24 rlineto
          28 -11 15 -14 -20 vvcurveto
          -23 -22 -15 -32 -47 -51 19 16 -36 vhcurveto
          -24 -18 -20 -48 2 -35 rrcurveto
          -27 47 68 -15 62 hhcurveto
          123 77 71 87 52 -26 40 -40 29 hvcurveto
          hintmask 10110010
          58 36 41 52 59 vvcurveto
          -238 59 rmoveto
          56 -22 40 -25 -38 vvcurveto
          -32 -22 -27 -30 -16 vhcurveto
          -12 5 rlineto
          -60 23 -36 24 38 vvcurveto
          31 22 27 29 17 vhcurveto
          endchar
        </CharString>
        <CharString name="semicolon">
          -271 -8 132 195 118 hstemhm
          60 164 -152 162 hintmask 00000000
          hintmask 10010000
          -40 callgsubr
          hintmask 01100000
          -161 254 rmoveto
          -77 callgsubr
          endchar
        </CharString>
        <CharString name="seven">
          -36 523 125 hstemhm
          46 449 -359 151 54 callgsubr
          60 648 rmoveto
          -8 -21 -6 -27 -26 vvcurveto
          -18 3 -19 5 -14 vhcurveto
          158 hlineto
          29 78 4 8 33 hvcurveto
          5 -5 -17 -16 -34 -38 -12 -17 rlinecurve
          -12 -17 rlineto
          hintmask 10100000
          -72 -95 -58 -142 -14 -158 -4 -47 rcurveline
          -4 24 27 -2 26 hhcurveto
          28 27 2 4 19 hvcurveto
          4 45 14 156 45 123 88 124 rlinecurve
          39 53 rlineto
          13 19 7 22 15 vvcurveto
          25 -14 39 -12 27 vhcurveto
          endchar
        </CharString>
        <CharString name="seven.smcp">
          -84 429 121 hstemhm
          39 414 -334 149 54 callgsubr
          53 550 rmoveto
          -8 -20 -6 -22 -26 vvcurveto
          -19 3 -19 4 -15 vhcurveto
          143 hlineto
          33 61 4 6 34 hvcurveto
          3 -5 -16 -14 -19 -19 -11 -14 rlinecurve
          -15 -17 rlineto
          hintmask 10100000
          -80 -93 -48 -108 -11 -146 -2 -23 rcurveline
          -5 23 29 -2 25 hhcurveto
          30 25 2 5 18 hvcurveto
          1 22 6 149 40 90 84 107 rlinecurve
          36 47 rlineto
          12 16 6 14 17 vvcurveto
          22 -14 39 -15 27 vhcurveto
          endchar
        </CharString>
        <CharString name="six">
          -36 -15 111 220 119 111 117 hstem
          34 155 160 147 vstem
          271 -15 rmoveto
          123 102 84 148 153 -73 65 -108 -51 -42 -17 -26 -33 hvcurveto
          92 5 37 62 87 hhcurveto
          40 34 -9 -11 26 hvcurveto
          29 23 17 41 2 38 rrcurveto
          21 -40 -54 14 -66 hhcurveto
          -173 -99 -130 -213 -181 48 -55 18 -25 hvcurveto
          -24 19 50 -50 102 hhcurveto
          5 331 rmoveto
          46 27 -30 -79 -64 -23 -47 -53 -26 -17 13 15 -11 hvcurveto
          -21 26 -9 52 68 vvcurveto
          11 vlineto
          22 26 30 13 31 hhcurveto
          endchar
        </CharString>
        <CharString name="six.smcp">
          -84 -15 105 162 110 94 109 hstem
          34 149 123 143 vstem
          247 -15 rmoveto
          114 88 72 127 106 -47 72 -112 -41 -34 -10 -19 -32 hvcurveto
          77 5 31 46 70 hhcurveto
          33 35 -9 -7 22 hvcurveto
          26 22 16 34 5 40 rrcurveto
          17 -37 -60 12 -49 hhcurveto
          -156 -90 -105 -179 -99 14 -91 57 -56 hvcurveto
          -31 33 46 -19 63 hhcurveto
          4 267 rmoveto
          37 18 -29 -54 -51 -21 -28 -36 -22 -14 11 12 -9 hvcurveto
          -13 18 -8 36 50 vvcurveto
          15 vlineto
          12 21 23 8 24 hhcurveto
          endchar
        </CharString>
        <CharString name="slash">
          -119 -118 885 hstem
          2 441 vstem
          2 -70 rmoveto
          36 -29 47 -14 44 -5 314 837 rcurveline
          -36 28 -47 15 -44 5 rrcurveto
          endchar
        </CharString>
        <CharString name="space">
          -346 endchar
        </CharString>
        <CharString name="sterling">
          -29 -2 124 134 107 178 122 hstemhm
          68 145 -92 134 hintmask 00000000
          hintmask 11110000
          412 363 rmoveto
          -58 -62 -1 -51 hhcurveto
          -13 35 -15 33 36 vvcurveto
          48 35 27 47 43 47 -22 -27 34 vhcurveto
          38 13 32 39 7 39 rrcurveto
          37 -41 -78 43 -93 hhcurveto
          -147 -69 -100 -85 -43 19 -36 16 -37 hvcurveto
          -18 -19 1 -17 hhcurveto
          -11 -27 0 -51 11 -29 rrcurveto
          hintmask 11101000
          72 hlineto
          -6 -36 -19 -31 -17 -24 -13 -20 rcurveline
          -13 -18 -5 -16 -21 vvcurveto
          -13 2 -11 15 -68 vhcurveto
          342 hlineto
          55 36 26 49 9 hvcurveto
          2 18 0 13 18 vvcurveto
          -131 hlineto
          -68 -55 -3 -4 -50 hvcurveto
          -3 3 27 37 21 49 5 53 rlinecurve
          -1 52 52 0 53 hhcurveto
          hintmask 11110000
          11 29 0 51 -11 27 rrcurveto
          endchar
        </CharString>
        <CharString name="sterling.smcp">
          -89 -2 119 103 98 130 117 hstem
          63 140 vstem
          368 318 rmoveto
          -49 -53 -1 -44 hhcurveto
          -10 24 -9 25 22 vvcurveto
          37 25 23 37 37 38 -21 -21 28 vhcurveto
          34 16 27 36 12 36 rrcurveto
          38 -39 -69 33 -83 hhcurveto
          -115 -72 -76 -81 -34 12 -30 12 -26 hvcurveto
          -39 hlineto
          -11 -25 0 -47 11 -26 rrcurveto
          57 69 callsubr
          -11 -20 -15 -25 -10 -17 rcurveline
          -11 -18 -7 -18 -17 vvcurveto
          -19 6 -21 11 -47 vhcurveto
          289 hlineto
          55 35 25 49 51 callsubr
          17 0 11 17 vvcurveto
          -99 hlineto
          -70 -55 -2 -4 -34 hvcurveto
          -3 2 26 32 15 41 5 35 rlinecurve
          -1 43 42 0 45 hhcurveto
          11 27 0 45 -11 26 rrcurveto
          endchar
        </CharString>
        <CharString name="t">
          -195 -5 114 285 105 150 -20 hstem
          83 145 vstem
          -61 callsubr
          endchar
        </CharString>
        <CharString name="t.smcp">
          -108 428 122 hstem
          158 66 callsubr
          -52 callgsubr
          endchar
        </CharString>
        <CharString name="tcaron">
          -161 -5 114 285 105 52 11 87 -20 146 23 hstemhm
          83 145 58 136 hintmask 11010100
          -61 callsubr
          hintmask 00101010
          -62 63 -17 callgsubr
        </CharString>
        <CharString name="tcaron.smcp">
          -108 428 122 163 -20 hstemhm
          72 322 -236 151 hintmask 10010000
          -52 callgsubr
          hintmask 00000000
          -21 432 -50 callsubr
          hintmask 01100000
          -91 callgsubr
        </CharString>
        <CharString name="thorn">
          -33 41 callgsubr
          111 288 119 hstemhm
          62 144 142 152 hintmask 00000000
          hintmask 01111100
          500 264 rmoveto
          140 -67 104 -112 -44 -40 -16 -25 -31 vhcurveto
          179 vlineto
          66 -22 29 callsubr
          -938 vlineto
          7 -7 rlineto
          hintmask 10111100
          56 hlineto
          59 22 24 66 hvcurveto
          138 vlineto
          -13 30 33 -9 36 hhcurveto
          hintmask 01111100
          97 98 84 190 hvcurveto
          -217 125 rmoveto
          36 29 -39 -96 -96 -24 -57 -49 -19 -25 10 15 -25 hvcurveto
          221 64 callsubr
        </CharString>
        <CharString name="thorn.smcp">
          -32 92 112 158 113 75 -20 hstem
          73 151 128 154 vstem
          73 71 callsubr
          33 1 callsubr
          21 30 -54 callgsubr
          92 59 vlineto
          129 94 61 131 135 -94 56 -129 hvcurveto
          -21 -19 -1 -19 hhcurveto
          76 -1 callsubr
          -30 1 -21 hhcurveto
          -18 -33 43 callgsubr
          198 -188 rmoveto
          66 15 -43 -35 -37 -15 -43 -66 -8 -19 0 -1 -20 hvcurveto
          160 vlineto
          -1 20 18 0 9 hhcurveto
          endchar
        </CharString>
        <CharString name="three">
          -36 -15 120 418 125 hstem
          337 58 callsubr
          434 498 rmoveto
          21 22 8 18 22 vvcurveto
          33 -17 31 -13 24 vhcurveto
          -359 hlineto
          -11 -24 -2 -26 -19 vvcurveto
          -12 1 -21 9 -23 vhcurveto
          124 hlineto
          21 55 5 7 24 hvcurveto
          4 -7 -17 -12 -33 -32 -18 -18 rlinecurve
          -98 -101 9 -32 22 -36 25 -11 rlinecurve
          8 18 19 4 19 hhcurveto
          51 41 -33 -58 -63 -42 -39 -64 -51 -45 22 27 -34 hvcurveto
          -30 -24 -26 -38 -7 -35 rrcurveto
          -40 46 75 -32 91 hhcurveto
          127 112 78 138 112 -70 65 -96 12 hvcurveto
          11 8 11 9 9 9 rrcurveto
          endchar
        </CharString>
        <CharString name="three.smcp">
          -84 -15 117 329 119 hstem
          293 66 callsubr
          392 408 rmoveto
          16 15 10 18 21 vvcurveto
          25 -14 37 -14 26 vhcurveto
          -326 hlineto
          -11 -23 -2 -26 -17 vvcurveto
          -12 1 -16 9 -25 vhcurveto
          98 hlineto
          16 56 2 5 23 hvcurveto
          3 -4 -13 -10 -33 -25 -18 -16 rlinecurve
          -77 -71 rlineto
          -1 hlineto
          7 -27 26 -42 27 -12 rrcurveto
          5 14 13 4 19 hhcurveto
          45 27 -28 -37 -48 -34 -25 -49 -37 -42 16 25 -35 hvcurveto
          -31 -21 -23 -42 -6 -33 rrcurveto
          -36 44 69 -26 77 hhcurveto
          115 103 66 118 87 -62 59 -87 11 hvcurveto
          12 7 10 7 9 8 rrcurveto
          endchar
        </CharString>
        <CharString name="threequarters">
          474 0 -20 97 101 54 98 253 102 hstemhm
          236 129 -99 521 25 118 hintmask 10000100
          266 hmoveto
          -47 callgsubr
          hintmask 00111000
          -321 -123 -64 callgsubr
          hintmask 01000010
          536 -513 -89 callsubr
        </CharString>
        <CharString name="threesuperior">
          -146 317 98 253 102 hstem
          232 129 vstem
          319 645 -64 callgsubr
          endchar
        </CharString>
        <CharString name="tilde">
          554 114 -64 60 callgsubr
          12 374 hintmask 00000000
          hintmask 10100000
          201 572 -92 callsubr
          hintmask 01100000
          -94 callsubr
        </CharString>
        <CharString name="tilde.cap">
          741 113 -64 60 callgsubr
          1 396 hintmask 00000000
          hintmask 10100000
          201 758 -65 callsubr
          hintmask 01100000
          -71 callsubr
        </CharString>
        <CharString name="two">
          -36 -1 127 371 -20 64 122 hstem
          318 58 callsubr
          486 126 rmoveto
          -144 hlineto
          -40 -55 -3 -7 -54 hvcurveto
          13 24 40 35 31 26 72 62 rcurveline
          65 55 56 57 88 vvcurveto
          120 -83 80 -127 -111 -77 -75 -91 -25 vhcurveto
          -28 18 52 -17 36 hhcurveto
          45 12 31 44 49 hhcurveto
          46 27 -32 -42 -41 -24 -32 -31 -28 hvcurveto
          -107 -97 rlineto
          -63 -56 -53 -61 -62 vvcurveto
          -31 33 -41 18 -19 vhcurveto
          301 hlineto
          51 32 23 48 8 hvcurveto
          2 17 1 24 15 vvcurveto
          endchar
        </CharString>
        <CharString name="two.smcp">
          -84 -2 124 321 122 hstem
          274 148 vstem
          441 122 rmoveto
          -114 hlineto
          -31 -50 -4 -7 -52 hvcurveto
          11 16 27 20 21 17 70 58 rcurveline
          55 45 44 56 64 vvcurveto
          104 -74 74 -117 -95 -70 -62 -81 -22 vhcurveto
          -26 18 45 -22 40 hhcurveto
          37 12 26 32 38 hhcurveto
          32 19 -25 -28 -27 -17 -23 -22 -19 hvcurveto
          -96 -85 rlineto
          -53 -46 -49 -57 -49 vvcurveto
          -29 32 -40 18 -17 vhcurveto
          261 hlineto
          50 31 22 47 51 callsubr
          15 1 27 13 vvcurveto
          endchar
        </CharString>
        <CharString name="twosuperior">
          -146 320 109 229 -20 28 111 hstemhm
          225 130 hintmask 00000000
          hintmask 11010000
          367 429 0 callgsubr
          hintmask 11110000
          80 -61 60 -95 vhcurveto
          hintmask 11010000
          -81 -59 -54 -65 -14 hvcurveto
          hintmask 11110000
          -30 callgsubr
          hintmask 11010000
          80 callsubr
        </CharString>
        <CharString name="u">
          22 callsubr
          hstemhm
          60 149 126 81 callgsubr
          hintmask 10111000
          -44 callsubr
          hintmask 11011000
          -61 callgsubr
          endchar
        </CharString>
        <CharString name="u.smcp">
          -4 callgsubr
          44 callsubr
          182 13 callsubr
          hintmask 11110000
          -96 callsubr
          endchar
        </CharString>
        <CharString name="uacute">
          22 callsubr
          54 20 callgsubr
          60 149 -35 245 -84 81 callgsubr
          hintmask 10101010
          -44 callsubr
          hintmask 11001010
          -61 callgsubr
          hintmask 00010100
          114 222 -99 callsubr
        </CharString>
        <CharString name="uacute.smcp">
          28 callsubr
          -4 245 -59 -74 callsubr
          -337 445 -99 callsubr
        </CharString>
        <CharString name="ucircumflex">
          83 callgsubr
          195 endchar
        </CharString>
        <CharString name="ucircumflex.smcp">
          -4 callgsubr
          66 200 44 callsubr
          -72 320 -66 -74 callsubr
          -150 398 -87 callsubr
        </CharString>
        <CharString name="udieresis">
          22 callsubr
          88 96 hstemhm
          60 149 -114 -1 callgsubr
          -93 81 callgsubr
          hintmask 10101001
          -44 callsubr
          hintmask 11001001
          -61 callgsubr
          hintmask 00010110
          235 246 -107 callgsubr
        </CharString>
        <CharString name="udieresis.smcp">
          -4 callgsubr
          96 96 44 callsubr
          -84 -1 callgsubr
          -67 13 callsubr
          hintmask 11010010
          -96 callsubr
          hintmask 00101100
          -217 469 -107 callgsubr
        </CharString>
        <CharString name="ugrave">
          83 callgsubr
          193 endchar
        </CharString>
        <CharString name="ugrave.smcp">
          28 callsubr
          -57 245 -6 -74 callsubr
          -299 612 -68 callsubr
        </CharString>
        <CharString name="underscore">
          -6 -174 112 hstem
          -7 574 vstem
          561 -174 rmoveto
          4 19 2 16 21 vvcurveto
          22 -2 14 -4 20 vhcurveto
          -562 69 callsubr
          -1 -25 -11 vvcurveto
          -12 1 -25 5 -19 vhcurveto
          endchar
        </CharString>
        <CharString name="uni00AD">
          -28 callsubr
        </CharString>
        <CharString name="uring">
          83 callgsubr
          202 endchar
        </CharString>
        <CharString name="uring.smcp">
          -4 callgsubr
          64 76 102 75 44 callsubr
          -51 89 98 89 -43 13 callsubr
          hintmask 11001001
          -96 callsubr
          hintmask 00110110
          -384 516 -68 callgsubr
        </CharString>
        <CharString name="v">
          -90 -6 120 373 20 -4 -20 hstemhm
          -3 478 hintmask 00000000
          hintmask 11010000
          247 114 rmoveto
          -6 -2 0 8 -1 hvcurveto
          -6 30 -8 55 -11 40 -48 191 rcurveline
          51 -12 -27 18 -47 hhcurveto
          -24 -31 -9 -11 -27 hvcurveto
          122 -421 rlineto
          -59 18 29 -13 57 hhcurveto
          38 40 2 4 33 hvcurveto
          36 114 64 225 41 146 -5 7 rcurveline
          hintmask 10110000
          8 -23 -28 3 -26 hhcurveto
          -18 -18 -1 -4 -18 hvcurveto
          endchar
        </CharString>
        <CharString name="v.smcp">
          -24 -6 120 442 -20 21 -20 hstemhm
          6 531 hintmask 00000000
          hintmask 10110000
          283 114 rmoveto
          -5 -3 -1 10 -2 hvcurveto
          -12 67 -12 54 -15 53 -58 189 rcurveline
          53 -15 -24 18 -45 hhcurveto
          -30 -30 -6 -11 -26 hvcurveto
          145 -480 rlineto
          -55 15 36 -11 50 hhcurveto
          38 52 1 5 29 hvcurveto
          166 539 -7 7 rlineto
          hintmask 11010000
          8 -28 -25 2 -23 hhcurveto
          -18 -17 -1 -5 -22 hvcurveto
          endchar
        </CharString>
        <CharString name="w">
          186 -6 116 256 127 11 -20 23 -20 hstemhm
          7 738 hintmask 00000000
          hintmask 10011000
          105 65 rmoveto
          -58 13 28 -13 55 hhcurveto
          36 46 2 4 31 hvcurveto
          30 177 rlineto
          hintmask 11001000
          8 49 12 71 8 69 rrcurveto
          6 hlineto
          8 -69 12 -72 7 -50 19 -112 rcurveline
          -59 9 28 -10 57 hhcurveto
          35 45 1 5 30 hvcurveto
          hintmask 10101000
          117 483 -4 9 rlineto
          10 -21 -37 2 -21 hhcurveto
          -18 -23 -2 -4 -16 hvcurveto
          -46 -222 -12 -61 -9 -57 -7 -48 rlinecurve
          -6 -1 2 6 -1 hvcurveto
          hintmask 11001000
          -60 375 rlineto
          6 -23 -46 2 -20 hhcurveto
          -18 -44 -2 -6 -24 hvcurveto
          -59 -383 rlineto
          -6 -1 2 6 -1 hvcurveto
          -4 35 -10 59 -13 64 -33 168 rcurveline
          41 -8 -16 22 -47 hhcurveto
          -26 -28 -6 -12 -29 hvcurveto
          endchar
        </CharString>
        <CharString name="w.smcp">
          254 -7 128 288 134 12 -20 22 -20 hstemhm
          17 784 hintmask 00000000
          hintmask 10011000
          120 58 rmoveto
          -57 13 34 -8 47 hhcurveto
          42 53 2 5 31 hvcurveto
          39 220 rlineto
          hintmask 11001000
          12 68 11 79 6 42 rrcurveto
          6 hlineto
          5 -42 10 -81 11 -66 28 -162 rcurveline
          -57 10 38 -9 43 hhcurveto
          38 58 2 6 29 hvcurveto
          hintmask 10011000
          117 536 -7 8 rlineto
          hintmask 10101000
          8 -20 -28 3 -25 hhcurveto
          -20 -22 0 -5 -23 hvcurveto
          -52 -280 -8 -43 -9 -60 -5 -46 rlinecurve
          -5 -2 -1 13 -2 hvcurveto
          hintmask 11001000
          -67 410 rlineto
          4 -29 -34 2 -30 hhcurveto
          -30 -35 -2 -4 -28 hvcurveto
          -73 -422 rlineto
          -6 -1 1 11 -2 hvcurveto
          -5 42 -8 54 -8 40 -36 204 rcurveline
          62 -12 -16 22 -52 hhcurveto
          -27 -35 -5 -9 -22 hvcurveto
          endchar
        </CharString>
        <CharString name="x">
          -88 484 20 4 -20 hstemhm
          4 474 hintmask 00000000
          hintmask 10100000
          325 498 rmoveto
          -76 -124 rlineto
          hintmask 01100000
          -57 88 rlineto
          31 -20 -19 15 -37 hhcurveto
          -31 -38 -10 -23 -32 hvcurveto
          143 -221 -154 -239 4 -10 rlineto
          -8 22 28 -3 29 hhcurveto
          22 21 1 5 15 hvcurveto
          85 143 69 -107 rlineto
          -30 19 21 -15 38 hhcurveto
          33 39 14 19 29 hvcurveto
          -158 242 rlineto
          hintmask 10100000
          141 218 -4 10 rlineto
          6 -22 -24 4 -27 hhcurveto
          -21 -22 -2 -4 -16 hvcurveto
          endchar
        </CharString>
        <CharString name="x.smcp">
          -15 538 20 hstem
          5 541 vstem
          378 550 rmoveto
          -94 -143 -62 92 rlineto
          41 -29 -23 18 -41 hhcurveto
          -23 -42 -6 -25 -39 hvcurveto
          161 -239 -181 -276 5 -7 rlineto
          -8 23 24 -3 30 hhcurveto
          22 26 2 4 18 hvcurveto
          111 174 83 -122 rlineto
          -41 27 26 -19 41 hhcurveto
          22 45 5 27 38 hvcurveto
          -185 271 161 243 -1 8 rlineto
          7 -25 -32 3 -20 hhcurveto
          -21 -25 -1 -4 -20 hvcurveto
          endchar
        </CharString>
        <CharString name="y">
          52 callgsubr
          hstemhm
          2 485 hintmask 00000000
          hintmask 10110000
          -18 callsubr
          hintmask 11010000
          -43 callsubr
          endchar
        </CharString>
        <CharString name="y.smcp">
          -95 558 -20 hstem
          161 148 vstem
          -80 callsubr
          endchar
        </CharString>
        <CharString name="yacute">
          -73 48 0 121 194 endchar
        </CharString>
        <CharString name="yacute.smcp">
          -95 558 -20 54 20 callgsubr
          147 245 -231 148 hintmask 10010000
          -80 callsubr
          hintmask 01100000
          -185 100 -99 callsubr
        </CharString>
        <CharString name="ydieresis">
          52 callgsubr
          90 96 hstemhm
          2 485 -413 -1 callgsubr
          hintmask 00000000
          hintmask 10101000
          -18 callsubr
          hintmask 11001000
          -43 callsubr
          hintmask 00010110
          -88 608 -107 callgsubr
        </CharString>
        <CharString name="ydieresis.smcp">
          -95 558 -20 88 96 hstemhm
          67 134 -40 148 -42 133 hintmask 10010000
          -80 callsubr
          hintmask 01101000
          -65 124 -107 callgsubr
        </CharString>
        <CharString name="yen">
          -22 152 93 67 93 234 20 hstem
          197 146 vstem
          489 152 rmoveto
          80 callgsubr
          6 -5 19 vhcurveto
          -141 hlineto
          31 67 rlineto
          110 hlineto
          80 callgsubr
          5 -5 20 vhcurveto
          -67 hlineto
          109 234 -6 7 rlineto
          7 -28 -21 2 -23 hhcurveto
          -20 -17 -1 -6 -21 hvcurveto
          -68 -157 -15 -33 -21 -59 -13 -43 rlinecurve
          -6 hlineto
          -10 37 -21 65 -13 30 -49 120 rcurveline
          34 -13 -15 17 -41 hhcurveto
          -27 -36 -12 -15 -30 hvcurveto
          102 -227 rlineto
          -68 69 callsubr
          -2 -8 -19 vvcurveto
          -20 2 -8 38 callgsubr
          110 hlineto
          30 -67 rlineto
          -140 hlineto
          -5 -19 -2 -9 -19 vvcurveto
          -20 2 -8 38 callgsubr
          146 -152 hlineto
          -5 24 31 -16 callsubr
          21 26 -54 callgsubr
          152 vlineto
          endchar
        </CharString>
        <CharString name="yen.smcp">
          -76 121 84 57 84 214 -20 hstem
          172 142 vstem
          448 121 rmoveto
          4 18 2 4 20 vvcurveto
          20 -2 4 -4 18 vhcurveto
          -127 hlineto
          27 57 rlineto
          100 hlineto
          4 18 2 3 20 vvcurveto
          20 -2 3 -4 20 vhcurveto
          -60 hlineto
          93 195 -5 7 rlineto
          7 -29 -18 2 -22 hhcurveto
          -20 -20 -1 -5 -22 hvcurveto
          -62 -146 -12 -28 -11 -32 -10 -35 rlinecurve
          -4 hlineto
          -9 34 -11 36 -11 26 -45 109 rcurveline
          30 -12 -17 15 -34 hhcurveto
          -31 -35 -12 -14 -28 hvcurveto
          86 -188 rlineto
          -61 hlineto
          -5 -19 -2 -8 -16 vvcurveto
          -20 2 -3 38 callgsubr
          100 hlineto
          27 -57 rlineto
          -127 hlineto
          -5 -18 -2 -7 -17 vvcurveto
          -18 2 -6 38 callgsubr
          134 -121 hlineto
          -5 23 32 1 callsubr
          19 25 -54 callgsubr
          121 vlineto
          endchar
        </CharString>
        <CharString name="z">
          64 callgsubr
          hstem
          26 399 vstem
          -64 callsubr
          endchar
        </CharString>
        <CharString name="z.smcp">
          8 callsubr
          hstem
          34 454 vstem
          -98 callsubr
          endchar
        </CharString>
        <CharString name="zacute">
          -117 28 0 122 194 endchar
        </CharString>
        <CharString name="zacute.smcp">
          8 callsubr
          42 20 callgsubr
          34 454 -316 245 hintmask 11010000
          -98 callsubr
          hintmask 00101000
          -71 288 -99 callsubr
        </CharString>
        <CharString name="zcaron">
          -117 26 0 122 207 endchar
        </CharString>
        <CharString name="zcaron.smcp">
          8 callsubr
          163 -20 hstemhm
          34 454 -385 322 hintmask 11010000
          -98 callsubr
          hintmask 00000000
          -75 438 -93 callsubr
        </CharString>
        <CharString name="zdotaccent">
          64 callgsubr
          87 112 hstemhm
          26 399 -283 155 hintmask 11010000
          -64 callsubr
          hintmask 00101000
          -30 345 -91 callsubr
          endchar
        </CharString>
        <CharString name="zdotaccent.smcp">
          8 callsubr
          87 112 hstemhm
          34 454 -307 155 hintmask 11010000
          -98 callsubr
          hintmask 00101000
          -62 331 -91 callsubr
          endchar
        </CharString>
        <CharString name="zero">
          -36 -15 114 450 69 callgsubr
          32 153 160 20 callsubr
          32 324 rmoveto
          -111 9 -94 62 -70 vhcurveto
          -37 38 44 -27 80 hhcurveto
          80 44 27 37 38 hvcurveto
          62 70 9 94 111 vvcurveto
          111 -9 94 -62 70 vhcurveto
          37 -38 -43 27 -81 hhcurveto
          -80 -44 -27 -37 -38 hvcurveto
          -62 -70 -9 -94 -111 vvcurveto
          153 hmoveto
          97 7 60 14 31 vhcurveto
          26 11 23 11 25 hhcurveto
          26 22 -11 -26 11 hvcurveto
          14 -31 7 -60 -97 vvcurveto
          -96 -7 -61 -14 -31 vhcurveto
          -26 -11 -22 -11 -26 hhcurveto
          -25 -23 11 26 -11 hvcurveto
          -14 31 -7 61 96 vvcurveto
          endchar
        </CharString>
        <CharString name="zero.smcp">
          -84 -15 109 363 108 hstem
          33 146 108 162 vstem
          33 275 rmoveto
          -80 3 -96 57 -57 vhcurveto
          -33 33 40 -24 75 hhcurveto
          75 40 24 33 33 hvcurveto
          57 57 3 96 80 vvcurveto
          82 -3 95 -57 57 vhcurveto
          33 -33 -39 23 -76 hhcurveto
          -75 -40 -23 -33 -33 hvcurveto
          -57 -56 -3 -96 -82 vvcurveto
          146 hmoveto
          83 4 53 12 21 vhcurveto
          16 9 14 9 23 hhcurveto
          23 14 -9 -16 9 hvcurveto
          12 -21 4 -53 -83 vvcurveto
          -83 -4 -52 -12 -21 vhcurveto
          -16 -9 -15 -9 -22 hhcurveto
          -23 -14 9 16 -9 hvcurveto
          -12 21 -4 52 83 vvcurveto
          endchar
        </CharString>
      <CharString index="0">
        rmoveto
        -12 2 -20 6 -16 vhcurveto
        -10 17 -76 callsubr
        16 hvcurveto
        7 -76 callgsubr
        -7 16 vhcurveto
        10 -16 -75 callgsubr
        -17 hvcurveto
        -6 -16 -2 -20 -12 vvcurveto
        -200 hmoveto
        -12 2 -20 7 -16 88 callgsubr
        -76 callsubr
        17 hvcurveto
        6 -76 callgsubr
        -6 16 vhcurveto
        10 -17 -75 callgsubr
        -16 hvcurveto
        -7 -16 -2 -20 -12 vvcurveto
        endchar
      </CharString>
      <CharString index="1">
        -85 callsubr
        5 -24 -40 65 callgsubr
        -26 -38 -2 66 callgsubr
        -101 callsubr
        return
      </CharString>
      <CharString index="2">
        -106 callsubr
        270 hlineto
        56 33 26 48 9 hvcurveto
        -9 callsubr
        return
      </CharString>
      <CharString index="3">
        hintmask 11010000
        -107 callsubr
        return
      </CharString>
      <CharString index="4">
        197 342 rmoveto
        107 17 131 119 118 17 -131 -107 -107 -17 -132 -118 -119 -17 132 107 vhcurveto
        -159 hmoveto
        -105 24 -120 83 -69 vhcurveto
        -37 45 54 -26 89 hhcurveto
        89 54 26 37 45 hvcurveto
        83 69 24 120 105 vvcurveto
        106 -24 118 -83 69 vhcurveto
        37 -45 -54 26 -89 hhcurveto
        -89 -54 -26 -37 -45 hvcurveto
        -83 -69 -24 -118 -106 vvcurveto
        return
      </CharString>
      <CharString index="5">
        hintmask 11101000
        -105 callsubr
        return
      </CharString>
      <CharString index="6">
        187 274 rmoveto
        -60 callsubr
        -154 hmoveto
        -20 callgsubr
        49 -19 82 hhcurveto
        82 49 19 31 40 hvcurveto
        75 57 24 99 83 -77 callsubr
        return
      </CharString>
      <CharString index="7">
        562 473 rmoveto
        149 -102 67 -139 -75 -77 -39 callgsubr
        20 30 -54 callgsubr
        254 47 vlineto
        55 20 -29 -36 12 hvcurveto
        38 -109 rlineto
        -59 21 18 -30 55 hhcurveto
        41 41 19 27 20 hvcurveto
        -22 17 -17 27 -10 29 -32 89 rcurveline
        -15 43 -25 35 -36 13 rrcurveto
        59 22 63 65 96 vvcurveto
        -333 101 rmoveto
        -1 30 28 0 22 hhcurveto
        79 18 -47 -53 -51 -18 -49 -79 -14 -33 -1 -1 -33 hvcurveto
        return
      </CharString>
      <CharString index="8">
        -92 callsubr
        hintmask 00101000
        -94 callsubr
      </CharString>
      <CharString index="9">
        481 69 rmoveto
        -20 14 -8 23 -86 callsubr
        65 47 27 33 35 hvcurveto
        20 -29 34 -22 50 -2 19 15 22 35 6 27 rrcurveto
        -255 27 -57 callsubr
        return
      </CharString>
      <CharString index="10">
        57 149 rmoveto
        -12 -17 -6 -21 -19 vvcurveto
        -13 2 -12 15 -67 vhcurveto
        382 hlineto
        59 41 26 55 24 -4 26 -6 19 hvcurveto
        -13 -27 -37 -10 -49 hhcurveto
        -63 hlineto
        -41 -62 -3 -3 -43 hvcurveto
        -3 3 26 28 33 40 19 27 rlinecurve
        227 316 rlineto
        13 19 4 18 17 vvcurveto
        12 -1 11 -20 71 vhcurveto
        -438 hlineto
        -7 -26 -4 -21 -27 vvcurveto
        -16 1 -17 38 callgsubr
        146 hlineto
        39 70 3 6 45 hvcurveto
        3 -3 -26 -29 -35 -43 -19 -27 rlinecurve
        return
      </CharString>
      <CharString index="11">
        604 683 rmoveto
        5 -24 -35 65 callsubr
        -21 19 callgsubr
        -434 vlineto
        -94 -32 -48 -83 -82 -33 48 94 vhcurveto
        344 vlineto
        -47 callsubr
        -432 vlineto
        -169 98 -97 170 171 97 97 169 vhcurveto
        return
      </CharString>
      <CharString index="12">
        19 42 rmoveto
        -102 callsubr
        return
      </CharString>
      <CharString index="13">
        rmoveto
        -41 15 -56 -7 -33 -24 rrcurveto
        8 -16 5 -19 -18 vvcurveto
        -42 -23 -32 -43 -25 vhcurveto
        5 -29 17 -24 24 -8 rrcurveto
        91 28 58 62 79 vvcurveto
        21 -5 25 -7 14 vhcurveto
        endchar
      </CharString>
      <CharString index="14">
        160 hintmask 11010100
        -103 callgsubr
        return
      </CharString>
      <CharString index="15">
        rmoveto
        -19 -7 -31 -24 -9 -30 113 -110 rcurveline
        34 -7 56 -1 36 9 119 121 rcurveline
        -7 28 -36 26 -19 7 -120 -86 rcurveline
        endchar
      </CharString>
      <CharString index="16">
        93 -125 33 -10 56 -3 34 13 rlinecurve
        106 137 -16 30 -30 20 -20 7 rlinecurve
        -99 -95 rlineto
        endchar
      </CharString>
      <CharString index="17">
        155 hintmask 11010100
        -101 callgsubr
        return
      </CharString>
      <CharString index="18">
        hintmask 00000000
        hintmask 01001000
        227 387 rmoveto
        hintmask 10001000
        -95 callsubr
        return
      </CharString>
      <CharString index="19">
        142 hintmask 00000000
        hintmask 01010100
        -57 callgsubr
        hintmask 10010100
        -87 callgsubr
        return
      </CharString>
      <CharString index="20">
        -126 258 rlineto
        6 -24 -43 0 60 callsubr
        -42 -4 50 callsubr
        -547 vlineto
        -5 24 29 -16 callsubr
        19 24 1 5 24 hvcurveto
        163 vlineto
        34 -4 108 -4 77 vhcurveto
        3 1 13 -25 31 -77 11 -22 rlinecurve
        128 -259 rlineto
        -5 23 47 -16 callsubr
        18 43 3 6 24 hvcurveto
        547 vlineto
        return
      </CharString>
      <CharString index="21">
        rmoveto
        16 50 17 70 14 50 rrcurveto
        6 hlineto
        13 -52 16 -70 16 -52 13 -42 rcurveline
        -9 -10 1 -9 hhcurveto
        -66 hlineto
        -10 -12 -1 -10 hhcurveto
        return
      </CharString>
      <CharString index="22">
        rmoveto
        20 8 30 24 9 30 -113 110 rcurveline
        -35 7 -53 1 -37 -9 -118 -120 rcurveline
        7 -27 34 -28 20 -7 119 86 rcurveline
        endchar
      </CharString>
      <CharString index="23">
        rmoveto
        3 -25 18 -35 21 -12 238 94 rcurveline
        -4 44 -31 50 -24 19 rrcurveto
        endchar
      </CharString>
      <CharString index="24">
        rmoveto
        15 52 23 78 10 54 rrcurveto
        5 hlineto
        55 -202 21 -74 rlineto
        -13 -15 1 -10 hhcurveto
        -77 hlineto
        -11 -17 -1 -14 hhcurveto
        return
      </CharString>
      <CharString index="25">
        71 -39 44 -65 vhcurveto
        -20 hlineto
        -21 -38 -2 -3 -34 -69 callsubr
        23 hlineto
        35 12 -23 -34 hvcurveto
        -343 vlineto
        -73 -21 -25 -58 -24 vhcurveto
        2 -35 18 -39 21 -17 rrcurveto
        157 31 28 71 145 vvcurveto
        return
      </CharString>
      <CharString index="26">
        87 -15 112 266 114 109 69 callgsubr
        97 151 178 58 callsubr
        97 hmoveto
        -4 22 29 -2 24 hhcurveto
        25 29 2 4 22 hvcurveto
        484 vlineto
        63 25 39 62 60 31 -45 -50 -10 -1 -9 -1 -10 vhcurveto
        -57 -25 -31 -51 -41 vvcurveto
        -42 23 -33 40 -37 vhcurveto
        40 -37 rlineto
        20 -19 11 -16 -20 vvcurveto
        -27 -24 -17 -36 -19 -26 6 14 -28 vhcurveto
        -23 -23 -17 -48 -1 -32 rrcurveto
        -19 40 53 -10 38 hhcurveto
        116 84 56 101 45 -25 45 -46 45 hvcurveto
        -38 37 rlineto
        -16 15 -7 12 14 vvcurveto
        21 20 29 46 10 vhcurveto
        11 26 6 27 24 vvcurveto
        127 -98 81 -145 -143 -95 -68 -132 vhcurveto
        -23 vlineto
        -86 1 rlineto
        -4 -17 -2 -23 -17 vvcurveto
        -16 2 -25 37 callsubr
      </CharString>
      <CharString index="27">
        5 -8 rlineto
        -7 16 28 -4 26 hhcurveto
        23 23 2 5 18 hvcurveto
        33 101 rlineto
        -1 11 12 0 10 hhcurveto
        return
      </CharString>
      <CharString index="28">
        -58 callgsubr
        71 74 21 36 51 vhcurveto
        -37 callsubr
        -37 callgsubr
        return
      </CharString>
      <CharString index="29">
        rmoveto
        6 -27 22 -35 28 -14 38 18 25 17 19 24 rrcurveto
        -2 -32 -2 -33 -16 vvcurveto
        -95 -99 vlineto
        -4 -17 -2 -19 -18 vvcurveto
        -18 2 -18 4 -17 vhcurveto
        302 hlineto
        4 16 2 19 18 vvcurveto
        18 -2 19 -4 17 vhcurveto
        -82 339 hlineto
        4 -24 -15 2 -18 hhcurveto
        -18 -20 -2 -4 -21 hvcurveto
        -30 -63 -34 -38 -75 -45 rrcurveto
        return
      </CharString>
      <CharString index="30">
        -12 3 -30 9 -17 vhcurveto
        -12 19 31 -5 26 hhcurveto
        25 32 5 12 19 hvcurveto
        8 -2 callgsubr
        -8 17 vhcurveto
        11 -19 -32 50 callgsubr
        -7 -11 -19 hvcurveto
        -9 -17 -3 -30 -12 vvcurveto
        return
      </CharString>
      <CharString index="31">
        15 2 21 12 vvcurveto
        12 -2 20 return
      </CharString>
      <CharString index="32">
        -24 6 -22 hhcurveto
        -21 -25 -6 -10 return
      </CharString>
</ttFont>
